<ttFont>
<head>
    <!-- Most of this table will be recalculated by the compiler -->
    <tableVersion value="1.0"/>
    <fontRevision value="1.0"/>
    <checkSumAdjustment value="0x389b0eaf"/>
    <magicNumber value="0x5f0f3cf5"/>
    <flags value="00000000 00011011"/>
    <unitsPerEm value="1000"/>
    <created value="Tue Jan  8 12:46:00 2013"/>
    <modified value="Wed Mar 23 16:23:52 2016"/>
    <xMin value="-60"/>
    <yMin value="-306"/>
    <xMax value="1328"/>
    <yMax value="1128"/>
    <macStyle value="00000000 00000001"/>
    <lowestRecPPEM value="9"/>
    <fontDirectionHint value="2"/>
    <indexToLocFormat value="0"/>
    <glyphDataFormat value="0"/>
  </head>
    <TTGlyph name=".notdef" xMin="66" yMin="0" xMax="530" yMax="650">
      <contour>
        <pt x="66" y="650" on="1"/>
        <pt x="530" y="650" on="1"/>
        <pt x="530" y="0" on="1"/>
        <pt x="66" y="0" on="1"/>
      </contour>
      <contour>
        <pt x="456" y="604" on="1"/>
        <pt x="140" y="604" on="1"/>
        <pt x="299" y="367" on="1"/>
      </contour>
      <contour>
        <pt x="484" y="88" on="1"/>
        <pt x="484" y="562" on="1"/>
        <pt x="326" y="325" on="1"/>
      </contour>
      <contour>
        <pt x="456" y="47" on="1"/>
        <pt x="299" y="283" on="1"/>
        <pt x="140" y="47" on="1"/>
      </contour>
      <contour>
        <pt x="113" y="88" on="1"/>
        <pt x="270" y="325" on="1"/>
        <pt x="113" y="562" on="1"/>
      </contour>
    </TTGlyph>
    <TTGlyph name="A" xMin="10" yMin="0" xMax="702" yMax="663">
      <contour>
        <pt x="490" y="123" on="1"/>
        <pt x="211" y="123" on="1"/>
        <pt x="173" y="13" on="1"/>
        <pt x="170" y="5" on="0"/>
        <pt x="163" y="0" on="0"/>
        <pt x="154" y="0" on="1"/>
        <pt x="10" y="0" on="1"/>
        <pt x="262" y="663" on="1"/>
        <pt x="415" y="663" on="1"/>
        <pt x="425" y="663" on="0"/>
        <pt x="432" y="658" on="0"/>
        <pt x="436" y="649" on="1"/>
        <pt x="702" y="0" on="1"/>
        <pt x="554" y="0" on="1"/>
        <pt x="544" y="0" on="0"/>
        <pt x="536" y="5" on="0"/>
        <pt x="533" y="13" on="1"/>
      </contour>
      <contour>
        <pt x="441" y="247" on="1"/>
        <pt x="420" y="303" on="1"/>
        <pt x="408" y="334" on="0"/>
        <pt x="385" y="397" on="0"/>
        <pt x="366" y="454" on="0"/>
        <pt x="350" y="502" on="0"/>
        <pt x="346" y="519" on="1"/>
        <pt x="342" y="504" on="0"/>
        <pt x="328" y="455" on="0"/>
        <pt x="309" y="396" on="0"/>
        <pt x="287" y="333" on="0"/>
        <pt x="276" y="303" on="1"/>
        <pt x="256" y="247" on="1"/>
      </contour>
    </TTGlyph>
    <TTGlyph name="AE" xMin="-2" yMin="0" xMax="986" yMax="663">
      <contour>
        <pt x="976" y="663" on="1"/>
        <pt x="976" y="533" on="1"/>
        <pt x="639" y="533" on="1"/>
        <pt x="639" y="401" on="1"/>
        <pt x="946" y="401" on="1"/>
        <pt x="946" y="273" on="1"/>
        <pt x="639" y="273" on="1"/>
        <pt x="639" y="130" on="1"/>
        <pt x="986" y="130" on="1"/>
        <pt x="986" y="0" on="1"/>
        <pt x="483" y="0" on="1"/>
        <pt x="483" y="123" on="1"/>
        <pt x="247" y="123" on="1"/>
        <pt x="180" y="13" on="1"/>
        <pt x="176" y="7" on="0"/>
        <pt x="165" y="0" on="0"/>
        <pt x="151" y="0" on="1"/>
        <pt x="-2" y="0" on="1"/>
        <pt x="422" y="663" on="1"/>
      </contour>
      <contour>
        <pt x="483" y="517" on="1"/>
        <pt x="323" y="247" on="1"/>
        <pt x="483" y="247" on="1"/>
      </contour>
    </TTGlyph>
    <TTGlyph name="AEacute" xMin="-2" yMin="0" xMax="986" yMax="931">
      <component glyphName="AE" x="0" y="0" flags="0x204"/>
      <component glyphName="acute.cap" x="439" y="0" flags="0x4"/>
    </TTGlyph>
    <TTGlyph name="Aacute" xMin="10" yMin="0" xMax="702" yMax="931">
      <component glyphName="A" x="0" y="0" flags="0x204"/>
      <component glyphName="acute.cap" x="139" y="0" flags="0x4"/>
    </TTGlyph>
    <TTGlyph name="Abreve" xMin="10" yMin="0" xMax="702" yMax="900">
      <component glyphName="A" x="0" y="0" flags="0x204"/>
      <component glyphName="breve.cap" x="134" y="0" flags="0x4"/>
    </TTGlyph>
    <TTGlyph name="Acaron" xMin="10" yMin="0" xMax="702" yMax="926">
      <component glyphName="A" x="0" y="0" flags="0x204"/>
      <component glyphName="caron.cap" x="135" y="0" flags="0x4"/>
    </TTGlyph>
    <TTGlyph name="Acircumflex" xMin="10" yMin="0" xMax="702" yMax="915">
      <component glyphName="A" x="0" y="0" flags="0x204"/>
      <component glyphName="circumflex.cap" x="135" y="0" flags="0x4"/>
    </TTGlyph>
    <TTGlyph name="Adieresis" xMin="10" yMin="0" xMax="702" yMax="875">
      <component glyphName="A" x="0" y="0" flags="0x204"/>
      <component glyphName="dieresis.cap" x="135" y="0" flags="0x4"/>
    </TTGlyph>
    <TTGlyph name="Agrave" xMin="10" yMin="0" xMax="702" yMax="931">
      <component glyphName="A" x="0" y="0" flags="0x204"/>
      <component glyphName="grave.cap" x="139" y="0" flags="0x4"/>
    </TTGlyph>
    <TTGlyph name="Amacron" xMin="10" yMin="0" xMax="702" yMax="865">
      <component glyphName="A" x="0" y="0" flags="0x204"/>
      <component glyphName="macron.cap" x="135" y="0" flags="0x4"/>
    </TTGlyph>
    <TTGlyph name="Aogonek" xMin="10" yMin="-224" xMax="709" yMax="663">
      <contour>
        <pt x="490" y="123" on="1"/>
        <pt x="211" y="123" on="1"/>
        <pt x="173" y="13" on="1"/>
        <pt x="170" y="5" on="0"/>
        <pt x="163" y="0" on="0"/>
        <pt x="154" y="0" on="1"/>
        <pt x="10" y="0" on="1"/>
        <pt x="262" y="663" on="1"/>
        <pt x="415" y="663" on="1"/>
        <pt x="425" y="663" on="0"/>
        <pt x="432" y="658" on="0"/>
        <pt x="436" y="649" on="1"/>
        <pt x="702" y="0" on="1"/>
        <pt x="643" y="0" on="1"/>
        <pt x="624" y="0" on="0"/>
        <pt x="595" y="-15" on="0"/>
        <pt x="576" y="-38" on="0"/>
        <pt x="566" y="-67" on="0"/>
        <pt x="566" y="-80" on="1"/>
        <pt x="566" y="-106" on="0"/>
        <pt x="598" y="-129" on="0"/>
        <pt x="629" y="-129" on="1"/>
        <pt x="654" y="-129" on="0"/>
        <pt x="687" y="-123" on="1"/>
        <pt x="709" y="-196" on="1"/>
        <pt x="683" y="-210" on="0"/>
        <pt x="624" y="-224" on="0"/>
        <pt x="598" y="-224" on="1"/>
        <pt x="532" y="-224" on="0"/>
        <pt x="457" y="-162" on="0"/>
        <pt x="457" y="-114" on="1"/>
        <pt x="457" y="-73" on="0"/>
        <pt x="498" y="-7" on="0"/>
        <pt x="531" y="18" on="1"/>
      </contour>
      <contour>
        <pt x="441" y="247" on="1"/>
        <pt x="420" y="303" on="1"/>
        <pt x="408" y="334" on="0"/>
        <pt x="385" y="397" on="0"/>
        <pt x="366" y="454" on="0"/>
        <pt x="350" y="502" on="0"/>
        <pt x="346" y="519" on="1"/>
        <pt x="342" y="504" on="0"/>
        <pt x="328" y="455" on="0"/>
        <pt x="309" y="396" on="0"/>
        <pt x="287" y="333" on="0"/>
        <pt x="276" y="303" on="1"/>
        <pt x="256" y="247" on="1"/>
      </contour>
    </TTGlyph>
    <TTGlyph name="Aring" xMin="10" yMin="0" xMax="702" yMax="901">
      <contour>
        <pt x="702" y="0" on="1"/>
        <pt x="554" y="0" on="1"/>
        <pt x="544" y="0" on="0"/>
        <pt x="536" y="5" on="0"/>
        <pt x="533" y="13" on="1"/>
        <pt x="490" y="123" on="1"/>
        <pt x="211" y="123" on="1"/>
        <pt x="173" y="13" on="1"/>
        <pt x="170" y="5" on="0"/>
        <pt x="163" y="0" on="0"/>
        <pt x="154" y="0" on="1"/>
        <pt x="10" y="0" on="1"/>
        <pt x="264" y="667" on="1"/>
        <pt x="239" y="683" on="0"/>
        <pt x="211" y="737" on="0"/>
        <pt x="211" y="772" on="1"/>
        <pt x="211" y="831" on="0"/>
        <pt x="287" y="901" on="0"/>
        <pt x="346" y="901" on="1"/>
        <pt x="405" y="901" on="0"/>
        <pt x="481" y="831" on="0"/>
        <pt x="481" y="772" on="1"/>
        <pt x="481" y="737" on="0"/>
        <pt x="453" y="684" on="0"/>
        <pt x="428" y="667" on="1"/>
      </contour>
      <contour>
        <pt x="346" y="723" on="1"/>
        <pt x="374" y="723" on="0"/>
        <pt x="397" y="749" on="0"/>
        <pt x="397" y="772" on="1"/>
        <pt x="397" y="795" on="0"/>
        <pt x="374" y="821" on="0"/>
        <pt x="346" y="821" on="1"/>
        <pt x="318" y="821" on="0"/>
        <pt x="295" y="795" on="0"/>
        <pt x="295" y="772" on="1"/>
        <pt x="295" y="749" on="0"/>
        <pt x="318" y="723" on="0"/>
      </contour>
      <contour>
        <pt x="441" y="247" on="1"/>
        <pt x="420" y="303" on="1"/>
        <pt x="408" y="334" on="0"/>
        <pt x="385" y="397" on="0"/>
        <pt x="366" y="454" on="0"/>
        <pt x="350" y="502" on="0"/>
        <pt x="346" y="519" on="1"/>
        <pt x="342" y="504" on="0"/>
        <pt x="328" y="455" on="0"/>
        <pt x="309" y="396" on="0"/>
        <pt x="287" y="333" on="0"/>
        <pt x="276" y="303" on="1"/>
        <pt x="256" y="247" on="1"/>
      </contour>
    </TTGlyph>
    <TTGlyph name="Aringacute" xMin="10" yMin="0" xMax="702" yMax="1128">
      <component glyphName="acute" x="135" y="371" flags="0x4"/>
      <component glyphName="Aring" x="0" y="0" flags="0x4"/>
    </TTGlyph>
    <TTGlyph name="Atilde" xMin="10" yMin="0" xMax="702" yMax="890">
      <component glyphName="A" x="0" y="0" flags="0x204"/>
      <component glyphName="tilde.cap" x="135" y="0" flags="0x4"/>
    </TTGlyph>
    <TTGlyph name="B" xMin="65" yMin="0" xMax="631" yMax="663">
      <contour>
        <pt x="65" y="663" on="1"/>
        <pt x="357" y="663" on="1"/>
        <pt x="425" y="663" on="0"/>
        <pt x="517" y="638" on="0"/>
        <pt x="546" y="611" on="1"/>
        <pt x="589" y="570" on="0"/>
        <pt x="589" y="498" on="1"/>
        <pt x="589" y="459" on="0"/>
        <pt x="555" y="386" on="0"/>
        <pt x="527" y="358" on="1"/>
        <pt x="571" y="336" on="0"/>
        <pt x="631" y="260" on="0"/>
        <pt x="631" y="198" on="1"/>
        <pt x="631" y="108" on="0"/>
        <pt x="580" y="59" on="1"/>
        <pt x="548" y="28" on="0"/>
        <pt x="445" y="0" on="0"/>
        <pt x="372" y="0" on="1"/>
        <pt x="65" y="0" on="1"/>
      </contour>
      <contour>
        <pt x="221" y="130" on="1"/>
        <pt x="375" y="130" on="1"/>
        <pt x="405" y="130" on="0"/>
        <pt x="441" y="137" on="0"/>
        <pt x="452" y="147" on="1"/>
        <pt x="472" y="165" on="0"/>
        <pt x="472" y="204" on="1"/>
        <pt x="472" y="239" on="0"/>
        <pt x="455" y="256" on="1"/>
        <pt x="444" y="267" on="0"/>
        <pt x="408" y="273" on="0"/>
        <pt x="381" y="273" on="1"/>
        <pt x="221" y="273" on="1"/>
      </contour>
      <contour>
        <pt x="391" y="393" on="1"/>
        <pt x="411" y="393" on="0"/>
        <pt x="419" y="405" on="1"/>
        <pt x="427" y="416" on="0"/>
        <pt x="435" y="450" on="0"/>
        <pt x="435" y="467" on="1"/>
        <pt x="435" y="499" on="0"/>
        <pt x="419" y="515" on="1"/>
        <pt x="408" y="526" on="0"/>
        <pt x="374" y="533" on="0"/>
        <pt x="349" y="533" on="1"/>
        <pt x="221" y="533" on="1"/>
        <pt x="221" y="393" on="1"/>
      </contour>
    </TTGlyph>
    <TTGlyph name="C" xMin="34" yMin="-10" xMax="666" yMax="673">
      <contour>
        <pt x="666" y="140" on="1"/>
        <pt x="641" y="108" on="0"/>
        <pt x="572" y="53" on="0"/>
        <pt x="491" y="13" on="0"/>
        <pt x="401" y="-10" on="0"/>
        <pt x="355" y="-10" on="1"/>
        <pt x="281" y="-10" on="0"/>
        <pt x="162" y="43" on="0"/>
        <pt x="79" y="134" on="0"/>
        <pt x="34" y="259" on="0"/>
        <pt x="34" y="331" on="1"/>
        <pt x="34" y="410" on="0"/>
        <pt x="86" y="537" on="0"/>
        <pt x="175" y="626" on="0"/>
        <pt x="294" y="673" on="0"/>
        <pt x="361" y="673" on="1"/>
        <pt x="466" y="673" on="0"/>
        <pt x="615" y="566" on="0"/>
        <pt x="651" y="472" on="1"/>
        <pt x="552" y="408" on="1"/>
        <pt x="469" y="476" on="1"/>
        <pt x="436" y="503" on="0"/>
        <pt x="384" y="526" on="0"/>
        <pt x="351" y="526" on="1"/>
        <pt x="318" y="526" on="0"/>
        <pt x="262" y="503" on="0"/>
        <pt x="221" y="455" on="0"/>
        <pt x="197" y="382" on="0"/>
        <pt x="197" y="333" on="1"/>
        <pt x="197" y="236" on="0"/>
        <pt x="291" y="139" on="0"/>
        <pt x="372" y="139" on="1"/>
        <pt x="403" y="139" on="0"/>
        <pt x="469" y="157" on="0"/>
        <pt x="503" y="173" on="1"/>
        <pt x="609" y="222" on="1"/>
      </contour>
    </TTGlyph>
    <TTGlyph name="Cacute" xMin="34" yMin="-10" xMax="666" yMax="931">
      <component glyphName="C" x="0" y="0" flags="0x204"/>
      <component glyphName="acute.cap" x="133" y="0" flags="0x4"/>
    </TTGlyph>
    <TTGlyph name="Ccaron" xMin="34" yMin="-10" xMax="666" yMax="926">
      <component glyphName="C" x="0" y="0" flags="0x204"/>
      <component glyphName="caron.cap" x="134" y="0" flags="0x4"/>
    </TTGlyph>
    <TTGlyph name="Ccedilla" xMin="34" yMin="-244" xMax="666" yMax="673">
      <contour>
        <pt x="274" y="-65" on="1"/>
        <pt x="274" y="-51" on="0"/>
        <pt x="292" y="-20" on="0"/>
        <pt x="307" y="-7" on="1"/>
        <pt x="244" y="1" on="0"/>
        <pt x="142" y="59" on="0"/>
        <pt x="72" y="149" on="0"/>
        <pt x="34" y="265" on="0"/>
        <pt x="34" y="331" on="1"/>
        <pt x="34" y="410" on="0"/>
        <pt x="85" y="537" on="0"/>
        <pt x="174" y="626" on="0"/>
        <pt x="292" y="673" on="0"/>
        <pt x="359" y="673" on="1"/>
        <pt x="464" y="673" on="0"/>
        <pt x="613" y="566" on="0"/>
        <pt x="649" y="472" on="1"/>
        <pt x="550" y="408" on="1"/>
        <pt x="467" y="476" on="1"/>
        <pt x="436" y="502" on="0"/>
        <pt x="382" y="526" on="0"/>
        <pt x="349" y="526" on="1"/>
        <pt x="316" y="526" on="0"/>
        <pt x="261" y="502" on="0"/>
        <pt x="220" y="454" on="0"/>
        <pt x="197" y="382" on="0"/>
        <pt x="197" y="333" on="1"/>
        <pt x="197" y="239" on="0"/>
        <pt x="291" y="139" on="0"/>
        <pt x="372" y="139" on="1"/>
        <pt x="403" y="139" on="0"/>
        <pt x="469" y="157" on="0"/>
        <pt x="503" y="173" on="1"/>
        <pt x="609" y="222" on="1"/>
        <pt x="666" y="140" on="1"/>
        <pt x="620" y="81" on="0"/>
        <pt x="476" y="0" on="0"/>
        <pt x="392" y="-8" on="1"/>
        <pt x="380" y="-25" on="0"/>
        <pt x="380" y="-34" on="1"/>
        <pt x="380" y="-45" on="0"/>
        <pt x="413" y="-56" on="0"/>
        <pt x="454" y="-71" on="0"/>
        <pt x="487" y="-101" on="0"/>
        <pt x="487" y="-132" on="1"/>
        <pt x="487" y="-180" on="0"/>
        <pt x="390" y="-244" on="0"/>
        <pt x="293" y="-244" on="1"/>
        <pt x="278" y="-167" on="1"/>
        <pt x="334" y="-158" on="1"/>
        <pt x="368" y="-152" on="0"/>
        <pt x="368" y="-138" on="1"/>
        <pt x="368" y="-130" on="0"/>
        <pt x="339" y="-120" on="0"/>
        <pt x="303" y="-106" on="0"/>
        <pt x="274" y="-84" on="0"/>
      </contour>
    </TTGlyph>
    <TTGlyph name="Ccircumflex" xMin="34" yMin="-10" xMax="666" yMax="915">
      <component glyphName="C" x="0" y="0" flags="0x204"/>
      <component glyphName="circumflex.cap" x="134" y="0" flags="0x4"/>
    </TTGlyph>
    <TTGlyph name="Cdotaccent" xMin="34" yMin="-10" xMax="666" yMax="868">
      <component glyphName="C" x="0" y="0" flags="0x204"/>
      <component glyphName="dotaccent.cap" x="134" y="0" flags="0x4"/>
    </TTGlyph>
    <TTGlyph name="D" xMin="65" yMin="0" xMax="690" yMax="663">
      <contour>
        <pt x="65" y="0" on="1"/>
        <pt x="65" y="663" on="1"/>
        <pt x="300" y="663" on="1"/>
        <pt x="397" y="663" on="0"/>
        <pt x="543" y="624" on="0"/>
        <pt x="594" y="579" on="1"/>
        <pt x="640" y="538" on="0"/>
        <pt x="690" y="415" on="0"/>
        <pt x="690" y="331" on="1"/>
        <pt x="690" y="248" on="0"/>
        <pt x="640" y="125" on="0"/>
        <pt x="594" y="84" on="1"/>
        <pt x="543" y="39" on="0"/>
        <pt x="397" y="0" on="0"/>
        <pt x="300" y="0" on="1"/>
      </contour>
      <contour>
        <pt x="294" y="135" on="1"/>
        <pt x="360" y="135" on="0"/>
        <pt x="453" y="157" on="0"/>
        <pt x="481" y="185" on="1"/>
        <pt x="504" y="208" on="0"/>
        <pt x="528" y="279" on="0"/>
        <pt x="528" y="331" on="1"/>
        <pt x="528" y="384" on="0"/>
        <pt x="504" y="455" on="0"/>
        <pt x="481" y="478" on="1"/>
        <pt x="453" y="506" on="0"/>
        <pt x="360" y="528" on="0"/>
        <pt x="294" y="528" on="1"/>
        <pt x="221" y="528" on="1"/>
        <pt x="221" y="135" on="1"/>
      </contour>
    </TTGlyph>
    <TTGlyph name="Dcaron" xMin="65" yMin="0" xMax="690" yMax="926">
      <component glyphName="D" x="0" y="0" flags="0x204"/>
      <component glyphName="caron.cap" x="151" y="0" flags="0x4"/>
    </TTGlyph>
    <TTGlyph name="Dcroat" xMin="12" yMin="0" xMax="710" yMax="663">
      <contour>
        <pt x="85" y="0" on="1"/>
        <pt x="85" y="280" on="1"/>
        <pt x="12" y="280" on="1"/>
        <pt x="12" y="396" on="1"/>
        <pt x="85" y="396" on="1"/>
        <pt x="85" y="663" on="1"/>
        <pt x="320" y="663" on="1"/>
        <pt x="417" y="663" on="0"/>
        <pt x="563" y="624" on="0"/>
        <pt x="614" y="579" on="1"/>
        <pt x="660" y="538" on="0"/>
        <pt x="710" y="415" on="0"/>
        <pt x="710" y="331" on="1"/>
        <pt x="710" y="248" on="0"/>
        <pt x="660" y="125" on="0"/>
        <pt x="614" y="84" on="1"/>
        <pt x="563" y="39" on="0"/>
        <pt x="417" y="0" on="0"/>
        <pt x="320" y="0" on="1"/>
      </contour>
      <contour>
        <pt x="314" y="135" on="1"/>
        <pt x="380" y="135" on="0"/>
        <pt x="473" y="157" on="0"/>
        <pt x="501" y="185" on="1"/>
        <pt x="524" y="208" on="0"/>
        <pt x="548" y="279" on="0"/>
        <pt x="548" y="331" on="1"/>
        <pt x="548" y="384" on="0"/>
        <pt x="524" y="455" on="0"/>
        <pt x="501" y="478" on="1"/>
        <pt x="473" y="506" on="0"/>
        <pt x="380" y="528" on="0"/>
        <pt x="314" y="528" on="1"/>
        <pt x="241" y="528" on="1"/>
        <pt x="241" y="396" on="1"/>
        <pt x="382" y="396" on="1"/>
        <pt x="382" y="280" on="1"/>
        <pt x="241" y="280" on="1"/>
        <pt x="241" y="135" on="1"/>
      </contour>
    </TTGlyph>
    <TTGlyph name="Delta" xMin="34" yMin="0" xMax="649" yMax="663">
      <contour>
        <pt x="421" y="129" on="1"/>
        <pt x="436" y="129" on="0"/>
        <pt x="470" y="127" on="0"/>
        <pt x="482" y="125" on="1"/>
        <pt x="476" y="137" on="0"/>
        <pt x="455" y="187" on="0"/>
        <pt x="444" y="214" on="1"/>
        <pt x="407" y="309" on="1"/>
        <pt x="377" y="386" on="0"/>
        <pt x="342" y="482" on="0"/>
        <pt x="333" y="516" on="1"/>
        <pt x="325" y="484" on="0"/>
        <pt x="291" y="379" on="0"/>
        <pt x="265" y="309" on="1"/>
        <pt x="224" y="197" on="1"/>
        <pt x="216" y="177" on="0"/>
        <pt x="199" y="136" on="0"/>
        <pt x="194" y="125" on="1"/>
        <pt x="206" y="127" on="0"/>
        <pt x="240" y="129" on="0"/>
        <pt x="255" y="129" on="1"/>
      </contour>
      <contour>
        <pt x="649" y="0" on="1"/>
        <pt x="34" y="0" on="1"/>
        <pt x="34" y="77" on="1"/>
        <pt x="34" y="94" on="0"/>
        <pt x="45" y="128" on="0"/>
        <pt x="57" y="160" on="1"/>
        <pt x="249" y="663" on="1"/>
        <pt x="404" y="663" on="1"/>
        <pt x="413" y="663" on="0"/>
        <pt x="420" y="658" on="0"/>
        <pt x="424" y="649" on="1"/>
        <pt x="617" y="180" on="1"/>
        <pt x="634" y="138" on="0"/>
        <pt x="649" y="93" on="0"/>
        <pt x="649" y="77" on="1"/>
      </contour>
    </TTGlyph>
    <TTGlyph name="E" xMin="65" yMin="0" xMax="568" yMax="663">
      <contour>
        <pt x="558" y="663" on="1"/>
        <pt x="558" y="533" on="1"/>
        <pt x="221" y="533" on="1"/>
        <pt x="221" y="401" on="1"/>
        <pt x="528" y="401" on="1"/>
        <pt x="528" y="273" on="1"/>
        <pt x="221" y="273" on="1"/>
        <pt x="221" y="130" on="1"/>
        <pt x="568" y="130" on="1"/>
        <pt x="568" y="0" on="1"/>
        <pt x="65" y="0" on="1"/>
        <pt x="65" y="663" on="1"/>
      </contour>
    </TTGlyph>
    <TTGlyph name="Eacute" xMin="65" yMin="0" xMax="568" yMax="931">
      <component glyphName="E" x="0" y="0" flags="0x204"/>
      <component glyphName="acute.cap" x="97" y="0" flags="0x4"/>
    </TTGlyph>
    <TTGlyph name="Ebreve" xMin="65" yMin="0" xMax="568" yMax="900">
      <component glyphName="E" x="0" y="0" flags="0x204"/>
      <component glyphName="breve.cap" x="97" y="0" flags="0x4"/>
    </TTGlyph>
    <TTGlyph name="Ecaron" xMin="65" yMin="0" xMax="568" yMax="926">
      <component glyphName="E" x="0" y="0" flags="0x204"/>
      <component glyphName="caron.cap" x="98" y="0" flags="0x4"/>
    </TTGlyph>
    <TTGlyph name="Ecircumflex" xMin="65" yMin="0" xMax="568" yMax="915">
      <component glyphName="E" x="0" y="0" flags="0x204"/>
      <component glyphName="circumflex.cap" x="98" y="0" flags="0x4"/>
    </TTGlyph>
    <TTGlyph name="Edieresis" xMin="65" yMin="0" xMax="568" yMax="875">
      <component glyphName="E" x="0" y="0" flags="0x204"/>
      <component glyphName="dieresis.cap" x="97" y="0" flags="0x4"/>
    </TTGlyph>
    <TTGlyph name="Edotaccent" xMin="65" yMin="0" xMax="568" yMax="868">
      <component glyphName="E" x="0" y="0" flags="0x204"/>
      <component glyphName="dotaccent.cap" x="98" y="0" flags="0x4"/>
    </TTGlyph>
    <TTGlyph name="Egrave" xMin="65" yMin="0" xMax="568" yMax="931">
      <component glyphName="E" x="0" y="0" flags="0x204"/>
      <component glyphName="grave.cap" x="97" y="0" flags="0x4"/>
    </TTGlyph>
    <TTGlyph name="Emacron" xMin="65" yMin="0" xMax="568" yMax="865">
      <component glyphName="E" x="0" y="0" flags="0x204"/>
      <component glyphName="macron.cap" x="97" y="0" flags="0x4"/>
    </TTGlyph>
    <TTGlyph name="Eng" xMin="65" yMin="-238" xMax="680" yMax="663">
      <contour>
        <pt x="212" y="0" on="1"/>
        <pt x="65" y="0" on="1"/>
        <pt x="65" y="663" on="1"/>
        <pt x="182" y="663" on="1"/>
        <pt x="193" y="663" on="0"/>
        <pt x="203" y="658" on="0"/>
        <pt x="210" y="650" on="1"/>
        <pt x="430" y="375" on="1"/>
        <pt x="463" y="333" on="0"/>
        <pt x="520" y="259" on="0"/>
        <pt x="533" y="240" on="1"/>
        <pt x="533" y="663" on="1"/>
        <pt x="680" y="663" on="1"/>
        <pt x="680" y="-26" on="1"/>
        <pt x="680" y="-129" on="0"/>
        <pt x="582" y="-238" on="0"/>
        <pt x="481" y="-238" on="1"/>
        <pt x="461" y="-238" on="0"/>
        <pt x="417" y="-230" on="0"/>
        <pt x="376" y="-217" on="0"/>
        <pt x="340" y="-201" on="0"/>
        <pt x="328" y="-193" on="1"/>
        <pt x="354" y="-95" on="1"/>
        <pt x="366" y="-97" on="0"/>
        <pt x="395" y="-100" on="0"/>
        <pt x="424" y="-102" on="0"/>
        <pt x="449" y="-104" on="0"/>
        <pt x="457" y="-104" on="1"/>
        <pt x="499" y="-104" on="0"/>
        <pt x="533" y="-74" on="0"/>
        <pt x="533" y="-32" on="1"/>
        <pt x="533" y="17" on="1"/>
        <pt x="316" y="288" on="1"/>
        <pt x="283" y="330" on="0"/>
        <pt x="226" y="403" on="0"/>
        <pt x="213" y="422" on="1"/>
        <pt x="212" y="422" on="1"/>
      </contour>
    </TTGlyph>
    <TTGlyph name="Eogonek" xMin="65" yMin="-224" xMax="568" yMax="663">
      <contour>
        <pt x="65" y="0" on="1"/>
        <pt x="65" y="663" on="1"/>
        <pt x="558" y="663" on="1"/>
        <pt x="558" y="533" on="1"/>
        <pt x="221" y="533" on="1"/>
        <pt x="221" y="401" on="1"/>
        <pt x="528" y="401" on="1"/>
        <pt x="528" y="273" on="1"/>
        <pt x="221" y="273" on="1"/>
        <pt x="221" y="130" on="1"/>
        <pt x="568" y="130" on="1"/>
        <pt x="568" y="0" on="1"/>
        <pt x="481" y="0" on="1"/>
        <pt x="471" y="0" on="0"/>
        <pt x="460" y="-5" on="0"/>
        <pt x="454" y="-11" on="1"/>
        <pt x="439" y="-26" on="0"/>
        <pt x="421" y="-67" on="0"/>
        <pt x="421" y="-83" on="1"/>
        <pt x="421" y="-129" on="0"/>
        <pt x="484" y="-129" on="1"/>
        <pt x="509" y="-129" on="0"/>
        <pt x="542" y="-123" on="1"/>
        <pt x="564" y="-196" on="1"/>
        <pt x="538" y="-210" on="0"/>
        <pt x="479" y="-224" on="0"/>
        <pt x="453" y="-224" on="1"/>
        <pt x="387" y="-224" on="0"/>
        <pt x="312" y="-162" on="0"/>
        <pt x="312" y="-114" on="1"/>
        <pt x="312" y="-83" on="0"/>
        <pt x="342" y="-25" on="0"/>
        <pt x="367" y="0" on="1"/>
      </contour>
    </TTGlyph>
    <TTGlyph name="Eth" xMin="12" yMin="0" xMax="710" yMax="663">
      <contour>
        <pt x="85" y="0" on="1"/>
        <pt x="85" y="280" on="1"/>
        <pt x="12" y="280" on="1"/>
        <pt x="12" y="396" on="1"/>
        <pt x="85" y="396" on="1"/>
        <pt x="85" y="663" on="1"/>
        <pt x="320" y="663" on="1"/>
        <pt x="417" y="663" on="0"/>
        <pt x="563" y="624" on="0"/>
        <pt x="614" y="579" on="1"/>
        <pt x="660" y="538" on="0"/>
        <pt x="710" y="415" on="0"/>
        <pt x="710" y="331" on="1"/>
        <pt x="710" y="248" on="0"/>
        <pt x="660" y="125" on="0"/>
        <pt x="614" y="84" on="1"/>
        <pt x="563" y="39" on="0"/>
        <pt x="417" y="0" on="0"/>
        <pt x="320" y="0" on="1"/>
      </contour>
      <contour>
        <pt x="314" y="135" on="1"/>
        <pt x="380" y="135" on="0"/>
        <pt x="473" y="157" on="0"/>
        <pt x="501" y="185" on="1"/>
        <pt x="524" y="208" on="0"/>
        <pt x="548" y="279" on="0"/>
        <pt x="548" y="331" on="1"/>
        <pt x="548" y="384" on="0"/>
        <pt x="524" y="455" on="0"/>
        <pt x="501" y="478" on="1"/>
        <pt x="473" y="506" on="0"/>
        <pt x="380" y="528" on="0"/>
        <pt x="314" y="528" on="1"/>
        <pt x="241" y="528" on="1"/>
        <pt x="241" y="396" on="1"/>
        <pt x="382" y="396" on="1"/>
        <pt x="382" y="280" on="1"/>
        <pt x="241" y="280" on="1"/>
        <pt x="241" y="135" on="1"/>
      </contour>
    </TTGlyph>
    <TTGlyph name="Euro" xMin="30" yMin="-10" xMax="639" yMax="673">
      <contour>
        <pt x="267" y="231" on="1"/>
        <pt x="279" y="178" on="0"/>
        <pt x="353" y="133" on="0"/>
        <pt x="401" y="133" on="1"/>
        <pt x="430" y="133" on="0"/>
        <pt x="494" y="150" on="0"/>
        <pt x="526" y="166" on="1"/>
        <pt x="582" y="194" on="1"/>
        <pt x="639" y="116" on="1"/>
        <pt x="617" y="87" on="0"/>
        <pt x="557" y="41" on="0"/>
        <pt x="489" y="8" on="0"/>
        <pt x="416" y="-10" on="0"/>
        <pt x="382" y="-10" on="1"/>
        <pt x="273" y="-10" on="0"/>
        <pt x="125" y="116" on="0"/>
        <pt x="105" y="231" on="1"/>
        <pt x="30" y="231" on="1"/>
        <pt x="30" y="290" on="1"/>
        <pt x="96" y="304" on="1"/>
        <pt x="95" y="311" on="0"/>
        <pt x="95" y="322" on="0"/>
        <pt x="95" y="330" on="1"/>
        <pt x="95" y="350" on="1"/>
        <pt x="30" y="350" on="1"/>
        <pt x="30" y="409" on="1"/>
        <pt x="104" y="425" on="1"/>
        <pt x="115" y="483" on="0"/>
        <pt x="166" y="576" on="0"/>
        <pt x="239" y="639" on="0"/>
        <pt x="332" y="673" on="0"/>
        <pt x="385" y="673" on="1"/>
        <pt x="467" y="673" on="0"/>
        <pt x="594" y="589" on="0"/>
        <pt x="630" y="511" on="1"/>
        <pt x="539" y="449" on="1"/>
        <pt x="472" y="500" on="1"/>
        <pt x="446" y="520" on="0"/>
        <pt x="407" y="535" on="0"/>
        <pt x="381" y="535" on="1"/>
        <pt x="341" y="535" on="0"/>
        <pt x="276" y="483" on="0"/>
        <pt x="262" y="426" on="1"/>
        <pt x="437" y="426" on="1"/>
        <pt x="437" y="350" on="1"/>
        <pt x="253" y="350" on="1"/>
        <pt x="253" y="329" on="1"/>
        <pt x="253" y="326" on="0"/>
        <pt x="253" y="312" on="0"/>
        <pt x="254" y="307" on="1"/>
        <pt x="437" y="307" on="1"/>
        <pt x="437" y="231" on="1"/>
      </contour>
    </TTGlyph>
    <TTGlyph name="Euro.lprop" xMin="44" yMin="-10" xMax="653" yMax="673">
      <component glyphName="Euro" x="14" y="0" flags="0x4"/>
    </TTGlyph>
    <TTGlyph name="Euro.oprop" xMin="48" yMin="-8" xMax="592" yMax="498">
      <contour>
        <pt x="273" y="174" on="1"/>
        <pt x="286" y="142" on="0"/>
        <pt x="337" y="116" on="0"/>
        <pt x="372" y="116" on="1"/>
        <pt x="394" y="116" on="0"/>
        <pt x="441" y="126" on="0"/>
        <pt x="476" y="138" on="1"/>
        <pt x="547" y="162" on="1"/>
        <pt x="592" y="88" on="1"/>
        <pt x="572" y="68" on="0"/>
        <pt x="519" y="34" on="0"/>
        <pt x="459" y="7" on="0"/>
        <pt x="395" y="-8" on="0"/>
        <pt x="364" y="-8" on="1"/>
        <pt x="270" y="-8" on="0"/>
        <pt x="143" y="88" on="0"/>
        <pt x="123" y="174" on="1"/>
        <pt x="48" y="174" on="1"/>
        <pt x="48" y="217" on="1"/>
        <pt x="115" y="227" on="1"/>
        <pt x="115" y="255" on="1"/>
        <pt x="48" y="255" on="1"/>
        <pt x="48" y="298" on="1"/>
        <pt x="122" y="309" on="1"/>
        <pt x="136" y="369" on="0"/>
        <pt x="207" y="451" on="0"/>
        <pt x="298" y="494" on="0"/>
        <pt x="400" y="498" on="0"/>
        <pt x="493" y="461" on="0"/>
        <pt x="567" y="383" on="0"/>
        <pt x="584" y="323" on="1"/>
        <pt x="561" y="313" on="0"/>
        <pt x="517" y="294" on="0"/>
        <pt x="494" y="283" on="1"/>
        <pt x="454" y="324" on="1"/>
        <pt x="407" y="372" on="0"/>
        <pt x="357" y="372" on="1"/>
        <pt x="325" y="372" on="0"/>
        <pt x="281" y="339" on="0"/>
        <pt x="271" y="310" on="1"/>
        <pt x="393" y="310" on="1"/>
        <pt x="393" y="255" on="1"/>
        <pt x="263" y="255" on="1"/>
        <pt x="263" y="229" on="1"/>
        <pt x="393" y="229" on="1"/>
        <pt x="393" y="174" on="1"/>
      </contour>
    </TTGlyph>
    <TTGlyph name="Euro.otab" xMin="43" yMin="-8" xMax="587" yMax="498">
      <contour>
        <pt x="268" y="174" on="1"/>
        <pt x="281" y="142" on="0"/>
        <pt x="332" y="116" on="0"/>
        <pt x="367" y="116" on="1"/>
        <pt x="389" y="116" on="0"/>
        <pt x="436" y="126" on="0"/>
        <pt x="471" y="138" on="1"/>
        <pt x="542" y="162" on="1"/>
        <pt x="587" y="88" on="1"/>
        <pt x="567" y="68" on="0"/>
        <pt x="514" y="34" on="0"/>
        <pt x="454" y="7" on="0"/>
        <pt x="390" y="-8" on="0"/>
        <pt x="359" y="-8" on="1"/>
        <pt x="265" y="-8" on="0"/>
        <pt x="138" y="88" on="0"/>
        <pt x="118" y="174" on="1"/>
        <pt x="43" y="174" on="1"/>
        <pt x="43" y="217" on="1"/>
        <pt x="110" y="227" on="1"/>
        <pt x="110" y="255" on="1"/>
        <pt x="43" y="255" on="1"/>
        <pt x="43" y="298" on="1"/>
        <pt x="117" y="309" on="1"/>
        <pt x="131" y="369" on="0"/>
        <pt x="202" y="451" on="0"/>
        <pt x="293" y="494" on="0"/>
        <pt x="395" y="498" on="0"/>
        <pt x="488" y="461" on="0"/>
        <pt x="562" y="383" on="0"/>
        <pt x="579" y="323" on="1"/>
        <pt x="556" y="313" on="0"/>
        <pt x="512" y="294" on="0"/>
        <pt x="489" y="283" on="1"/>
        <pt x="449" y="324" on="1"/>
        <pt x="402" y="372" on="0"/>
        <pt x="352" y="372" on="1"/>
        <pt x="320" y="372" on="0"/>
        <pt x="276" y="339" on="0"/>
        <pt x="266" y="310" on="1"/>
        <pt x="388" y="310" on="1"/>
        <pt x="388" y="255" on="1"/>
        <pt x="258" y="255" on="1"/>
        <pt x="258" y="229" on="1"/>
        <pt x="388" y="229" on="1"/>
        <pt x="388" y="174" on="1"/>
      </contour>
    </TTGlyph>
    <TTGlyph name="F" xMin="65" yMin="0" xMax="550" yMax="663">
      <contour>
        <pt x="550" y="663" on="1"/>
        <pt x="550" y="533" on="1"/>
        <pt x="221" y="533" on="1"/>
        <pt x="221" y="380" on="1"/>
        <pt x="518" y="380" on="1"/>
        <pt x="518" y="252" on="1"/>
        <pt x="221" y="252" on="1"/>
        <pt x="221" y="0" on="1"/>
        <pt x="65" y="0" on="1"/>
        <pt x="65" y="663" on="1"/>
      </contour>
    </TTGlyph>
    <TTGlyph name="G" xMin="34" yMin="-10" xMax="685" yMax="673">
      <contour>
        <pt x="567" y="429" on="1"/>
        <pt x="489" y="482" on="1"/>
        <pt x="455" y="505" on="0"/>
        <pt x="398" y="528" on="0"/>
        <pt x="362" y="528" on="1"/>
        <pt x="327" y="528" on="0"/>
        <pt x="267" y="503" on="0"/>
        <pt x="222" y="454" on="0"/>
        <pt x="197" y="381" on="0"/>
        <pt x="197" y="333" on="1"/>
        <pt x="197" y="237" on="0"/>
        <pt x="290" y="138" on="0"/>
        <pt x="380" y="138" on="1"/>
        <pt x="413" y="138" on="0"/>
        <pt x="491" y="150" on="0"/>
        <pt x="517" y="160" on="1"/>
        <pt x="529" y="165" on="0"/>
        <pt x="533" y="172" on="0"/>
        <pt x="533" y="182" on="1"/>
        <pt x="533" y="243" on="1"/>
        <pt x="432" y="243" on="1"/>
        <pt x="432" y="354" on="1"/>
        <pt x="663" y="354" on="1"/>
        <pt x="676" y="354" on="0"/>
        <pt x="685" y="346" on="0"/>
        <pt x="685" y="334" on="1"/>
        <pt x="685" y="0" on="1"/>
        <pt x="574" y="0" on="1"/>
        <pt x="550" y="58" on="1"/>
        <pt x="501" y="31" on="1"/>
        <pt x="464" y="11" on="0"/>
        <pt x="394" y="-10" on="0"/>
        <pt x="352" y="-10" on="1"/>
        <pt x="278" y="-10" on="0"/>
        <pt x="160" y="42" on="0"/>
        <pt x="78" y="133" on="0"/>
        <pt x="34" y="258" on="0"/>
        <pt x="34" y="331" on="1"/>
        <pt x="34" y="411" on="0"/>
        <pt x="89" y="538" on="0"/>
        <pt x="182" y="626" on="0"/>
        <pt x="304" y="673" on="0"/>
        <pt x="371" y="673" on="1"/>
        <pt x="475" y="673" on="0"/>
        <pt x="628" y="576" on="0"/>
        <pt x="663" y="495" on="1"/>
      </contour>
    </TTGlyph>
    <TTGlyph name="Gbreve" xMin="34" yMin="-10" xMax="685" yMax="900">
      <component glyphName="G" x="0" y="0" flags="0x204"/>
      <component glyphName="breve.cap" x="159" y="0" flags="0x4"/>
    </TTGlyph>
    <TTGlyph name="Gcircumflex" xMin="34" yMin="-10" xMax="685" yMax="915">
      <component glyphName="G" x="0" y="0" flags="0x204"/>
      <component glyphName="circumflex.cap" x="160" y="0" flags="0x4"/>
    </TTGlyph>
    <TTGlyph name="Gcommaaccent" xMin="34" yMin="-306" xMax="685" yMax="673">
      <component glyphName="G" x="0" y="0" flags="0x204"/>
      <component glyphName="commaaccent" x="160" y="0" flags="0x4"/>
    </TTGlyph>
    <TTGlyph name="Gdotaccent" xMin="34" yMin="-10" xMax="685" yMax="868">
      <component glyphName="G" x="0" y="0" flags="0x204"/>
      <component glyphName="dotaccent.cap" x="160" y="0" flags="0x4"/>
    </TTGlyph>
    <TTGlyph name="H" xMin="65" yMin="0" xMax="666" yMax="663">
      <contour>
        <pt x="510" y="273" on="1"/>
        <pt x="221" y="273" on="1"/>
        <pt x="221" y="0" on="1"/>
        <pt x="65" y="0" on="1"/>
        <pt x="65" y="663" on="1"/>
        <pt x="221" y="663" on="1"/>
        <pt x="221" y="408" on="1"/>
        <pt x="510" y="408" on="1"/>
        <pt x="510" y="663" on="1"/>
        <pt x="666" y="663" on="1"/>
        <pt x="666" y="0" on="1"/>
        <pt x="510" y="0" on="1"/>
      </contour>
    </TTGlyph>
    <TTGlyph name="Hbar" xMin="14" yMin="0" xMax="757" yMax="663">
      <contour>
        <pt x="530" y="273" on="1"/>
        <pt x="241" y="273" on="1"/>
        <pt x="241" y="0" on="1"/>
        <pt x="85" y="0" on="1"/>
        <pt x="85" y="488" on="1"/>
        <pt x="14" y="488" on="1"/>
        <pt x="14" y="585" on="1"/>
        <pt x="85" y="585" on="1"/>
        <pt x="85" y="663" on="1"/>
        <pt x="241" y="663" on="1"/>
        <pt x="241" y="585" on="1"/>
        <pt x="530" y="585" on="1"/>
        <pt x="530" y="663" on="1"/>
        <pt x="686" y="663" on="1"/>
        <pt x="686" y="585" on="1"/>
        <pt x="757" y="585" on="1"/>
        <pt x="757" y="488" on="1"/>
        <pt x="686" y="488" on="1"/>
        <pt x="686" y="0" on="1"/>
        <pt x="530" y="0" on="1"/>
      </contour>
      <contour>
        <pt x="530" y="408" on="1"/>
        <pt x="530" y="488" on="1"/>
        <pt x="241" y="488" on="1"/>
        <pt x="241" y="408" on="1"/>
      </contour>
    </TTGlyph>
    <TTGlyph name="Hcircumflex" xMin="65" yMin="0" xMax="666" yMax="915">
      <component glyphName="H" x="0" y="0" flags="0x204"/>
      <component glyphName="circumflex.cap" x="154" y="0" flags="0x4"/>
    </TTGlyph>
    <TTGlyph name="I" xMin="67" yMin="0" xMax="223" yMax="663">
      <contour>
        <pt x="223" y="0" on="1"/>
        <pt x="67" y="0" on="1"/>
        <pt x="67" y="663" on="1"/>
        <pt x="223" y="663" on="1"/>
      </contour>
    </TTGlyph>
    <TTGlyph name="IJ" xMin="67" yMin="-10" xMax="752" yMax="663">
      <component glyphName="I" x="0" y="0" flags="0x4"/>
      <component glyphName="J" x="290" y="0" flags="0x4"/>
    </TTGlyph>
    <TTGlyph name="Iacute" xMin="11" yMin="0" xMax="284" yMax="931">
      <component glyphName="I" x="0" y="0" flags="0x204"/>
      <component glyphName="acute.cap" x="-64" y="0" flags="0x4"/>
    </TTGlyph>
    <TTGlyph name="Ibreve" xMin="-28" yMin="0" xMax="318" yMax="900">
      <component glyphName="I" x="0" y="0" flags="0x204"/>
      <component glyphName="breve.cap" x="-67" y="0" flags="0x4"/>
    </TTGlyph>
    <TTGlyph name="Icircumflex" xMin="-38" yMin="0" xMax="328" yMax="915">
      <component glyphName="I" x="0" y="0" flags="0x204"/>
      <component glyphName="circumflex.cap" x="-66" y="0" flags="0x4"/>
    </TTGlyph>
    <TTGlyph name="Idieresis" xMin="-29" yMin="0" xMax="320" yMax="875">
      <component glyphName="I" x="0" y="0" flags="0x204"/>
      <component glyphName="dieresis.cap" x="-66" y="0" flags="0x4"/>
    </TTGlyph>
    <TTGlyph name="Idotaccent" xMin="67" yMin="0" xMax="223" yMax="868">
      <component glyphName="I" x="0" y="0" flags="0x204"/>
      <component glyphName="dotaccent.cap" x="-66" y="0" flags="0x4"/>
    </TTGlyph>
    <TTGlyph name="Igrave" xMin="11" yMin="0" xMax="284" yMax="931">
      <component glyphName="I" x="0" y="0" flags="0x204"/>
      <component glyphName="grave.cap" x="-64" y="0" flags="0x4"/>
    </TTGlyph>
    <TTGlyph name="Imacron" xMin="-16" yMin="0" xMax="307" yMax="865">
      <component glyphName="I" x="0" y="0" flags="0x204"/>
      <component glyphName="macron.cap" x="-66" y="0" flags="0x4"/>
    </TTGlyph>
    <TTGlyph name="Iogonek" xMin="13" yMin="-224" xMax="265" yMax="663">
      <contour>
        <pt x="67" y="663" on="1"/>
        <pt x="223" y="663" on="1"/>
        <pt x="223" y="0" on="1"/>
        <pt x="199" y="0" on="1"/>
        <pt x="180" y="0" on="0"/>
        <pt x="151" y="-15" on="0"/>
        <pt x="132" y="-38" on="0"/>
        <pt x="122" y="-67" on="0"/>
        <pt x="122" y="-80" on="1"/>
        <pt x="122" y="-106" on="0"/>
        <pt x="154" y="-129" on="0"/>
        <pt x="185" y="-129" on="1"/>
        <pt x="210" y="-129" on="0"/>
        <pt x="243" y="-123" on="1"/>
        <pt x="249" y="-141" on="0"/>
        <pt x="260" y="-178" on="0"/>
        <pt x="265" y="-196" on="1"/>
        <pt x="239" y="-210" on="0"/>
        <pt x="180" y="-224" on="0"/>
        <pt x="154" y="-224" on="1"/>
        <pt x="88" y="-224" on="0"/>
        <pt x="13" y="-162" on="0"/>
        <pt x="13" y="-114" on="1"/>
        <pt x="13" y="-82" on="0"/>
        <pt x="41" y="-22" on="0"/>
        <pt x="67" y="1" on="1"/>
      </contour>
    </TTGlyph>
    <TTGlyph name="Itilde" xMin="-44" yMin="0" xMax="334" yMax="890">
      <component glyphName="I" x="0" y="0" flags="0x204"/>
      <component glyphName="tilde.cap" x="-66" y="0" flags="0x4"/>
    </TTGlyph>
    <TTGlyph name="J" xMin="20" yMin="-10" xMax="462" yMax="663">
      <contour>
        <pt x="48" y="152" on="1"/>
        <pt x="113" y="141" on="1"/>
        <pt x="148" y="135" on="0"/>
        <pt x="204" y="130" on="0"/>
        <pt x="221" y="130" on="1"/>
        <pt x="272" y="130" on="0"/>
        <pt x="290" y="151" on="1"/>
        <pt x="299" y="162" on="0"/>
        <pt x="306" y="194" on="0"/>
        <pt x="306" y="221" on="1"/>
        <pt x="306" y="663" on="1"/>
        <pt x="462" y="663" on="1"/>
        <pt x="462" y="222" on="1"/>
        <pt x="462" y="163" on="0"/>
        <pt x="434" y="79" on="0"/>
        <pt x="403" y="48" on="1"/>
        <pt x="376" y="21" on="0"/>
        <pt x="298" y="-10" on="0"/>
        <pt x="249" y="-10" on="1"/>
        <pt x="186" y="-10" on="0"/>
        <pt x="69" y="25" on="0"/>
        <pt x="20" y="56" on="1"/>
      </contour>
    </TTGlyph>
    <TTGlyph name="Jcircumflex" xMin="20" yMin="-10" xMax="567" yMax="915">
      <component glyphName="J" x="0" y="0" flags="0x204"/>
      <component glyphName="circumflex.cap" x="173" y="0" flags="0x4"/>
    </TTGlyph>
    <TTGlyph name="K" xMin="65" yMin="0" xMax="678" yMax="672">
      <contour>
        <pt x="306" y="292" on="1"/>
        <pt x="286" y="278" on="0"/>
        <pt x="241" y="252" on="0"/>
        <pt x="221" y="244" on="1"/>
        <pt x="221" y="0" on="1"/>
        <pt x="65" y="0" on="1"/>
        <pt x="65" y="663" on="1"/>
        <pt x="221" y="663" on="1"/>
        <pt x="221" y="376" on="1"/>
        <pt x="556" y="672" on="1"/>
        <pt x="646" y="578" on="1"/>
        <pt x="423" y="385" on="1"/>
        <pt x="678" y="0" on="1"/>
        <pt x="518" y="0" on="1"/>
        <pt x="504" y="0" on="0"/>
        <pt x="493" y="6" on="0"/>
        <pt x="486" y="16" on="1"/>
      </contour>
    </TTGlyph>
    <TTGlyph name="Kcommaaccent" xMin="65" yMin="-306" xMax="678" yMax="672">
      <component glyphName="K" x="0" y="0" flags="0x204"/>
      <component glyphName="commaaccent" x="128" y="0" flags="0x4"/>
    </TTGlyph>
    <TTGlyph name="L" xMin="65" yMin="0" xMax="547" yMax="663">
      <contour>
        <pt x="65" y="663" on="1"/>
        <pt x="221" y="663" on="1"/>
        <pt x="221" y="130" on="1"/>
        <pt x="547" y="130" on="1"/>
        <pt x="547" y="0" on="1"/>
        <pt x="65" y="0" on="1"/>
      </contour>
    </TTGlyph>
    <TTGlyph name="Lacute" xMin="9" yMin="0" xMax="547" yMax="931">
      <component glyphName="L" x="0" y="0" flags="0x204"/>
      <component glyphName="acute.cap" x="-66" y="0" flags="0x4"/>
    </TTGlyph>
    <TTGlyph name="Lcaron" xMin="65" yMin="0" xMax="547" yMax="663">
      <component glyphName="L" x="0" y="0" flags="0x204"/>
      <component glyphName="commaaccent" x="175" y="721" flags="0x4"/>
    </TTGlyph>
    <TTGlyph name="Lcommaaccent" xMin="65" yMin="-306" xMax="547" yMax="663">
      <component glyphName="L" x="0" y="0" flags="0x204"/>
      <component glyphName="commaaccent" x="80" y="0" flags="0x4"/>
    </TTGlyph>
    <TTGlyph name="Ldot" xMin="65" yMin="0" xMax="547" yMax="663">
      <component glyphName="L" x="0" y="0" flags="0x204"/>
      <component glyphName="dotaccent" x="211" y="-265" flags="0x4"/>
    </TTGlyph>
    <TTGlyph name="Lslash" xMin="2" yMin="0" xMax="618" yMax="663">
      <contour>
        <pt x="292" y="320" on="1"/>
        <pt x="292" y="130" on="1"/>
        <pt x="618" y="130" on="1"/>
        <pt x="618" y="0" on="1"/>
        <pt x="136" y="0" on="1"/>
        <pt x="136" y="228" on="1"/>
        <pt x="71" y="186" on="1"/>
        <pt x="2" y="288" on="1"/>
        <pt x="136" y="374" on="1"/>
        <pt x="136" y="663" on="1"/>
        <pt x="292" y="663" on="1"/>
        <pt x="292" y="464" on="1"/>
        <pt x="428" y="552" on="1"/>
        <pt x="496" y="452" on="1"/>
      </contour>
    </TTGlyph>
    <TTGlyph name="M" xMin="65" yMin="0" xMax="792" yMax="663">
      <contour>
        <pt x="638" y="647" on="1"/>
        <pt x="646" y="658" on="0"/>
        <pt x="657" y="663" on="0"/>
        <pt x="670" y="663" on="1"/>
        <pt x="792" y="663" on="1"/>
        <pt x="792" y="0" on="1"/>
        <pt x="641" y="0" on="1"/>
        <pt x="641" y="434" on="1"/>
        <pt x="480" y="232" on="1"/>
        <pt x="392" y="232" on="1"/>
        <pt x="382" y="232" on="0"/>
        <pt x="372" y="236" on="0"/>
        <pt x="365" y="244" on="1"/>
        <pt x="215" y="434" on="1"/>
        <pt x="215" y="0" on="1"/>
        <pt x="65" y="0" on="1"/>
        <pt x="65" y="663" on="1"/>
        <pt x="192" y="663" on="1"/>
        <pt x="204" y="663" on="0"/>
        <pt x="216" y="658" on="0"/>
        <pt x="224" y="647" on="1"/>
        <pt x="431" y="388" on="1"/>
        <pt x="433" y="388" on="1"/>
      </contour>
    </TTGlyph>
    <TTGlyph name="N" xMin="65" yMin="0" xMax="680" yMax="663">
      <contour>
        <pt x="564" y="0" on="1"/>
        <pt x="553" y="0" on="0"/>
        <pt x="542" y="5" on="0"/>
        <pt x="536" y="13" on="1"/>
        <pt x="316" y="288" on="1"/>
        <pt x="283" y="330" on="0"/>
        <pt x="226" y="403" on="0"/>
        <pt x="213" y="422" on="1"/>
        <pt x="212" y="422" on="1"/>
        <pt x="212" y="0" on="1"/>
        <pt x="65" y="0" on="1"/>
        <pt x="65" y="663" on="1"/>
        <pt x="182" y="663" on="1"/>
        <pt x="193" y="663" on="0"/>
        <pt x="203" y="658" on="0"/>
        <pt x="210" y="650" on="1"/>
        <pt x="430" y="375" on="1"/>
        <pt x="463" y="333" on="0"/>
        <pt x="520" y="259" on="0"/>
        <pt x="533" y="240" on="1"/>
        <pt x="533" y="663" on="1"/>
        <pt x="680" y="663" on="1"/>
        <pt x="680" y="0" on="1"/>
      </contour>
    </TTGlyph>
    <TTGlyph name="Nacute" xMin="65" yMin="0" xMax="680" yMax="931">
      <component glyphName="N" x="0" y="0" flags="0x204"/>
      <component glyphName="acute.cap" x="161" y="0" flags="0x4"/>
    </TTGlyph>
    <TTGlyph name="Ncaron" xMin="65" yMin="0" xMax="680" yMax="926">
      <component glyphName="N" x="0" y="0" flags="0x204"/>
      <component glyphName="caron.cap" x="161" y="0" flags="0x4"/>
    </TTGlyph>
    <TTGlyph name="Ncommaaccent" xMin="65" yMin="-306" xMax="680" yMax="663">
      <component glyphName="N" x="0" y="0" flags="0x204"/>
      <component glyphName="commaaccent" x="161" y="0" flags="0x4"/>
    </TTGlyph>
    <TTGlyph name="Ntilde" xMin="65" yMin="0" xMax="680" yMax="890">
      <component glyphName="N" x="0" y="0" flags="0x204"/>
      <component glyphName="tilde.cap" x="161" y="0" flags="0x4"/>
    </TTGlyph>
    <TTGlyph name="O" xMin="34" yMin="-10" xMax="708" yMax="673">
      <contour>
        <pt x="708" y="331" on="1"/>
        <pt x="708" y="253" on="0"/>
        <pt x="653" y="126" on="0"/>
        <pt x="561" y="38" on="0"/>
        <pt x="438" y="-10" on="0"/>
        <pt x="371" y="-10" on="1"/>
        <pt x="303" y="-10" on="0"/>
        <pt x="181" y="38" on="0"/>
        <pt x="89" y="126" on="0"/>
        <pt x="34" y="253" on="0"/>
        <pt x="34" y="331" on="1"/>
        <pt x="34" y="409" on="0"/>
        <pt x="89" y="536" on="0"/>
        <pt x="181" y="625" on="0"/>
        <pt x="303" y="673" on="0"/>
        <pt x="371" y="673" on="1"/>
        <pt x="438" y="673" on="0"/>
        <pt x="561" y="625" on="0"/>
        <pt x="653" y="536" on="0"/>
        <pt x="708" y="409" on="0"/>
      </contour>
      <contour>
        <pt x="545" y="331" on="1"/>
        <pt x="545" y="426" on="0"/>
        <pt x="453" y="520" on="0"/>
        <pt x="371" y="520" on="1"/>
        <pt x="289" y="520" on="0"/>
        <pt x="197" y="425" on="0"/>
        <pt x="197" y="331" on="1"/>
        <pt x="197" y="234" on="0"/>
        <pt x="289" y="143" on="0"/>
        <pt x="371" y="143" on="1"/>
        <pt x="453" y="143" on="0"/>
        <pt x="545" y="237" on="0"/>
      </contour>
    </TTGlyph>
    <TTGlyph name="OE" xMin="34" yMin="-10" xMax="1046" yMax="673">
      <contour>
        <pt x="543" y="67" on="1"/>
        <pt x="508" y="32" on="0"/>
        <pt x="411" y="-10" on="0"/>
        <pt x="352" y="-10" on="1"/>
        <pt x="289" y="-10" on="0"/>
        <pt x="174" y="38" on="0"/>
        <pt x="86" y="127" on="0"/>
        <pt x="34" y="253" on="0"/>
        <pt x="34" y="331" on="1"/>
        <pt x="34" y="409" on="0"/>
        <pt x="86" y="535" on="0"/>
        <pt x="174" y="624" on="0"/>
        <pt x="289" y="673" on="0"/>
        <pt x="352" y="673" on="1"/>
        <pt x="411" y="673" on="0"/>
        <pt x="508" y="631" on="0"/>
        <pt x="543" y="596" on="1"/>
        <pt x="543" y="663" on="1"/>
        <pt x="1036" y="663" on="1"/>
        <pt x="1036" y="533" on="1"/>
        <pt x="699" y="533" on="1"/>
        <pt x="699" y="401" on="1"/>
        <pt x="1006" y="401" on="1"/>
        <pt x="1006" y="273" on="1"/>
        <pt x="699" y="273" on="1"/>
        <pt x="699" y="130" on="1"/>
        <pt x="1046" y="130" on="1"/>
        <pt x="1046" y="0" on="1"/>
        <pt x="543" y="0" on="1"/>
      </contour>
      <contour>
        <pt x="547" y="331" on="1"/>
        <pt x="547" y="428" on="0"/>
        <pt x="453" y="520" on="0"/>
        <pt x="371" y="520" on="1"/>
        <pt x="289" y="520" on="0"/>
        <pt x="197" y="425" on="0"/>
        <pt x="197" y="331" on="1"/>
        <pt x="197" y="234" on="0"/>
        <pt x="289" y="143" on="0"/>
        <pt x="371" y="143" on="1"/>
        <pt x="453" y="143" on="0"/>
        <pt x="547" y="235" on="0"/>
      </contour>
    </TTGlyph>
    <TTGlyph name="Oacute" xMin="34" yMin="-10" xMax="708" yMax="931">
      <component glyphName="O" x="0" y="0" flags="0x204"/>
      <component glyphName="acute.cap" x="159" y="0" flags="0x4"/>
    </TTGlyph>
    <TTGlyph name="Obreve" xMin="34" yMin="-10" xMax="708" yMax="900">
      <component glyphName="O" x="0" y="0" flags="0x204"/>
      <component glyphName="breve.cap" x="159" y="0" flags="0x4"/>
    </TTGlyph>
    <TTGlyph name="Ocircumflex" xMin="34" yMin="-10" xMax="708" yMax="915">
      <component glyphName="O" x="0" y="0" flags="0x204"/>
      <component glyphName="circumflex.cap" x="160" y="0" flags="0x4"/>
    </TTGlyph>
    <TTGlyph name="Odieresis" xMin="34" yMin="-10" xMax="708" yMax="875">
      <component glyphName="O" x="0" y="0" flags="0x204"/>
      <component glyphName="dieresis.cap" x="159" y="0" flags="0x4"/>
    </TTGlyph>
    <TTGlyph name="Ograve" xMin="34" yMin="-10" xMax="708" yMax="931">
      <component glyphName="O" x="0" y="0" flags="0x204"/>
      <component glyphName="grave.cap" x="159" y="0" flags="0x4"/>
    </TTGlyph>
    <TTGlyph name="Ohungarumlaut" xMin="34" yMin="-10" xMax="708" yMax="978">
      <component glyphName="O" x="0" y="0" flags="0x204"/>
      <component glyphName="hungarumlaut.cap" x="160" y="0" flags="0x4"/>
    </TTGlyph>
    <TTGlyph name="Omacron" xMin="34" yMin="-10" xMax="708" yMax="865">
      <component glyphName="O" x="0" y="0" flags="0x204"/>
      <component glyphName="macron.cap" x="159" y="0" flags="0x4"/>
    </TTGlyph>
    <TTGlyph name="Omega" xMin="50" yMin="0" xMax="708" yMax="673">
      <contour>
        <pt x="379" y="524" on="1"/>
        <pt x="344" y="524" on="0"/>
        <pt x="283" y="507" on="0"/>
        <pt x="237" y="471" on="0"/>
        <pt x="211" y="416" on="0"/>
        <pt x="211" y="378" on="1"/>
        <pt x="211" y="330" on="0"/>
        <pt x="247" y="241" on="0"/>
        <pt x="280" y="185" on="1"/>
        <pt x="331" y="99" on="1"/>
        <pt x="339" y="86" on="0"/>
        <pt x="343" y="72" on="0"/>
        <pt x="343" y="61" on="1"/>
        <pt x="343" y="0" on="1"/>
        <pt x="60" y="0" on="1"/>
        <pt x="60" y="124" on="1"/>
        <pt x="178" y="124" on="1"/>
        <pt x="112" y="188" on="0"/>
        <pt x="50" y="329" on="0"/>
        <pt x="50" y="391" on="1"/>
        <pt x="50" y="454" on="0"/>
        <pt x="100" y="558" on="0"/>
        <pt x="188" y="632" on="0"/>
        <pt x="308" y="673" on="0"/>
        <pt x="379" y="673" on="1"/>
        <pt x="449" y="673" on="0"/>
        <pt x="570" y="632" on="0"/>
        <pt x="658" y="558" on="0"/>
        <pt x="708" y="454" on="0"/>
        <pt x="708" y="391" on="1"/>
        <pt x="708" y="329" on="0"/>
        <pt x="645" y="187" on="0"/>
        <pt x="580" y="124" on="1"/>
        <pt x="698" y="124" on="1"/>
        <pt x="698" y="0" on="1"/>
        <pt x="415" y="0" on="1"/>
        <pt x="415" y="61" on="1"/>
        <pt x="415" y="72" on="0"/>
        <pt x="419" y="86" on="0"/>
        <pt x="427" y="99" on="1"/>
        <pt x="478" y="185" on="1"/>
        <pt x="511" y="241" on="0"/>
        <pt x="547" y="330" on="0"/>
        <pt x="547" y="378" on="1"/>
        <pt x="547" y="417" on="0"/>
        <pt x="521" y="472" on="0"/>
        <pt x="475" y="507" on="0"/>
        <pt x="414" y="524" on="0"/>
      </contour>
    </TTGlyph>
    <TTGlyph name="Oslash" xMin="34" yMin="-50" xMax="708" yMax="719">
      <contour>
        <pt x="616" y="571" on="1"/>
        <pt x="658" y="526" on="0"/>
        <pt x="708" y="406" on="0"/>
        <pt x="708" y="331" on="1"/>
        <pt x="708" y="253" on="0"/>
        <pt x="653" y="126" on="0"/>
        <pt x="561" y="38" on="0"/>
        <pt x="438" y="-10" on="0"/>
        <pt x="371" y="-10" on="1"/>
        <pt x="324" y="-10" on="0"/>
        <pt x="236" y="12" on="0"/>
        <pt x="198" y="34" on="1"/>
        <pt x="133" y="-50" on="1"/>
        <pt x="51" y="12" on="1"/>
        <pt x="118" y="99" on="1"/>
        <pt x="79" y="143" on="0"/>
        <pt x="34" y="259" on="0"/>
        <pt x="34" y="331" on="1"/>
        <pt x="34" y="409" on="0"/>
        <pt x="89" y="536" on="0"/>
        <pt x="181" y="625" on="0"/>
        <pt x="303" y="673" on="0"/>
        <pt x="371" y="673" on="1"/>
        <pt x="458" y="673" on="0"/>
        <pt x="533" y="633" on="1"/>
        <pt x="600" y="719" on="1"/>
        <pt x="682" y="657" on="1"/>
      </contour>
      <contour>
        <pt x="545" y="331" on="1"/>
        <pt x="545" y="365" on="0"/>
        <pt x="531" y="424" on="0"/>
        <pt x="518" y="446" on="1"/>
        <pt x="293" y="156" on="1"/>
        <pt x="325" y="143" on="0"/>
        <pt x="371" y="143" on="1"/>
        <pt x="453" y="143" on="0"/>
        <pt x="545" y="241" on="0"/>
      </contour>
      <contour>
        <pt x="197" y="331" on="1"/>
        <pt x="197" y="301" on="0"/>
        <pt x="206" y="247" on="0"/>
        <pt x="217" y="226" on="1"/>
        <pt x="437" y="510" on="1"/>
        <pt x="423" y="515" on="0"/>
        <pt x="389" y="520" on="0"/>
        <pt x="371" y="520" on="1"/>
        <pt x="289" y="520" on="0"/>
        <pt x="197" y="421" on="0"/>
      </contour>
    </TTGlyph>
    <TTGlyph name="Oslashacute" xMin="34" yMin="-50" xMax="708" yMax="931">
      <component glyphName="Oslash" x="0" y="0" flags="0x204"/>
      <component glyphName="acute.cap" x="159" y="0" flags="0x4"/>
    </TTGlyph>
    <TTGlyph name="Otilde" xMin="34" yMin="-10" xMax="708" yMax="890">
      <component glyphName="O" x="0" y="0" flags="0x204"/>
      <component glyphName="tilde.cap" x="160" y="0" flags="0x4"/>
    </TTGlyph>
    <TTGlyph name="P" xMin="65" yMin="0" xMax="617" yMax="663">
      <contour>
        <pt x="221" y="0" on="1"/>
        <pt x="65" y="0" on="1"/>
        <pt x="65" y="663" on="1"/>
        <pt x="332" y="663" on="1"/>
        <pt x="407" y="663" on="0"/>
        <pt x="523" y="635" on="0"/>
        <pt x="560" y="598" on="1"/>
        <pt x="587" y="571" on="0"/>
        <pt x="617" y="491" on="0"/>
        <pt x="617" y="436" on="1"/>
        <pt x="617" y="382" on="0"/>
        <pt x="587" y="295" on="0"/>
        <pt x="556" y="265" on="1"/>
        <pt x="525" y="235" on="0"/>
        <pt x="428" y="204" on="0"/>
        <pt x="359" y="204" on="1"/>
        <pt x="221" y="204" on="1"/>
      </contour>
      <contour>
        <pt x="399" y="331" on="1"/>
        <pt x="425" y="331" on="0"/>
        <pt x="436" y="347" on="1"/>
        <pt x="447" y="363" on="0"/>
        <pt x="458" y="410" on="0"/>
        <pt x="458" y="435" on="1"/>
        <pt x="458" y="485" on="0"/>
        <pt x="437" y="506" on="1"/>
        <pt x="423" y="520" on="0"/>
        <pt x="376" y="532" on="0"/>
        <pt x="338" y="532" on="1"/>
        <pt x="221" y="532" on="1"/>
        <pt x="221" y="331" on="1"/>
      </contour>
    </TTGlyph>
    <TTGlyph name="Q" xMin="34" yMin="-194" xMax="708" yMax="673">
      <contour>
        <pt x="708" y="331" on="1"/>
        <pt x="708" y="228" on="0"/>
        <pt x="618" y="78" on="0"/>
        <pt x="545" y="35" on="1"/>
        <pt x="663" y="-129" on="1"/>
        <pt x="507" y="-194" on="1"/>
        <pt x="407" y="-8" on="1"/>
        <pt x="398" y="-9" on="0"/>
        <pt x="380" y="-10" on="0"/>
        <pt x="371" y="-10" on="1"/>
        <pt x="303" y="-10" on="0"/>
        <pt x="181" y="38" on="0"/>
        <pt x="89" y="126" on="0"/>
        <pt x="34" y="253" on="0"/>
        <pt x="34" y="331" on="1"/>
        <pt x="34" y="409" on="0"/>
        <pt x="89" y="536" on="0"/>
        <pt x="181" y="625" on="0"/>
        <pt x="303" y="673" on="0"/>
        <pt x="371" y="673" on="1"/>
        <pt x="438" y="673" on="0"/>
        <pt x="561" y="625" on="0"/>
        <pt x="653" y="536" on="0"/>
        <pt x="708" y="409" on="0"/>
      </contour>
      <contour>
        <pt x="545" y="331" on="1"/>
        <pt x="545" y="426" on="0"/>
        <pt x="453" y="520" on="0"/>
        <pt x="371" y="520" on="1"/>
        <pt x="289" y="520" on="0"/>
        <pt x="197" y="425" on="0"/>
        <pt x="197" y="331" on="1"/>
        <pt x="197" y="234" on="0"/>
        <pt x="289" y="143" on="0"/>
        <pt x="371" y="143" on="1"/>
        <pt x="453" y="143" on="0"/>
        <pt x="545" y="237" on="0"/>
      </contour>
    </TTGlyph>
    <TTGlyph name="R" xMin="65" yMin="0" xMax="664" yMax="663">
      <contour>
        <pt x="221" y="0" on="1"/>
        <pt x="65" y="0" on="1"/>
        <pt x="65" y="663" on="1"/>
        <pt x="338" y="663" on="1"/>
        <pt x="420" y="663" on="0"/>
        <pt x="532" y="633" on="0"/>
        <pt x="567" y="600" on="1"/>
        <pt x="622" y="546" on="0"/>
        <pt x="622" y="446" on="1"/>
        <pt x="622" y="379" on="0"/>
        <pt x="561" y="278" on="0"/>
        <pt x="513" y="246" on="1"/>
        <pt x="664" y="0" on="1"/>
        <pt x="506" y="0" on="1"/>
        <pt x="495" y="0" on="0"/>
        <pt x="483" y="7" on="0"/>
        <pt x="478" y="15" on="1"/>
        <pt x="368" y="202" on="1"/>
        <pt x="362" y="212" on="0"/>
        <pt x="354" y="216" on="0"/>
        <pt x="342" y="216" on="1"/>
        <pt x="221" y="216" on="1"/>
      </contour>
      <contour>
        <pt x="406" y="343" on="1"/>
        <pt x="430" y="343" on="0"/>
        <pt x="441" y="359" on="1"/>
        <pt x="452" y="375" on="0"/>
        <pt x="462" y="417" on="0"/>
        <pt x="462" y="441" on="1"/>
        <pt x="462" y="487" on="0"/>
        <pt x="440" y="508" on="1"/>
        <pt x="426" y="521" on="0"/>
        <pt x="379" y="532" on="0"/>
        <pt x="341" y="532" on="1"/>
        <pt x="221" y="532" on="1"/>
        <pt x="221" y="343" on="1"/>
      </contour>
    </TTGlyph>
    <TTGlyph name="Racute" xMin="65" yMin="0" xMax="664" yMax="931">
      <component glyphName="R" x="0" y="0" flags="0x204"/>
      <component glyphName="acute.cap" x="130" y="0" flags="0x4"/>
    </TTGlyph>
    <TTGlyph name="Rcaron" xMin="65" yMin="0" xMax="664" yMax="926">
      <component glyphName="R" x="0" y="0" flags="0x204"/>
      <component glyphName="caron.cap" x="131" y="0" flags="0x4"/>
    </TTGlyph>
    <TTGlyph name="Rcommaaccent" xMin="65" yMin="-306" xMax="664" yMax="663">
      <component glyphName="R" x="0" y="0" flags="0x204"/>
      <component glyphName="commaaccent" x="130" y="0" flags="0x4"/>
    </TTGlyph>
    <TTGlyph name="S" xMin="31" yMin="-10" xMax="575" yMax="673">
      <contour>
        <pt x="147" y="151" on="1"/>
        <pt x="201" y="139" on="0"/>
        <pt x="283" y="129" on="0"/>
        <pt x="314" y="129" on="1"/>
        <pt x="366" y="129" on="0"/>
        <pt x="423" y="165" on="0"/>
        <pt x="423" y="197" on="1"/>
        <pt x="423" y="211" on="0"/>
        <pt x="414" y="231" on="0"/>
        <pt x="392" y="246" on="0"/>
        <pt x="355" y="259" on="0"/>
        <pt x="327" y="267" on="1"/>
        <pt x="261" y="285" on="1"/>
        <pt x="208" y="300" on="0"/>
        <pt x="127" y="335" on="0"/>
        <pt x="72" y="383" on="0"/>
        <pt x="44" y="445" on="0"/>
        <pt x="44" y="486" on="1"/>
        <pt x="44" y="534" on="0"/>
        <pt x="85" y="604" on="0"/>
        <pt x="157" y="651" on="0"/>
        <pt x="252" y="673" on="0"/>
        <pt x="306" y="673" on="1"/>
        <pt x="369" y="673" on="0"/>
        <pt x="491" y="647" on="0"/>
        <pt x="543" y="624" on="1"/>
        <pt x="519" y="518" on="1"/>
        <pt x="456" y="525" on="1"/>
        <pt x="419" y="529" on="0"/>
        <pt x="339" y="535" on="0"/>
        <pt x="314" y="535" on="1"/>
        <pt x="251" y="535" on="0"/>
        <pt x="195" y="512" on="0"/>
        <pt x="195" y="486" on="1"/>
        <pt x="195" y="463" on="0"/>
        <pt x="242" y="439" on="0"/>
        <pt x="292" y="425" on="1"/>
        <pt x="350" y="409" on="1"/>
        <pt x="412" y="392" on="0"/>
        <pt x="494" y="357" on="0"/>
        <pt x="520" y="336" on="1"/>
        <pt x="550" y="311" on="0"/>
        <pt x="575" y="249" on="0"/>
        <pt x="575" y="207" on="1"/>
        <pt x="575" y="154" on="0"/>
        <pt x="537" y="74" on="0"/>
        <pt x="468" y="18" on="0"/>
        <pt x="371" y="-10" on="0"/>
        <pt x="313" y="-10" on="1"/>
        <pt x="277" y="-10" on="0"/>
        <pt x="200" y="1" on="0"/>
        <pt x="127" y="21" on="0"/>
        <pt x="59" y="48" on="0"/>
        <pt x="31" y="65" on="1"/>
        <pt x="69" y="168" on="1"/>
      </contour>
    </TTGlyph>
    <TTGlyph name="Sacute" xMin="31" yMin="-10" xMax="575" yMax="931">
      <component glyphName="S" x="0" y="0" flags="0x204"/>
      <component glyphName="acute.cap" x="93" y="0" flags="0x4"/>
    </TTGlyph>
    <TTGlyph name="Scaron" xMin="31" yMin="-10" xMax="575" yMax="926">
      <component glyphName="S" x="0" y="0" flags="0x204"/>
      <component glyphName="caron.cap" x="94" y="0" flags="0x4"/>
    </TTGlyph>
    <TTGlyph name="Scedilla" xMin="31" yMin="-244" xMax="575" yMax="673">
      <contour>
        <pt x="229" y="-65" on="1"/>
        <pt x="229" y="-51" on="0"/>
        <pt x="246" y="-21" on="0"/>
        <pt x="260" y="-7" on="1"/>
        <pt x="198" y="-1" on="0"/>
        <pt x="77" y="38" on="0"/>
        <pt x="31" y="65" on="1"/>
        <pt x="69" y="168" on="1"/>
        <pt x="147" y="151" on="1"/>
        <pt x="201" y="139" on="0"/>
        <pt x="283" y="129" on="0"/>
        <pt x="314" y="129" on="1"/>
        <pt x="366" y="129" on="0"/>
        <pt x="423" y="165" on="0"/>
        <pt x="423" y="197" on="1"/>
        <pt x="423" y="211" on="0"/>
        <pt x="414" y="231" on="0"/>
        <pt x="392" y="246" on="0"/>
        <pt x="355" y="259" on="0"/>
        <pt x="327" y="267" on="1"/>
        <pt x="261" y="285" on="1"/>
        <pt x="208" y="300" on="0"/>
        <pt x="127" y="335" on="0"/>
        <pt x="72" y="383" on="0"/>
        <pt x="44" y="445" on="0"/>
        <pt x="44" y="486" on="1"/>
        <pt x="44" y="534" on="0"/>
        <pt x="85" y="604" on="0"/>
        <pt x="157" y="651" on="0"/>
        <pt x="252" y="673" on="0"/>
        <pt x="306" y="673" on="1"/>
        <pt x="369" y="673" on="0"/>
        <pt x="491" y="647" on="0"/>
        <pt x="543" y="624" on="1"/>
        <pt x="519" y="518" on="1"/>
        <pt x="456" y="525" on="1"/>
        <pt x="419" y="529" on="0"/>
        <pt x="339" y="535" on="0"/>
        <pt x="314" y="535" on="1"/>
        <pt x="251" y="535" on="0"/>
        <pt x="195" y="512" on="0"/>
        <pt x="195" y="486" on="1"/>
        <pt x="195" y="463" on="0"/>
        <pt x="242" y="439" on="0"/>
        <pt x="292" y="425" on="1"/>
        <pt x="350" y="409" on="1"/>
        <pt x="412" y="392" on="0"/>
        <pt x="494" y="357" on="0"/>
        <pt x="520" y="336" on="1"/>
        <pt x="550" y="311" on="0"/>
        <pt x="575" y="249" on="0"/>
        <pt x="575" y="207" on="1"/>
        <pt x="575" y="158" on="0"/>
        <pt x="542" y="82" on="0"/>
        <pt x="482" y="27" on="0"/>
        <pt x="397" y="-4" on="0"/>
        <pt x="346" y="-8" on="1"/>
        <pt x="335" y="-23" on="0"/>
        <pt x="335" y="-34" on="1"/>
        <pt x="335" y="-45" on="0"/>
        <pt x="368" y="-56" on="0"/>
        <pt x="409" y="-71" on="0"/>
        <pt x="442" y="-101" on="0"/>
        <pt x="442" y="-132" on="1"/>
        <pt x="442" y="-180" on="0"/>
        <pt x="345" y="-244" on="0"/>
        <pt x="248" y="-244" on="1"/>
        <pt x="233" y="-167" on="1"/>
        <pt x="289" y="-158" on="1"/>
        <pt x="323" y="-152" on="0"/>
        <pt x="323" y="-138" on="1"/>
        <pt x="323" y="-130" on="0"/>
        <pt x="294" y="-120" on="0"/>
        <pt x="258" y="-106" on="0"/>
        <pt x="229" y="-84" on="0"/>
      </contour>
    </TTGlyph>
    <TTGlyph name="Scircumflex" xMin="31" yMin="-10" xMax="575" yMax="915">
      <component glyphName="S" x="0" y="0" flags="0x204"/>
      <component glyphName="circumflex.cap" x="94" y="0" flags="0x4"/>
    </TTGlyph>
    <TTGlyph name="Scommaaccent" xMin="31" yMin="-306" xMax="575" yMax="673">
      <component glyphName="S" x="0" y="0" flags="0x204"/>
      <component glyphName="commaaccent" x="93" y="0" flags="0x4"/>
    </TTGlyph>
    <TTGlyph name="T" xMin="16" yMin="0" xMax="614" yMax="663">
      <contour>
        <pt x="237" y="532" on="1"/>
        <pt x="16" y="532" on="1"/>
        <pt x="16" y="663" on="1"/>
        <pt x="614" y="663" on="1"/>
        <pt x="614" y="532" on="1"/>
        <pt x="393" y="532" on="1"/>
        <pt x="393" y="0" on="1"/>
        <pt x="237" y="0" on="1"/>
      </contour>
    </TTGlyph>
    <TTGlyph name="Tbar" xMin="16" yMin="0" xMax="614" yMax="663">
      <contour>
        <pt x="237" y="267" on="1"/>
        <pt x="105" y="267" on="1"/>
        <pt x="105" y="376" on="1"/>
        <pt x="237" y="376" on="1"/>
        <pt x="237" y="532" on="1"/>
        <pt x="16" y="532" on="1"/>
        <pt x="16" y="663" on="1"/>
        <pt x="614" y="663" on="1"/>
        <pt x="614" y="532" on="1"/>
        <pt x="393" y="532" on="1"/>
        <pt x="393" y="376" on="1"/>
        <pt x="525" y="376" on="1"/>
        <pt x="525" y="267" on="1"/>
        <pt x="393" y="267" on="1"/>
        <pt x="393" y="0" on="1"/>
        <pt x="237" y="0" on="1"/>
      </contour>
    </TTGlyph>
    <TTGlyph name="Tcaron" xMin="16" yMin="0" xMax="614" yMax="926">
      <component glyphName="T" x="0" y="0" flags="0x204"/>
      <component glyphName="caron.cap" x="105" y="0" flags="0x4"/>
    </TTGlyph>
    <TTGlyph name="Tcommaaccent" xMin="16" yMin="-306" xMax="614" yMax="663">
      <component glyphName="T" x="0" y="0" flags="0x204"/>
      <component glyphName="commaaccent" x="104" y="0" flags="0x4"/>
    </TTGlyph>
    <TTGlyph name="Thorn" xMin="65" yMin="0" xMax="623" yMax="663">
      <contour>
        <pt x="221" y="0" on="1"/>
        <pt x="65" y="0" on="1"/>
        <pt x="65" y="663" on="1"/>
        <pt x="221" y="663" on="1"/>
        <pt x="221" y="562" on="1"/>
        <pt x="338" y="562" on="1"/>
        <pt x="413" y="562" on="0"/>
        <pt x="529" y="534" on="0"/>
        <pt x="566" y="497" on="1"/>
        <pt x="593" y="470" on="0"/>
        <pt x="623" y="390" on="0"/>
        <pt x="623" y="335" on="1"/>
        <pt x="623" y="281" on="0"/>
        <pt x="593" y="194" on="0"/>
        <pt x="562" y="164" on="1"/>
        <pt x="531" y="134" on="0"/>
        <pt x="434" y="103" on="0"/>
        <pt x="365" y="103" on="1"/>
        <pt x="221" y="103" on="1"/>
      </contour>
      <contour>
        <pt x="407" y="230" on="1"/>
        <pt x="431" y="230" on="0"/>
        <pt x="442" y="246" on="1"/>
        <pt x="453" y="262" on="0"/>
        <pt x="464" y="309" on="0"/>
        <pt x="464" y="334" on="1"/>
        <pt x="464" y="383" on="0"/>
        <pt x="443" y="404" on="1"/>
        <pt x="429" y="418" on="0"/>
        <pt x="382" y="430" on="0"/>
        <pt x="344" y="430" on="1"/>
        <pt x="221" y="430" on="1"/>
        <pt x="221" y="230" on="1"/>
      </contour>
    </TTGlyph>
    <TTGlyph name="U" xMin="57" yMin="-10" xMax="655" yMax="663">
      <contour>
        <pt x="502" y="663" on="1"/>
        <pt x="655" y="663" on="1"/>
        <pt x="655" y="270" on="1"/>
        <pt x="655" y="198" on="0"/>
        <pt x="618" y="104" on="0"/>
        <pt x="583" y="69" on="1"/>
        <pt x="543" y="29" on="0"/>
        <pt x="427" y="-10" on="0"/>
        <pt x="356" y="-10" on="1"/>
        <pt x="285" y="-10" on="0"/>
        <pt x="169" y="29" on="0"/>
        <pt x="129" y="69" on="1"/>
        <pt x="94" y="104" on="0"/>
        <pt x="57" y="198" on="0"/>
        <pt x="57" y="270" on="1"/>
        <pt x="57" y="663" on="1"/>
        <pt x="213" y="663" on="1"/>
        <pt x="213" y="280" on="1"/>
        <pt x="213" y="244" on="0"/>
        <pt x="228" y="196" on="0"/>
        <pt x="244" y="179" on="1"/>
        <pt x="279" y="141" on="0"/>
        <pt x="358" y="141" on="1"/>
        <pt x="396" y="141" on="0"/>
        <pt x="453" y="159" on="0"/>
        <pt x="471" y="179" on="1"/>
        <pt x="487" y="196" on="0"/>
        <pt x="502" y="244" on="0"/>
        <pt x="502" y="280" on="1"/>
      </contour>
    </TTGlyph>
    <TTGlyph name="Uacute" xMin="57" yMin="-10" xMax="655" yMax="931">
      <component glyphName="U" x="0" y="0" flags="0x204"/>
      <component glyphName="acute.cap" x="144" y="0" flags="0x4"/>
    </TTGlyph>
    <TTGlyph name="Ubreve" xMin="57" yMin="-10" xMax="655" yMax="900">
      <component glyphName="U" x="0" y="0" flags="0x204"/>
      <component glyphName="breve.cap" x="144" y="0" flags="0x4"/>
    </TTGlyph>
    <TTGlyph name="Ucircumflex" xMin="57" yMin="-10" xMax="655" yMax="915">
      <component glyphName="U" x="0" y="0" flags="0x204"/>
      <component glyphName="circumflex.cap" x="145" y="0" flags="0x4"/>
    </TTGlyph>
    <TTGlyph name="Udieresis" xMin="57" yMin="-10" xMax="655" yMax="875">
      <component glyphName="U" x="0" y="0" flags="0x204"/>
      <component glyphName="dieresis.cap" x="144" y="0" flags="0x4"/>
    </TTGlyph>
    <TTGlyph name="Ugrave" xMin="57" yMin="-10" xMax="655" yMax="931">
      <component glyphName="U" x="0" y="0" flags="0x204"/>
      <component glyphName="grave.cap" x="144" y="0" flags="0x4"/>
    </TTGlyph>
    <TTGlyph name="Uhungarumlaut" xMin="57" yMin="-10" xMax="655" yMax="978">
      <component glyphName="U" x="0" y="0" flags="0x204"/>
      <component glyphName="hungarumlaut.cap" x="145" y="0" flags="0x4"/>
    </TTGlyph>
    <TTGlyph name="Umacron" xMin="57" yMin="-10" xMax="655" yMax="865">
      <component glyphName="U" x="0" y="0" flags="0x204"/>
      <component glyphName="macron.cap" x="144" y="0" flags="0x4"/>
    </TTGlyph>
    <TTGlyph name="Uogonek" xMin="57" yMin="-224" xMax="655" yMax="663">
      <contour>
        <pt x="129" y="69" on="1"/>
        <pt x="94" y="104" on="0"/>
        <pt x="57" y="198" on="0"/>
        <pt x="57" y="270" on="1"/>
        <pt x="57" y="663" on="1"/>
        <pt x="213" y="663" on="1"/>
        <pt x="213" y="280" on="1"/>
        <pt x="213" y="244" on="0"/>
        <pt x="228" y="196" on="0"/>
        <pt x="244" y="179" on="1"/>
        <pt x="279" y="141" on="0"/>
        <pt x="358" y="141" on="1"/>
        <pt x="396" y="141" on="0"/>
        <pt x="453" y="159" on="0"/>
        <pt x="471" y="179" on="1"/>
        <pt x="487" y="196" on="0"/>
        <pt x="502" y="244" on="0"/>
        <pt x="502" y="280" on="1"/>
        <pt x="502" y="663" on="1"/>
        <pt x="655" y="663" on="1"/>
        <pt x="655" y="276" on="1"/>
        <pt x="655" y="197" on="0"/>
        <pt x="614" y="99" on="0"/>
        <pt x="552" y="40" on="0"/>
        <pt x="481" y="7" on="0"/>
        <pt x="419" y="-20" on="0"/>
        <pt x="378" y="-53" on="0"/>
        <pt x="378" y="-83" on="1"/>
        <pt x="378" y="-129" on="0"/>
        <pt x="441" y="-129" on="1"/>
        <pt x="466" y="-129" on="0"/>
        <pt x="499" y="-123" on="1"/>
        <pt x="521" y="-196" on="1"/>
        <pt x="495" y="-210" on="0"/>
        <pt x="436" y="-224" on="0"/>
        <pt x="410" y="-224" on="1"/>
        <pt x="344" y="-224" on="0"/>
        <pt x="269" y="-162" on="0"/>
        <pt x="269" y="-114" on="1"/>
        <pt x="269" y="-81" on="0"/>
        <pt x="299" y="-29" on="0"/>
        <pt x="323" y="-9" on="1"/>
        <pt x="263" y="-4" on="0"/>
        <pt x="164" y="34" on="0"/>
      </contour>
    </TTGlyph>
    <TTGlyph name="Uring" xMin="57" yMin="-10" xMax="655" yMax="982">
      <component glyphName="U" x="0" y="0" flags="0x204"/>
      <component glyphName="ring.cap" x="145" y="0" flags="0x4"/>
    </TTGlyph>
    <TTGlyph name="Utilde" xMin="57" yMin="-10" xMax="655" yMax="890">
      <component glyphName="U" x="0" y="0" flags="0x204"/>
      <component glyphName="tilde.cap" x="145" y="0" flags="0x4"/>
    </TTGlyph>
    <TTGlyph name="V" xMin="2" yMin="0" xMax="680" yMax="663">
      <contour>
        <pt x="513" y="649" on="1"/>
        <pt x="518" y="663" on="0"/>
        <pt x="532" y="663" on="1"/>
        <pt x="680" y="663" on="1"/>
        <pt x="438" y="0" on="1"/>
        <pt x="272" y="0" on="1"/>
        <pt x="252" y="0" on="0"/>
        <pt x="246" y="18" on="1"/>
        <pt x="2" y="663" on="1"/>
        <pt x="156" y="663" on="1"/>
        <pt x="164" y="663" on="0"/>
        <pt x="172" y="658" on="0"/>
        <pt x="175" y="649" on="1"/>
        <pt x="269" y="388" on="1"/>
        <pt x="281" y="355" on="0"/>
        <pt x="304" y="284" on="0"/>
        <pt x="325" y="217" on="0"/>
        <pt x="341" y="158" on="0"/>
        <pt x="346" y="139" on="1"/>
        <pt x="348" y="139" on="1"/>
        <pt x="353" y="159" on="0"/>
        <pt x="368" y="216" on="0"/>
        <pt x="388" y="283" on="0"/>
        <pt x="411" y="356" on="0"/>
        <pt x="424" y="393" on="1"/>
      </contour>
    </TTGlyph>
    <TTGlyph name="W" xMin="2" yMin="0" xMax="1019" yMax="663">
      <contour>
        <pt x="564" y="663" on="1"/>
        <pt x="573" y="663" on="0"/>
        <pt x="581" y="658" on="0"/>
        <pt x="584" y="649" on="1"/>
        <pt x="651" y="424" on="1"/>
        <pt x="675" y="342" on="0"/>
        <pt x="712" y="202" on="0"/>
        <pt x="720" y="161" on="1"/>
        <pt x="729" y="202" on="0"/>
        <pt x="766" y="339" on="0"/>
        <pt x="791" y="420" on="1"/>
        <pt x="861" y="649" on="1"/>
        <pt x="865" y="663" on="0"/>
        <pt x="880" y="663" on="1"/>
        <pt x="1019" y="663" on="1"/>
        <pt x="809" y="0" on="1"/>
        <pt x="649" y="0" on="1"/>
        <pt x="629" y="0" on="0"/>
        <pt x="625" y="15" on="1"/>
        <pt x="578" y="179" on="1"/>
        <pt x="567" y="219" on="0"/>
        <pt x="545" y="298" on="0"/>
        <pt x="527" y="369" on="0"/>
        <pt x="513" y="428" on="0"/>
        <pt x="509" y="449" on="1"/>
        <pt x="505" y="428" on="0"/>
        <pt x="490" y="363" on="0"/>
        <pt x="471" y="287" on="0"/>
        <pt x="450" y="208" on="0"/>
        <pt x="440" y="172" on="1"/>
        <pt x="391" y="0" on="1"/>
        <pt x="230" y="0" on="1"/>
        <pt x="210" y="0" on="0"/>
        <pt x="206" y="15" on="1"/>
        <pt x="2" y="663" on="1"/>
        <pt x="148" y="663" on="1"/>
        <pt x="157" y="663" on="0"/>
        <pt x="165" y="658" on="0"/>
        <pt x="168" y="649" on="1"/>
        <pt x="235" y="427" on="1"/>
        <pt x="244" y="396" on="0"/>
        <pt x="265" y="325" on="0"/>
        <pt x="284" y="253" on="0"/>
        <pt x="301" y="187" on="0"/>
        <pt x="306" y="161" on="1"/>
        <pt x="316" y="215" on="0"/>
        <pt x="353" y="358" on="0"/>
        <pt x="375" y="433" on="1"/>
        <pt x="443" y="663" on="1"/>
      </contour>
    </TTGlyph>
    <TTGlyph name="Wacute" xMin="2" yMin="0" xMax="1019" yMax="931">
      <component glyphName="W" x="0" y="0" flags="0x204"/>
      <component glyphName="acute.cap" x="299" y="0" flags="0x4"/>
    </TTGlyph>
    <TTGlyph name="Wcircumflex" xMin="2" yMin="0" xMax="1019" yMax="915">
      <component glyphName="W" x="0" y="0" flags="0x204"/>
      <component glyphName="circumflex.cap" x="299" y="0" flags="0x4"/>
    </TTGlyph>
    <TTGlyph name="Wdieresis" xMin="2" yMin="0" xMax="1019" yMax="875">
      <component glyphName="W" x="0" y="0" flags="0x204"/>
      <component glyphName="dieresis.cap" x="299" y="0" flags="0x4"/>
    </TTGlyph>
    <TTGlyph name="Wgrave" xMin="2" yMin="0" xMax="1019" yMax="931">
      <component glyphName="W" x="0" y="0" flags="0x204"/>
      <component glyphName="grave.cap" x="299" y="0" flags="0x4"/>
    </TTGlyph>
    <TTGlyph name="X" xMin="6" yMin="0" xMax="700" yMax="663">
      <contour>
        <pt x="443" y="340" on="1"/>
        <pt x="700" y="0" on="1"/>
        <pt x="533" y="0" on="1"/>
        <pt x="519" y="0" on="0"/>
        <pt x="511" y="11" on="1"/>
        <pt x="346" y="231" on="1"/>
        <pt x="186" y="9" on="1"/>
        <pt x="180" y="0" on="0"/>
        <pt x="166" y="0" on="1"/>
        <pt x="6" y="0" on="1"/>
        <pt x="255" y="340" on="1"/>
        <pt x="9" y="663" on="1"/>
        <pt x="172" y="663" on="1"/>
        <pt x="184" y="663" on="0"/>
        <pt x="194" y="659" on="0"/>
        <pt x="200" y="651" on="1"/>
        <pt x="353" y="447" on="1"/>
        <pt x="500" y="651" on="1"/>
        <pt x="506" y="659" on="0"/>
        <pt x="516" y="663" on="0"/>
        <pt x="526" y="663" on="1"/>
        <pt x="680" y="663" on="1"/>
      </contour>
    </TTGlyph>
    <TTGlyph name="Y" xMin="-4" yMin="0" xMax="692" yMax="663">
      <contour>
        <pt x="348" y="341" on="1"/>
        <pt x="364" y="376" on="0"/>
        <pt x="409" y="462" on="0"/>
        <pt x="439" y="516" on="1"/>
        <pt x="512" y="648" on="1"/>
        <pt x="517" y="656" on="0"/>
        <pt x="526" y="663" on="0"/>
        <pt x="535" y="663" on="1"/>
        <pt x="692" y="663" on="1"/>
        <pt x="424" y="207" on="1"/>
        <pt x="424" y="0" on="1"/>
        <pt x="268" y="0" on="1"/>
        <pt x="268" y="207" on="1"/>
        <pt x="-4" y="663" on="1"/>
        <pt x="160" y="663" on="1"/>
        <pt x="169" y="663" on="0"/>
        <pt x="177" y="658" on="0"/>
        <pt x="182" y="650" on="1"/>
        <pt x="259" y="513" on="1"/>
        <pt x="288" y="462" on="0"/>
        <pt x="332" y="376" on="0"/>
      </contour>
    </TTGlyph>
    <TTGlyph name="Yacute" xMin="-4" yMin="0" xMax="692" yMax="931">
      <component glyphName="Y" x="0" y="0" flags="0x204"/>
      <component glyphName="acute.cap" x="132" y="0" flags="0x4"/>
    </TTGlyph>
    <TTGlyph name="Ycircumflex" xMin="-4" yMin="0" xMax="692" yMax="915">
      <component glyphName="Y" x="0" y="0" flags="0x204"/>
      <component glyphName="circumflex.cap" x="133" y="0" flags="0x4"/>
    </TTGlyph>
    <TTGlyph name="Ydieresis" xMin="-4" yMin="0" xMax="692" yMax="875">
      <component glyphName="Y" x="0" y="0" flags="0x204"/>
      <component glyphName="dieresis.cap" x="132" y="0" flags="0x4"/>
    </TTGlyph>
    <TTGlyph name="Ygrave" xMin="-4" yMin="0" xMax="692" yMax="931">
      <component glyphName="Y" x="0" y="0" flags="0x204"/>
      <component glyphName="grave.cap" x="132" y="0" flags="0x4"/>
    </TTGlyph>
    <TTGlyph name="Z" xMin="42" yMin="0" xMax="585" yMax="663">
      <contour>
        <pt x="42" y="532" on="1"/>
        <pt x="42" y="663" on="1"/>
        <pt x="581" y="663" on="1"/>
        <pt x="581" y="574" on="1"/>
        <pt x="581" y="562" on="0"/>
        <pt x="575" y="548" on="0"/>
        <pt x="566" y="536" on="1"/>
        <pt x="335" y="245" on="1"/>
        <pt x="311" y="214" on="0"/>
        <pt x="258" y="152" on="0"/>
        <pt x="238" y="130" on="1"/>
        <pt x="585" y="130" on="1"/>
        <pt x="585" y="0" on="1"/>
        <pt x="42" y="0" on="1"/>
        <pt x="42" y="89" on="1"/>
        <pt x="42" y="101" on="0"/>
        <pt x="47" y="114" on="0"/>
        <pt x="57" y="127" on="1"/>
        <pt x="288" y="418" on="1"/>
        <pt x="305" y="440" on="0"/>
        <pt x="333" y="473" on="0"/>
        <pt x="355" y="499" on="0"/>
        <pt x="375" y="521" on="0"/>
        <pt x="385" y="532" on="1"/>
      </contour>
    </TTGlyph>
    <TTGlyph name="Zacute" xMin="42" yMin="0" xMax="585" yMax="931">
      <component glyphName="Z" x="0" y="0" flags="0x204"/>
      <component glyphName="acute.cap" x="103" y="0" flags="0x4"/>
    </TTGlyph>
    <TTGlyph name="Zcaron" xMin="42" yMin="0" xMax="585" yMax="926">
      <component glyphName="Z" x="0" y="0" flags="0x204"/>
      <component glyphName="caron.cap" x="103" y="0" flags="0x4"/>
    </TTGlyph>
    <TTGlyph name="Zdotaccent" xMin="42" yMin="0" xMax="585" yMax="868">
      <component glyphName="Z" x="0" y="0" flags="0x204"/>
      <component glyphName="dotaccent.cap" x="103" y="0" flags="0x4"/>
    </TTGlyph>
    <TTGlyph name="a" xMin="24" yMin="-8" xMax="542" yMax="496">
      <contour>
        <pt x="330" y="307" on="1"/>
        <pt x="330" y="339" on="0"/>
        <pt x="316" y="353" on="1"/>
        <pt x="306" y="363" on="0"/>
        <pt x="271" y="372" on="0"/>
        <pt x="250" y="372" on="1"/>
        <pt x="205" y="372" on="0"/>
        <pt x="148" y="355" on="1"/>
        <pt x="90" y="338" on="1"/>
        <pt x="48" y="417" on="1"/>
        <pt x="95" y="452" on="0"/>
        <pt x="208" y="496" on="0"/>
        <pt x="268" y="496" on="1"/>
        <pt x="317" y="496" on="0"/>
        <pt x="401" y="468" on="0"/>
        <pt x="429" y="439" on="1"/>
        <pt x="452" y="416" on="0"/>
        <pt x="476" y="350" on="0"/>
        <pt x="476" y="301" on="1"/>
        <pt x="476" y="112" on="1"/>
        <pt x="542" y="97" on="1"/>
        <pt x="542" y="20" on="1"/>
        <pt x="523" y="11" on="0"/>
        <pt x="468" y="-3" on="0"/>
        <pt x="446" y="-3" on="1"/>
        <pt x="420" y="-3" on="0"/>
        <pt x="377" y="20" on="0"/>
        <pt x="355" y="41" on="1"/>
        <pt x="327" y="26" on="1"/>
        <pt x="264" y="-8" on="0"/>
        <pt x="204" y="-8" on="1"/>
        <pt x="164" y="-8" on="0"/>
        <pt x="98" y="17" on="0"/>
        <pt x="50" y="60" on="0"/>
        <pt x="24" y="120" on="0"/>
        <pt x="24" y="155" on="1"/>
        <pt x="24" y="190" on="0"/>
        <pt x="50" y="243" on="0"/>
        <pt x="95" y="278" on="0"/>
        <pt x="157" y="295" on="0"/>
        <pt x="193" y="295" on="1"/>
        <pt x="225" y="295" on="0"/>
        <pt x="299" y="282" on="0"/>
        <pt x="330" y="271" on="1"/>
      </contour>
      <contour>
        <pt x="330" y="184" on="1"/>
        <pt x="330" y="193" on="0"/>
        <pt x="321" y="193" on="1"/>
        <pt x="192" y="193" on="1"/>
        <pt x="174" y="193" on="0"/>
        <pt x="167" y="185" on="1"/>
        <pt x="161" y="177" on="0"/>
        <pt x="161" y="162" on="1"/>
        <pt x="161" y="136" on="0"/>
        <pt x="199" y="105" on="0"/>
        <pt x="234" y="105" on="1"/>
        <pt x="256" y="105" on="0"/>
        <pt x="305" y="116" on="0"/>
        <pt x="322" y="124" on="1"/>
        <pt x="330" y="128" on="0"/>
        <pt x="330" y="139" on="1"/>
      </contour>
    </TTGlyph>
    <TTGlyph name="aacute" xMin="24" yMin="-8" xMax="542" yMax="757">
      <component glyphName="a" x="0" y="0" flags="0x204"/>
      <component glyphName="acute" x="63" y="0" flags="0x4"/>
    </TTGlyph>
    <TTGlyph name="abreve" xMin="24" yMin="-8" xMax="542" yMax="726">
      <component glyphName="a" x="0" y="0" flags="0x204"/>
      <component glyphName="breve" x="62" y="0" flags="0x4"/>
    </TTGlyph>
    <TTGlyph name="acaron" xMin="24" yMin="-8" xMax="542" yMax="744">
      <component glyphName="a" x="0" y="0" flags="0x204"/>
      <component glyphName="caron" x="63" y="0" flags="0x4"/>
    </TTGlyph>
    <TTGlyph name="acircumflex" xMin="24" yMin="-8" xMax="542" yMax="741">
      <component glyphName="a" x="0" y="0" flags="0x204"/>
      <component glyphName="circumflex" x="63" y="0" flags="0x4"/>
    </TTGlyph>
    <TTGlyph name="acute" xMin="75" yMin="544" xMax="348" yMax="757">
      <contour>
        <pt x="75" y="606" on="1"/>
        <pt x="255" y="748" on="1"/>
        <pt x="267" y="757" on="0"/>
        <pt x="273" y="757" on="1"/>
        <pt x="282" y="757" on="0"/>
        <pt x="292" y="742" on="1"/>
        <pt x="348" y="659" on="1"/>
        <pt x="119" y="544" on="1"/>
      </contour>
    </TTGlyph>
    <TTGlyph name="acute.cap" xMin="75" yMin="718" xMax="348" yMax="931">
      <contour>
        <pt x="75" y="780" on="1"/>
        <pt x="255" y="922" on="1"/>
        <pt x="267" y="931" on="0"/>
        <pt x="273" y="931" on="1"/>
        <pt x="282" y="931" on="0"/>
        <pt x="292" y="916" on="1"/>
        <pt x="348" y="833" on="1"/>
        <pt x="119" y="718" on="1"/>
      </contour>
    </TTGlyph>
    <TTGlyph name="adieresis" xMin="24" yMin="-8" xMax="542" yMax="701">
      <component glyphName="a" x="0" y="0" flags="0x204"/>
      <component glyphName="dieresis" x="63" y="0" flags="0x4"/>
    </TTGlyph>
    <TTGlyph name="ae" xMin="28" yMin="-9" xMax="814" yMax="496">
      <contour>
        <pt x="578" y="-8" on="1"/>
        <pt x="525" y="-8" on="0"/>
        <pt x="437" y="25" on="0"/>
        <pt x="405" y="55" on="1"/>
        <pt x="369" y="35" on="1"/>
        <pt x="332" y="14" on="0"/>
        <pt x="260" y="-9" on="0"/>
        <pt x="220" y="-8" on="1"/>
        <pt x="179" y="-8" on="0"/>
        <pt x="109" y="16" on="0"/>
        <pt x="57" y="59" on="0"/>
        <pt x="28" y="120" on="0"/>
        <pt x="28" y="157" on="1"/>
        <pt x="28" y="192" on="0"/>
        <pt x="54" y="245" on="0"/>
        <pt x="99" y="281" on="0"/>
        <pt x="160" y="299" on="0"/>
        <pt x="196" y="299" on="1"/>
        <pt x="199" y="299" on="1"/>
        <pt x="231" y="299" on="0"/>
        <pt x="301" y="287" on="0"/>
        <pt x="330" y="276" on="1"/>
        <pt x="330" y="307" on="1"/>
        <pt x="330" y="339" on="0"/>
        <pt x="316" y="353" on="1"/>
        <pt x="306" y="363" on="0"/>
        <pt x="271" y="372" on="0"/>
        <pt x="250" y="372" on="1"/>
        <pt x="205" y="372" on="0"/>
        <pt x="148" y="355" on="1"/>
        <pt x="90" y="338" on="1"/>
        <pt x="48" y="417" on="1"/>
        <pt x="95" y="452" on="0"/>
        <pt x="208" y="496" on="0"/>
        <pt x="265" y="496" on="1"/>
        <pt x="307" y="496" on="0"/>
        <pt x="387" y="466" on="0"/>
        <pt x="414" y="440" on="1"/>
        <pt x="446" y="467" on="0"/>
        <pt x="528" y="496" on="0"/>
        <pt x="576" y="496" on="1"/>
        <pt x="628" y="496" on="0"/>
        <pt x="716" y="458" on="0"/>
        <pt x="779" y="393" on="0"/>
        <pt x="814" y="308" on="0"/>
        <pt x="814" y="260" on="1"/>
        <pt x="814" y="222" on="0"/>
        <pt x="803" y="199" on="0"/>
        <pt x="790" y="199" on="1"/>
        <pt x="478" y="199" on="1"/>
        <pt x="484" y="162" on="0"/>
        <pt x="543" y="117" on="0"/>
        <pt x="595" y="117" on="1"/>
        <pt x="616" y="117" on="0"/>
        <pt x="667" y="126" on="0"/>
        <pt x="690" y="134" on="1"/>
        <pt x="758" y="155" on="1"/>
        <pt x="802" y="75" on="1"/>
        <pt x="759" y="37" on="0"/>
        <pt x="642" y="-8" on="0"/>
      </contour>
      <contour>
        <pt x="240" y="104" on="1"/>
        <pt x="269" y="104" on="0"/>
        <pt x="330" y="120" on="0"/>
        <pt x="352" y="131" on="1"/>
        <pt x="345" y="147" on="0"/>
        <pt x="335" y="181" on="0"/>
        <pt x="333" y="199" on="1"/>
        <pt x="200" y="199" on="1"/>
        <pt x="180" y="199" on="0"/>
        <pt x="164" y="181" on="0"/>
        <pt x="164" y="164" on="1"/>
        <pt x="164" y="140" on="0"/>
        <pt x="203" y="104" on="0"/>
      </contour>
      <contour>
        <pt x="576" y="376" on="1"/>
        <pt x="536" y="376" on="0"/>
        <pt x="483" y="332" on="0"/>
        <pt x="478" y="297" on="1"/>
        <pt x="671" y="297" on="1"/>
        <pt x="666" y="332" on="0"/>
        <pt x="615" y="376" on="0"/>
      </contour>
    </TTGlyph>
    <TTGlyph name="aeacute" xMin="28" yMin="-9" xMax="814" yMax="757">
      <component glyphName="ae" x="0" y="0" flags="0x204"/>
      <component glyphName="acute" x="219" y="0" flags="0x4"/>
    </TTGlyph>
    <TTGlyph name="agrave" xMin="24" yMin="-8" xMax="542" yMax="757">
      <component glyphName="a" x="0" y="0" flags="0x204"/>
      <component glyphName="grave" x="63" y="0" flags="0x4"/>
    </TTGlyph>
    <TTGlyph name="amacron" xMin="24" yMin="-8" xMax="542" yMax="691">
      <component glyphName="a" x="0" y="0" flags="0x204"/>
      <component glyphName="macron" x="63" y="0" flags="0x4"/>
    </TTGlyph>
    <TTGlyph name="ampersand" xMin="30" yMin="-10" xMax="721" yMax="673">
      <contour>
        <pt x="503" y="238" on="1"/>
        <pt x="528" y="278" on="0"/>
        <pt x="553" y="324" on="1"/>
        <pt x="603" y="417" on="1"/>
        <pt x="690" y="386" on="1"/>
        <pt x="676" y="332" on="0"/>
        <pt x="622" y="210" on="0"/>
        <pt x="587" y="159" on="1"/>
        <pt x="587" y="158" on="0"/>
        <pt x="602" y="144" on="0"/>
        <pt x="611" y="136" on="1"/>
        <pt x="622" y="126" on="0"/>
        <pt x="636" y="113" on="1"/>
        <pt x="721" y="96" on="1"/>
        <pt x="721" y="23" on="1"/>
        <pt x="707" y="13" on="0"/>
        <pt x="660" y="-4" on="0"/>
        <pt x="633" y="-4" on="1"/>
        <pt x="615" y="-4" on="0"/>
        <pt x="585" y="2" on="0"/>
        <pt x="554" y="16" on="0"/>
        <pt x="520" y="40" on="0"/>
        <pt x="499" y="59" on="1"/>
        <pt x="457" y="27" on="0"/>
        <pt x="354" y="-10" on="0"/>
        <pt x="300" y="-10" on="1"/>
        <pt x="244" y="-10" on="0"/>
        <pt x="146" y="23" on="0"/>
        <pt x="73" y="82" on="0"/>
        <pt x="30" y="164" on="0"/>
        <pt x="30" y="213" on="1"/>
        <pt x="30" y="246" on="0"/>
        <pt x="51" y="300" on="0"/>
        <pt x="88" y="343" on="0"/>
        <pt x="138" y="376" on="0"/>
        <pt x="167" y="389" on="1"/>
        <pt x="149" y="415" on="0"/>
        <pt x="132" y="466" on="0"/>
        <pt x="132" y="495" on="1"/>
        <pt x="132" y="537" on="0"/>
        <pt x="166" y="603" on="0"/>
        <pt x="223" y="649" on="0"/>
        <pt x="297" y="673" on="0"/>
        <pt x="336" y="673" on="1"/>
        <pt x="377" y="673" on="0"/>
        <pt x="448" y="647" on="0"/>
        <pt x="501" y="602" on="0"/>
        <pt x="531" y="541" on="0"/>
        <pt x="531" y="505" on="1"/>
        <pt x="531" y="456" on="0"/>
        <pt x="476" y="369" on="0"/>
        <pt x="410" y="327" on="1"/>
      </contour>
      <contour>
        <pt x="225" y="320" on="1"/>
        <pt x="205" y="304" on="0"/>
        <pt x="175" y="260" on="0"/>
        <pt x="175" y="231" on="1"/>
        <pt x="175" y="208" on="0"/>
        <pt x="196" y="166" on="0"/>
        <pt x="233" y="135" on="0"/>
        <pt x="285" y="116" on="0"/>
        <pt x="316" y="116" on="1"/>
        <pt x="342" y="116" on="0"/>
        <pt x="389" y="130" on="0"/>
        <pt x="411" y="142" on="1"/>
      </contour>
      <contour>
        <pt x="361" y="407" on="1"/>
        <pt x="388" y="437" on="0"/>
        <pt x="409" y="478" on="0"/>
        <pt x="409" y="496" on="1"/>
        <pt x="409" y="522" on="0"/>
        <pt x="369" y="557" on="0"/>
        <pt x="338" y="557" on="1"/>
        <pt x="312" y="557" on="0"/>
        <pt x="267" y="527" on="0"/>
        <pt x="267" y="495" on="1"/>
        <pt x="267" y="471" on="0"/>
        <pt x="304" y="423" on="0"/>
        <pt x="345" y="389" on="1"/>
      </contour>
    </TTGlyph>
    <TTGlyph name="aogonek" xMin="24" yMin="-229" xMax="542" yMax="496">
      <contour>
        <pt x="355" y="41" on="1"/>
        <pt x="327" y="26" on="1"/>
        <pt x="264" y="-8" on="0"/>
        <pt x="203" y="-8" on="1"/>
        <pt x="163" y="-8" on="0"/>
        <pt x="97" y="17" on="0"/>
        <pt x="50" y="60" on="0"/>
        <pt x="24" y="120" on="0"/>
        <pt x="24" y="155" on="1"/>
        <pt x="24" y="190" on="0"/>
        <pt x="49" y="243" on="0"/>
        <pt x="94" y="278" on="0"/>
        <pt x="156" y="295" on="0"/>
        <pt x="192" y="295" on="1"/>
        <pt x="224" y="295" on="0"/>
        <pt x="299" y="282" on="0"/>
        <pt x="330" y="271" on="1"/>
        <pt x="330" y="307" on="1"/>
        <pt x="330" y="339" on="0"/>
        <pt x="316" y="353" on="1"/>
        <pt x="306" y="363" on="0"/>
        <pt x="271" y="372" on="0"/>
        <pt x="250" y="372" on="1"/>
        <pt x="205" y="372" on="0"/>
        <pt x="148" y="355" on="1"/>
        <pt x="90" y="338" on="1"/>
        <pt x="48" y="417" on="1"/>
        <pt x="95" y="452" on="0"/>
        <pt x="208" y="496" on="0"/>
        <pt x="268" y="496" on="1"/>
        <pt x="317" y="496" on="0"/>
        <pt x="401" y="468" on="0"/>
        <pt x="429" y="439" on="1"/>
        <pt x="452" y="416" on="0"/>
        <pt x="476" y="350" on="0"/>
        <pt x="476" y="301" on="1"/>
        <pt x="476" y="112" on="1"/>
        <pt x="542" y="97" on="1"/>
        <pt x="542" y="20" on="1"/>
        <pt x="470" y="-1" on="0"/>
        <pt x="389" y="-58" on="0"/>
        <pt x="389" y="-88" on="1"/>
        <pt x="389" y="-134" on="0"/>
        <pt x="452" y="-134" on="1"/>
        <pt x="477" y="-134" on="0"/>
        <pt x="510" y="-128" on="1"/>
        <pt x="532" y="-201" on="1"/>
        <pt x="506" y="-215" on="0"/>
        <pt x="447" y="-229" on="0"/>
        <pt x="421" y="-229" on="1"/>
        <pt x="355" y="-229" on="0"/>
        <pt x="280" y="-167" on="0"/>
        <pt x="280" y="-119" on="1"/>
        <pt x="280" y="-76" on="0"/>
        <pt x="339" y="-6" on="0"/>
        <pt x="387" y="15" on="1"/>
        <pt x="379" y="20" on="0"/>
        <pt x="363" y="33" on="0"/>
      </contour>
      <contour>
        <pt x="330" y="184" on="1"/>
        <pt x="330" y="193" on="0"/>
        <pt x="321" y="193" on="1"/>
        <pt x="192" y="193" on="1"/>
        <pt x="174" y="193" on="0"/>
        <pt x="167" y="185" on="1"/>
        <pt x="161" y="177" on="0"/>
        <pt x="161" y="162" on="1"/>
        <pt x="161" y="136" on="0"/>
        <pt x="199" y="105" on="0"/>
        <pt x="234" y="105" on="1"/>
        <pt x="256" y="105" on="0"/>
        <pt x="305" y="116" on="0"/>
        <pt x="322" y="124" on="1"/>
        <pt x="330" y="128" on="0"/>
        <pt x="330" y="139" on="1"/>
      </contour>
    </TTGlyph>
    <TTGlyph name="apple" xMin="78" yMin="0" xMax="466" yMax="650">
      <contour>
        <pt x="208" y="357" on="1"/>
        <pt x="208" y="370" on="0"/>
        <pt x="227" y="388" on="0"/>
        <pt x="239" y="388" on="1"/>
        <pt x="252" y="388" on="0"/>
        <pt x="269" y="370" on="0"/>
        <pt x="269" y="357" on="1"/>
        <pt x="269" y="344" on="0"/>
        <pt x="252" y="327" on="0"/>
        <pt x="239" y="327" on="1"/>
        <pt x="227" y="327" on="0"/>
        <pt x="208" y="344" on="0"/>
      </contour>
      <contour>
        <pt x="405" y="357" on="1"/>
        <pt x="405" y="370" on="0"/>
        <pt x="424" y="388" on="0"/>
        <pt x="436" y="388" on="1"/>
        <pt x="449" y="388" on="0"/>
        <pt x="466" y="370" on="0"/>
        <pt x="466" y="357" on="1"/>
        <pt x="466" y="344" on="0"/>
        <pt x="449" y="327" on="0"/>
        <pt x="436" y="327" on="1"/>
        <pt x="424" y="327" on="0"/>
        <pt x="405" y="344" on="0"/>
      </contour>
      <contour>
        <pt x="78" y="161" on="1"/>
        <pt x="78" y="174" on="0"/>
        <pt x="95" y="191" on="0"/>
        <pt x="108" y="191" on="1"/>
        <pt x="120" y="191" on="0"/>
        <pt x="139" y="174" on="0"/>
        <pt x="139" y="161" on="1"/>
        <pt x="139" y="148" on="0"/>
        <pt x="120" y="130" on="0"/>
        <pt x="108" y="130" on="1"/>
        <pt x="95" y="130" on="0"/>
        <pt x="78" y="148" on="0"/>
      </contour>
      <contour>
        <pt x="78" y="357" on="1"/>
        <pt x="78" y="370" on="0"/>
        <pt x="95" y="388" on="0"/>
        <pt x="108" y="388" on="1"/>
        <pt x="120" y="388" on="0"/>
        <pt x="139" y="370" on="0"/>
        <pt x="139" y="357" on="1"/>
        <pt x="139" y="344" on="0"/>
        <pt x="120" y="327" on="0"/>
        <pt x="108" y="327" on="1"/>
        <pt x="95" y="327" on="0"/>
        <pt x="78" y="344" on="0"/>
      </contour>
      <contour>
        <pt x="275" y="357" on="1"/>
        <pt x="275" y="370" on="0"/>
        <pt x="292" y="388" on="0"/>
        <pt x="305" y="388" on="1"/>
        <pt x="317" y="388" on="0"/>
        <pt x="336" y="370" on="0"/>
        <pt x="336" y="357" on="1"/>
        <pt x="336" y="344" on="0"/>
        <pt x="317" y="327" on="0"/>
        <pt x="305" y="327" on="1"/>
        <pt x="292" y="327" on="0"/>
        <pt x="275" y="344" on="0"/>
      </contour>
      <contour>
        <pt x="340" y="620" on="1"/>
        <pt x="340" y="632" on="0"/>
        <pt x="357" y="650" on="0"/>
        <pt x="371" y="650" on="1"/>
        <pt x="382" y="650" on="0"/>
        <pt x="401" y="632" on="0"/>
        <pt x="401" y="620" on="1"/>
        <pt x="401" y="606" on="0"/>
        <pt x="382" y="589" on="0"/>
        <pt x="371" y="589" on="1"/>
        <pt x="357" y="589" on="0"/>
        <pt x="340" y="606" on="0"/>
      </contour>
      <contour>
        <pt x="78" y="620" on="1"/>
        <pt x="78" y="632" on="0"/>
        <pt x="95" y="650" on="0"/>
        <pt x="108" y="650" on="1"/>
        <pt x="120" y="650" on="0"/>
        <pt x="139" y="632" on="0"/>
        <pt x="139" y="620" on="1"/>
        <pt x="139" y="606" on="0"/>
        <pt x="120" y="589" on="0"/>
        <pt x="108" y="589" on="1"/>
        <pt x="95" y="589" on="0"/>
        <pt x="78" y="606" on="0"/>
      </contour>
      <contour>
        <pt x="275" y="620" on="1"/>
        <pt x="275" y="632" on="0"/>
        <pt x="292" y="650" on="0"/>
        <pt x="305" y="650" on="1"/>
        <pt x="317" y="650" on="0"/>
        <pt x="336" y="632" on="0"/>
        <pt x="336" y="620" on="1"/>
        <pt x="336" y="606" on="0"/>
        <pt x="317" y="589" on="0"/>
        <pt x="305" y="589" on="1"/>
        <pt x="292" y="589" on="0"/>
        <pt x="275" y="606" on="0"/>
      </contour>
      <contour>
        <pt x="405" y="620" on="1"/>
        <pt x="405" y="632" on="0"/>
        <pt x="424" y="650" on="0"/>
        <pt x="436" y="650" on="1"/>
        <pt x="449" y="650" on="0"/>
        <pt x="466" y="632" on="0"/>
        <pt x="466" y="620" on="1"/>
        <pt x="466" y="606" on="0"/>
        <pt x="449" y="589" on="0"/>
        <pt x="436" y="589" on="1"/>
        <pt x="424" y="589" on="0"/>
        <pt x="405" y="606" on="0"/>
      </contour>
      <contour>
        <pt x="208" y="620" on="1"/>
        <pt x="208" y="632" on="0"/>
        <pt x="227" y="650" on="0"/>
        <pt x="239" y="650" on="1"/>
        <pt x="252" y="650" on="0"/>
        <pt x="269" y="632" on="0"/>
        <pt x="269" y="620" on="1"/>
        <pt x="269" y="606" on="0"/>
        <pt x="252" y="589" on="0"/>
        <pt x="239" y="589" on="1"/>
        <pt x="227" y="589" on="0"/>
        <pt x="208" y="606" on="0"/>
      </contour>
      <contour>
        <pt x="340" y="357" on="1"/>
        <pt x="340" y="370" on="0"/>
        <pt x="357" y="388" on="0"/>
        <pt x="371" y="388" on="1"/>
        <pt x="382" y="388" on="0"/>
        <pt x="401" y="370" on="0"/>
        <pt x="401" y="357" on="1"/>
        <pt x="401" y="344" on="0"/>
        <pt x="382" y="327" on="0"/>
        <pt x="371" y="327" on="1"/>
        <pt x="357" y="327" on="0"/>
        <pt x="340" y="344" on="0"/>
      </contour>
      <contour>
        <pt x="208" y="30" on="1"/>
        <pt x="208" y="42" on="0"/>
        <pt x="227" y="61" on="0"/>
        <pt x="239" y="61" on="1"/>
        <pt x="252" y="61" on="0"/>
        <pt x="269" y="42" on="0"/>
        <pt x="269" y="30" on="1"/>
        <pt x="269" y="17" on="0"/>
        <pt x="252" y="0" on="0"/>
        <pt x="239" y="0" on="1"/>
        <pt x="227" y="0" on="0"/>
        <pt x="208" y="17" on="0"/>
      </contour>
      <contour>
        <pt x="78" y="30" on="1"/>
        <pt x="78" y="42" on="0"/>
        <pt x="95" y="61" on="0"/>
        <pt x="108" y="61" on="1"/>
        <pt x="120" y="61" on="0"/>
        <pt x="139" y="42" on="0"/>
        <pt x="139" y="30" on="1"/>
        <pt x="139" y="17" on="0"/>
        <pt x="120" y="0" on="0"/>
        <pt x="108" y="0" on="1"/>
        <pt x="95" y="0" on="0"/>
        <pt x="78" y="17" on="0"/>
      </contour>
      <contour>
        <pt x="208" y="95" on="1"/>
        <pt x="208" y="109" on="0"/>
        <pt x="227" y="125" on="0"/>
        <pt x="239" y="125" on="1"/>
        <pt x="252" y="125" on="0"/>
        <pt x="269" y="109" on="0"/>
        <pt x="269" y="95" on="1"/>
        <pt x="269" y="82" on="0"/>
        <pt x="252" y="65" on="0"/>
        <pt x="239" y="65" on="1"/>
        <pt x="227" y="65" on="0"/>
        <pt x="208" y="82" on="0"/>
      </contour>
      <contour>
        <pt x="78" y="95" on="1"/>
        <pt x="78" y="109" on="0"/>
        <pt x="95" y="125" on="0"/>
        <pt x="108" y="125" on="1"/>
        <pt x="120" y="125" on="0"/>
        <pt x="139" y="109" on="0"/>
        <pt x="139" y="95" on="1"/>
        <pt x="139" y="82" on="0"/>
        <pt x="120" y="65" on="0"/>
        <pt x="108" y="65" on="1"/>
        <pt x="95" y="65" on="0"/>
        <pt x="78" y="82" on="0"/>
      </contour>
      <contour>
        <pt x="144" y="620" on="1"/>
        <pt x="144" y="632" on="0"/>
        <pt x="162" y="650" on="0"/>
        <pt x="174" y="650" on="1"/>
        <pt x="187" y="650" on="0"/>
        <pt x="204" y="632" on="0"/>
        <pt x="204" y="620" on="1"/>
        <pt x="204" y="606" on="0"/>
        <pt x="187" y="589" on="0"/>
        <pt x="174" y="589" on="1"/>
        <pt x="162" y="589" on="0"/>
        <pt x="144" y="606" on="0"/>
      </contour>
      <contour>
        <pt x="78" y="489" on="1"/>
        <pt x="78" y="501" on="0"/>
        <pt x="95" y="518" on="0"/>
        <pt x="108" y="518" on="1"/>
        <pt x="120" y="518" on="0"/>
        <pt x="139" y="501" on="0"/>
        <pt x="139" y="489" on="1"/>
        <pt x="139" y="476" on="0"/>
        <pt x="120" y="458" on="0"/>
        <pt x="108" y="458" on="1"/>
        <pt x="95" y="458" on="0"/>
        <pt x="78" y="476" on="0"/>
      </contour>
      <contour>
        <pt x="275" y="489" on="1"/>
        <pt x="275" y="501" on="0"/>
        <pt x="292" y="518" on="0"/>
        <pt x="305" y="518" on="1"/>
        <pt x="317" y="518" on="0"/>
        <pt x="336" y="501" on="0"/>
        <pt x="336" y="489" on="1"/>
        <pt x="336" y="476" on="0"/>
        <pt x="317" y="458" on="0"/>
        <pt x="305" y="458" on="1"/>
        <pt x="292" y="458" on="0"/>
        <pt x="275" y="476" on="0"/>
      </contour>
      <contour>
        <pt x="208" y="489" on="1"/>
        <pt x="208" y="501" on="0"/>
        <pt x="227" y="518" on="0"/>
        <pt x="239" y="518" on="1"/>
        <pt x="252" y="518" on="0"/>
        <pt x="269" y="501" on="0"/>
        <pt x="269" y="489" on="1"/>
        <pt x="269" y="476" on="0"/>
        <pt x="252" y="458" on="0"/>
        <pt x="239" y="458" on="1"/>
        <pt x="227" y="458" on="0"/>
        <pt x="208" y="476" on="0"/>
      </contour>
      <contour>
        <pt x="405" y="489" on="1"/>
        <pt x="405" y="501" on="0"/>
        <pt x="424" y="518" on="0"/>
        <pt x="436" y="518" on="1"/>
        <pt x="449" y="518" on="0"/>
        <pt x="466" y="501" on="0"/>
        <pt x="466" y="489" on="1"/>
        <pt x="466" y="476" on="0"/>
        <pt x="449" y="458" on="0"/>
        <pt x="436" y="458" on="1"/>
        <pt x="424" y="458" on="0"/>
        <pt x="405" y="476" on="0"/>
      </contour>
      <contour>
        <pt x="340" y="489" on="1"/>
        <pt x="340" y="501" on="0"/>
        <pt x="357" y="518" on="0"/>
        <pt x="371" y="518" on="1"/>
        <pt x="382" y="518" on="0"/>
        <pt x="401" y="501" on="0"/>
        <pt x="401" y="489" on="1"/>
        <pt x="401" y="476" on="0"/>
        <pt x="382" y="458" on="0"/>
        <pt x="371" y="458" on="1"/>
        <pt x="357" y="458" on="0"/>
        <pt x="340" y="476" on="0"/>
      </contour>
      <contour>
        <pt x="144" y="30" on="1"/>
        <pt x="144" y="42" on="0"/>
        <pt x="162" y="61" on="0"/>
        <pt x="174" y="61" on="1"/>
        <pt x="187" y="61" on="0"/>
        <pt x="204" y="42" on="0"/>
        <pt x="204" y="30" on="1"/>
        <pt x="204" y="17" on="0"/>
        <pt x="187" y="0" on="0"/>
        <pt x="174" y="0" on="1"/>
        <pt x="162" y="0" on="0"/>
        <pt x="144" y="17" on="0"/>
      </contour>
      <contour>
        <pt x="78" y="292" on="1"/>
        <pt x="78" y="304" on="0"/>
        <pt x="95" y="322" on="0"/>
        <pt x="108" y="322" on="1"/>
        <pt x="120" y="322" on="0"/>
        <pt x="139" y="304" on="0"/>
        <pt x="139" y="292" on="1"/>
        <pt x="139" y="279" on="0"/>
        <pt x="120" y="262" on="0"/>
        <pt x="108" y="262" on="1"/>
        <pt x="95" y="262" on="0"/>
        <pt x="78" y="279" on="0"/>
      </contour>
      <contour>
        <pt x="78" y="554" on="1"/>
        <pt x="78" y="566" on="0"/>
        <pt x="95" y="584" on="0"/>
        <pt x="108" y="584" on="1"/>
        <pt x="120" y="584" on="0"/>
        <pt x="139" y="566" on="0"/>
        <pt x="139" y="554" on="1"/>
        <pt x="139" y="541" on="0"/>
        <pt x="120" y="524" on="0"/>
        <pt x="108" y="524" on="1"/>
        <pt x="95" y="524" on="0"/>
        <pt x="78" y="541" on="0"/>
      </contour>
      <contour>
        <pt x="405" y="292" on="1"/>
        <pt x="405" y="304" on="0"/>
        <pt x="424" y="322" on="0"/>
        <pt x="436" y="322" on="1"/>
        <pt x="449" y="322" on="0"/>
        <pt x="466" y="304" on="0"/>
        <pt x="466" y="292" on="1"/>
        <pt x="466" y="279" on="0"/>
        <pt x="449" y="262" on="0"/>
        <pt x="436" y="262" on="1"/>
        <pt x="424" y="262" on="0"/>
        <pt x="405" y="279" on="0"/>
      </contour>
      <contour>
        <pt x="78" y="423" on="1"/>
        <pt x="78" y="436" on="0"/>
        <pt x="95" y="453" on="0"/>
        <pt x="108" y="453" on="1"/>
        <pt x="120" y="453" on="0"/>
        <pt x="139" y="436" on="0"/>
        <pt x="139" y="423" on="1"/>
        <pt x="139" y="410" on="0"/>
        <pt x="120" y="394" on="0"/>
        <pt x="108" y="394" on="1"/>
        <pt x="95" y="394" on="0"/>
        <pt x="78" y="410" on="0"/>
      </contour>
      <contour>
        <pt x="208" y="423" on="1"/>
        <pt x="208" y="436" on="0"/>
        <pt x="227" y="453" on="0"/>
        <pt x="239" y="453" on="1"/>
        <pt x="252" y="453" on="0"/>
        <pt x="269" y="436" on="0"/>
        <pt x="269" y="423" on="1"/>
        <pt x="269" y="410" on="0"/>
        <pt x="252" y="394" on="0"/>
        <pt x="239" y="394" on="1"/>
        <pt x="227" y="394" on="0"/>
        <pt x="208" y="410" on="0"/>
      </contour>
      <contour>
        <pt x="208" y="227" on="1"/>
        <pt x="208" y="239" on="0"/>
        <pt x="227" y="256" on="0"/>
        <pt x="239" y="256" on="1"/>
        <pt x="252" y="256" on="0"/>
        <pt x="269" y="239" on="0"/>
        <pt x="269" y="227" on="1"/>
        <pt x="269" y="214" on="0"/>
        <pt x="252" y="197" on="0"/>
        <pt x="239" y="197" on="1"/>
        <pt x="227" y="197" on="0"/>
        <pt x="208" y="214" on="0"/>
      </contour>
      <contour>
        <pt x="405" y="227" on="1"/>
        <pt x="405" y="239" on="0"/>
        <pt x="424" y="256" on="0"/>
        <pt x="436" y="256" on="1"/>
        <pt x="449" y="256" on="0"/>
        <pt x="466" y="239" on="0"/>
        <pt x="466" y="227" on="1"/>
        <pt x="466" y="214" on="0"/>
        <pt x="449" y="197" on="0"/>
        <pt x="436" y="197" on="1"/>
        <pt x="424" y="197" on="0"/>
        <pt x="405" y="214" on="0"/>
      </contour>
      <contour>
        <pt x="78" y="227" on="1"/>
        <pt x="78" y="239" on="0"/>
        <pt x="95" y="256" on="0"/>
        <pt x="108" y="256" on="1"/>
        <pt x="120" y="256" on="0"/>
        <pt x="139" y="239" on="0"/>
        <pt x="139" y="227" on="1"/>
        <pt x="139" y="214" on="0"/>
        <pt x="120" y="197" on="0"/>
        <pt x="108" y="197" on="1"/>
        <pt x="95" y="197" on="0"/>
        <pt x="78" y="214" on="0"/>
      </contour>
      <contour>
        <pt x="275" y="227" on="1"/>
        <pt x="275" y="239" on="0"/>
        <pt x="292" y="256" on="0"/>
        <pt x="305" y="256" on="1"/>
        <pt x="317" y="256" on="0"/>
        <pt x="336" y="239" on="0"/>
        <pt x="336" y="227" on="1"/>
        <pt x="336" y="214" on="0"/>
        <pt x="317" y="197" on="0"/>
        <pt x="305" y="197" on="1"/>
        <pt x="292" y="197" on="0"/>
        <pt x="275" y="214" on="0"/>
      </contour>
      <contour>
        <pt x="340" y="227" on="1"/>
        <pt x="340" y="239" on="0"/>
        <pt x="357" y="256" on="0"/>
        <pt x="371" y="256" on="1"/>
        <pt x="382" y="256" on="0"/>
        <pt x="401" y="239" on="0"/>
        <pt x="401" y="227" on="1"/>
        <pt x="401" y="214" on="0"/>
        <pt x="382" y="197" on="0"/>
        <pt x="371" y="197" on="1"/>
        <pt x="357" y="197" on="0"/>
        <pt x="340" y="214" on="0"/>
      </contour>
    </TTGlyph>
    <TTGlyph name="approxequal" xMin="57" yMin="48" xMax="509" yMax="456">
      <contour>
        <pt x="360" y="285" on="1"/>
        <pt x="336" y="285" on="0"/>
        <pt x="293" y="300" on="0"/>
        <pt x="253" y="319" on="0"/>
        <pt x="216" y="334" on="0"/>
        <pt x="199" y="334" on="1"/>
        <pt x="180" y="334" on="0"/>
        <pt x="153" y="310" on="0"/>
        <pt x="141" y="285" on="1"/>
        <pt x="57" y="314" on="1"/>
        <pt x="61" y="344" on="0"/>
        <pt x="88" y="395" on="0"/>
        <pt x="127" y="434" on="0"/>
        <pt x="177" y="456" on="0"/>
        <pt x="205" y="456" on="1"/>
        <pt x="230" y="456" on="0"/>
        <pt x="276" y="441" on="0"/>
        <pt x="317" y="423" on="0"/>
        <pt x="353" y="408" on="0"/>
        <pt x="368" y="408" on="1"/>
        <pt x="401" y="408" on="0"/>
        <pt x="425" y="456" on="1"/>
        <pt x="509" y="428" on="1"/>
        <pt x="504" y="398" on="0"/>
        <pt x="478" y="346" on="0"/>
        <pt x="439" y="307" on="0"/>
        <pt x="388" y="285" on="0"/>
      </contour>
      <contour>
        <pt x="360" y="48" on="1"/>
        <pt x="336" y="48" on="0"/>
        <pt x="293" y="63" on="0"/>
        <pt x="253" y="82" on="0"/>
        <pt x="216" y="97" on="0"/>
        <pt x="199" y="97" on="1"/>
        <pt x="180" y="97" on="0"/>
        <pt x="153" y="73" on="0"/>
        <pt x="141" y="48" on="1"/>
        <pt x="57" y="77" on="1"/>
        <pt x="61" y="107" on="0"/>
        <pt x="88" y="158" on="0"/>
        <pt x="127" y="197" on="0"/>
        <pt x="177" y="219" on="0"/>
        <pt x="205" y="219" on="1"/>
        <pt x="230" y="219" on="0"/>
        <pt x="276" y="204" on="0"/>
        <pt x="317" y="186" on="0"/>
        <pt x="353" y="171" on="0"/>
        <pt x="368" y="171" on="1"/>
        <pt x="401" y="171" on="0"/>
        <pt x="425" y="219" on="1"/>
        <pt x="509" y="191" on="1"/>
        <pt x="504" y="161" on="0"/>
        <pt x="478" y="109" on="0"/>
        <pt x="439" y="70" on="0"/>
        <pt x="388" y="48" on="0"/>
      </contour>
    </TTGlyph>
    <TTGlyph name="aring" xMin="24" yMin="-8" xMax="542" yMax="809">
      <component glyphName="a" x="0" y="0" flags="0x204"/>
      <component glyphName="ring" x="63" y="0" flags="0x4"/>
    </TTGlyph>
    <TTGlyph name="aringacute" xMin="24" yMin="-8" xMax="542" yMax="999">
      <component glyphName="a" x="0" y="0" flags="0x204"/>
      <component glyphName="ring" x="63" y="-28" flags="0x4"/>
      <component glyphName="acute" x="66" y="242" flags="0x4"/>
    </TTGlyph>
    <TTGlyph name="arrowdown" xMin="148" yMin="-100" xMax="647" yMax="587">
      <contour>
        <pt x="351" y="-89" on="1"/>
        <pt x="148" y="114" on="1"/>
        <pt x="210" y="176" on="1"/>
        <pt x="334" y="72" on="1"/>
        <pt x="334" y="587" on="1"/>
        <pt x="456" y="587" on="1"/>
        <pt x="456" y="70" on="1"/>
        <pt x="585" y="176" on="1"/>
        <pt x="647" y="115" on="1"/>
        <pt x="433" y="-100" on="1"/>
        <pt x="377" y="-100" on="1"/>
        <pt x="369" y="-100" on="0"/>
        <pt x="358" y="-96" on="0"/>
      </contour>
    </TTGlyph>
    <TTGlyph name="arrowdown.cap" xMin="148" yMin="-14" xMax="647" yMax="673">
      <contour>
        <pt x="351" y="-3" on="1"/>
        <pt x="148" y="200" on="1"/>
        <pt x="210" y="262" on="1"/>
        <pt x="334" y="158" on="1"/>
        <pt x="334" y="673" on="1"/>
        <pt x="456" y="673" on="1"/>
        <pt x="456" y="156" on="1"/>
        <pt x="585" y="262" on="1"/>
        <pt x="647" y="201" on="1"/>
        <pt x="433" y="-14" on="1"/>
        <pt x="377" y="-14" on="1"/>
        <pt x="369" y="-14" on="0"/>
        <pt x="358" y="-10" on="0"/>
      </contour>
    </TTGlyph>
    <TTGlyph name="arrowleft" xMin="54" yMin="-8" xMax="740" yMax="491">
      <contour>
        <pt x="268" y="491" on="1"/>
        <pt x="330" y="429" on="1"/>
        <pt x="226" y="302" on="1"/>
        <pt x="740" y="302" on="1"/>
        <pt x="740" y="185" on="1"/>
        <pt x="223" y="185" on="1"/>
        <pt x="330" y="54" on="1"/>
        <pt x="268" y="-8" on="1"/>
        <pt x="54" y="206" on="1"/>
        <pt x="54" y="262" on="1"/>
        <pt x="54" y="271" on="0"/>
        <pt x="58" y="281" on="0"/>
        <pt x="65" y="288" on="1"/>
      </contour>
    </TTGlyph>
    <TTGlyph name="arrowleft.cap" xMin="54" yMin="78" xMax="740" yMax="577">
      <contour>
        <pt x="268" y="577" on="1"/>
        <pt x="330" y="515" on="1"/>
        <pt x="226" y="388" on="1"/>
        <pt x="740" y="388" on="1"/>
        <pt x="740" y="271" on="1"/>
        <pt x="223" y="271" on="1"/>
        <pt x="330" y="140" on="1"/>
        <pt x="268" y="78" on="1"/>
        <pt x="54" y="292" on="1"/>
        <pt x="54" y="348" on="1"/>
        <pt x="54" y="357" on="0"/>
        <pt x="58" y="367" on="0"/>
        <pt x="65" y="374" on="1"/>
      </contour>
    </TTGlyph>
    <TTGlyph name="arrowright" xMin="54" yMin="-4" xMax="740" yMax="495">
      <contour>
        <pt x="729" y="199" on="1"/>
        <pt x="526" y="-4" on="1"/>
        <pt x="464" y="58" on="1"/>
        <pt x="568" y="185" on="1"/>
        <pt x="54" y="185" on="1"/>
        <pt x="54" y="302" on="1"/>
        <pt x="571" y="302" on="1"/>
        <pt x="464" y="433" on="1"/>
        <pt x="526" y="495" on="1"/>
        <pt x="740" y="281" on="1"/>
        <pt x="740" y="225" on="1"/>
        <pt x="740" y="216" on="0"/>
        <pt x="736" y="206" on="0"/>
      </contour>
    </TTGlyph>
    <TTGlyph name="arrowright.cap" xMin="54" yMin="82" xMax="740" yMax="581">
      <contour>
        <pt x="729" y="285" on="1"/>
        <pt x="526" y="82" on="1"/>
        <pt x="464" y="144" on="1"/>
        <pt x="568" y="271" on="1"/>
        <pt x="54" y="271" on="1"/>
        <pt x="54" y="388" on="1"/>
        <pt x="571" y="388" on="1"/>
        <pt x="464" y="519" on="1"/>
        <pt x="526" y="581" on="1"/>
        <pt x="740" y="367" on="1"/>
        <pt x="740" y="311" on="1"/>
        <pt x="740" y="302" on="0"/>
        <pt x="736" y="292" on="0"/>
      </contour>
    </TTGlyph>
    <TTGlyph name="arrowup" xMin="148" yMin="-100" xMax="647" yMax="587">
      <contour>
        <pt x="443" y="576" on="1"/>
        <pt x="647" y="373" on="1"/>
        <pt x="585" y="311" on="1"/>
        <pt x="461" y="415" on="1"/>
        <pt x="461" y="-100" on="1"/>
        <pt x="338" y="-100" on="1"/>
        <pt x="338" y="418" on="1"/>
        <pt x="210" y="311" on="1"/>
        <pt x="148" y="372" on="1"/>
        <pt x="362" y="587" on="1"/>
        <pt x="418" y="587" on="1"/>
        <pt x="427" y="587" on="0"/>
        <pt x="436" y="583" on="0"/>
      </contour>
    </TTGlyph>
    <TTGlyph name="arrowup.cap" xMin="148" yMin="-14" xMax="647" yMax="673">
      <contour>
        <pt x="443" y="662" on="1"/>
        <pt x="647" y="459" on="1"/>
        <pt x="585" y="397" on="1"/>
        <pt x="461" y="501" on="1"/>
        <pt x="461" y="-14" on="1"/>
        <pt x="338" y="-14" on="1"/>
        <pt x="338" y="504" on="1"/>
        <pt x="210" y="397" on="1"/>
        <pt x="148" y="458" on="1"/>
        <pt x="362" y="673" on="1"/>
        <pt x="418" y="673" on="1"/>
        <pt x="427" y="673" on="0"/>
        <pt x="436" y="669" on="0"/>
      </contour>
    </TTGlyph>
    <TTGlyph name="asciicircum" xMin="54" yMin="372" xMax="512" yMax="673">
      <contour>
        <pt x="512" y="443" on="1"/>
        <pt x="406" y="372" on="1"/>
        <pt x="284" y="527" on="1"/>
        <pt x="282" y="527" on="1"/>
        <pt x="160" y="372" on="1"/>
        <pt x="54" y="443" on="1"/>
        <pt x="233" y="673" on="1"/>
        <pt x="333" y="673" on="1"/>
      </contour>
    </TTGlyph>
    <TTGlyph name="asciitilde" xMin="57" yMin="278" xMax="509" yMax="449">
      <contour>
        <pt x="360" y="278" on="1"/>
        <pt x="336" y="278" on="0"/>
        <pt x="293" y="293" on="0"/>
        <pt x="253" y="312" on="0"/>
        <pt x="216" y="327" on="0"/>
        <pt x="199" y="327" on="1"/>
        <pt x="180" y="327" on="0"/>
        <pt x="153" y="303" on="0"/>
        <pt x="141" y="278" on="1"/>
        <pt x="57" y="307" on="1"/>
        <pt x="61" y="337" on="0"/>
        <pt x="88" y="388" on="0"/>
        <pt x="127" y="427" on="0"/>
        <pt x="177" y="449" on="0"/>
        <pt x="205" y="449" on="1"/>
        <pt x="230" y="449" on="0"/>
        <pt x="276" y="434" on="0"/>
        <pt x="317" y="416" on="0"/>
        <pt x="353" y="401" on="0"/>
        <pt x="368" y="401" on="1"/>
        <pt x="401" y="401" on="0"/>
        <pt x="425" y="449" on="1"/>
        <pt x="509" y="421" on="1"/>
        <pt x="504" y="391" on="0"/>
        <pt x="478" y="339" on="0"/>
        <pt x="439" y="300" on="0"/>
        <pt x="388" y="278" on="0"/>
      </contour>
    </TTGlyph>
    <TTGlyph name="asterisk" xMin="38" yMin="270" xMax="444" yMax="663">
      <contour>
        <pt x="333" y="281" on="1"/>
        <pt x="319" y="271" on="0"/>
        <pt x="309" y="286" on="1"/>
        <pt x="241" y="412" on="1"/>
        <pt x="164" y="270" on="1"/>
        <pt x="78" y="328" on="1"/>
        <pt x="62" y="340" on="0"/>
        <pt x="80" y="356" on="1"/>
        <pt x="187" y="458" on="1"/>
        <pt x="38" y="483" on="1"/>
        <pt x="72" y="566" on="1"/>
        <pt x="77" y="577" on="0"/>
        <pt x="88" y="582" on="0"/>
        <pt x="99" y="576" on="1"/>
        <pt x="206" y="513" on="1"/>
        <pt x="178" y="663" on="1"/>
        <pt x="285" y="663" on="1"/>
        <pt x="303" y="663" on="0"/>
        <pt x="300" y="646" on="1"/>
        <pt x="275" y="514" on="1"/>
        <pt x="402" y="586" on="1"/>
        <pt x="437" y="500" on="1"/>
        <pt x="444" y="482" on="0"/>
        <pt x="422" y="479" on="1"/>
        <pt x="295" y="458" on="1"/>
        <pt x="420" y="339" on="1"/>
      </contour>
    </TTGlyph>
    <TTGlyph name="at" xMin="38" yMin="-99" xMax="730" yMax="584">
      <contour>
        <pt x="431" y="290" on="1"/>
        <pt x="431" y="307" on="0"/>
        <pt x="410" y="326" on="0"/>
        <pt x="384" y="326" on="1"/>
        <pt x="364" y="326" on="0"/>
        <pt x="327" y="317" on="1"/>
        <pt x="284" y="306" on="1"/>
        <pt x="259" y="357" on="1"/>
        <pt x="288" y="380" on="0"/>
        <pt x="361" y="409" on="0"/>
        <pt x="397" y="409" on="1"/>
        <pt x="458" y="409" on="0"/>
        <pt x="531" y="348" on="0"/>
        <pt x="531" y="280" on="1"/>
        <pt x="531" y="195" on="1"/>
        <pt x="531" y="178" on="0"/>
        <pt x="545" y="156" on="0"/>
        <pt x="566" y="156" on="1"/>
        <pt x="576" y="156" on="0"/>
        <pt x="598" y="166" on="0"/>
        <pt x="616" y="191" on="0"/>
        <pt x="628" y="234" on="0"/>
        <pt x="628" y="267" on="1"/>
        <pt x="628" y="310" on="0"/>
        <pt x="596" y="389" on="0"/>
        <pt x="536" y="449" on="0"/>
        <pt x="450" y="484" on="0"/>
        <pt x="395" y="484" on="1"/>
        <pt x="343" y="484" on="0"/>
        <pt x="254" y="453" on="0"/>
        <pt x="189" y="393" on="0"/>
        <pt x="152" y="306" on="0"/>
        <pt x="152" y="251" on="1"/>
        <pt x="152" y="194" on="0"/>
        <pt x="187" y="101" on="0"/>
        <pt x="253" y="36" on="0"/>
        <pt x="349" y="1" on="0"/>
        <pt x="410" y="1" on="1"/>
        <pt x="447" y="1" on="0"/>
        <pt x="525" y="15" on="0"/>
        <pt x="567" y="28" on="1"/>
        <pt x="669" y="58" on="1"/>
        <pt x="699" y="-4" on="1"/>
        <pt x="675" y="-24" on="0"/>
        <pt x="608" y="-59" on="0"/>
        <pt x="528" y="-84" on="0"/>
        <pt x="439" y="-99" on="0"/>
        <pt x="395" y="-99" on="1"/>
        <pt x="315" y="-99" on="0"/>
        <pt x="184" y="-46" on="0"/>
        <pt x="90" y="46" on="0"/>
        <pt x="38" y="171" on="0"/>
        <pt x="38" y="244" on="1"/>
        <pt x="38" y="322" on="0"/>
        <pt x="95" y="448" on="0"/>
        <pt x="193" y="537" on="0"/>
        <pt x="322" y="584" on="0"/>
        <pt x="393" y="584" on="1"/>
        <pt x="467" y="584" on="0"/>
        <pt x="591" y="534" on="0"/>
        <pt x="680" y="450" on="0"/>
        <pt x="730" y="339" on="0"/>
        <pt x="730" y="278" on="1"/>
        <pt x="730" y="227" on="0"/>
        <pt x="700" y="151" on="0"/>
        <pt x="650" y="102" on="0"/>
        <pt x="585" y="77" on="0"/>
        <pt x="550" y="77" on="1"/>
        <pt x="517" y="77" on="0"/>
        <pt x="469" y="99" on="0"/>
        <pt x="456" y="115" on="1"/>
        <pt x="433" y="100" on="0"/>
        <pt x="385" y="83" on="0"/>
        <pt x="358" y="83" on="1"/>
        <pt x="305" y="83" on="0"/>
        <pt x="242" y="145" on="0"/>
        <pt x="242" y="189" on="1"/>
        <pt x="242" y="236" on="0"/>
        <pt x="305" y="279" on="0"/>
        <pt x="351" y="279" on="1"/>
        <pt x="371" y="279" on="0"/>
        <pt x="414" y="272" on="0"/>
        <pt x="431" y="266" on="1"/>
      </contour>
      <contour>
        <pt x="425" y="170" on="1"/>
        <pt x="430" y="172" on="0"/>
        <pt x="431" y="176" on="0"/>
        <pt x="431" y="179" on="1"/>
        <pt x="431" y="207" on="1"/>
        <pt x="431" y="211" on="0"/>
        <pt x="427" y="211" on="1"/>
        <pt x="353" y="211" on="1"/>
        <pt x="336" y="211" on="0"/>
        <pt x="336" y="193" on="1"/>
        <pt x="336" y="179" on="0"/>
        <pt x="356" y="160" on="0"/>
        <pt x="377" y="160" on="1"/>
        <pt x="389" y="160" on="0"/>
        <pt x="417" y="166" on="0"/>
      </contour>
    </TTGlyph>
    <TTGlyph name="at.cap" xMin="38" yMin="-10" xMax="730" yMax="673">
      <contour>
        <pt x="431" y="379" on="1"/>
        <pt x="431" y="396" on="0"/>
        <pt x="410" y="415" on="0"/>
        <pt x="384" y="415" on="1"/>
        <pt x="364" y="415" on="0"/>
        <pt x="327" y="406" on="1"/>
        <pt x="284" y="395" on="1"/>
        <pt x="259" y="446" on="1"/>
        <pt x="288" y="469" on="0"/>
        <pt x="361" y="498" on="0"/>
        <pt x="397" y="498" on="1"/>
        <pt x="458" y="498" on="0"/>
        <pt x="531" y="437" on="0"/>
        <pt x="531" y="369" on="1"/>
        <pt x="531" y="284" on="1"/>
        <pt x="531" y="267" on="0"/>
        <pt x="545" y="245" on="0"/>
        <pt x="566" y="245" on="1"/>
        <pt x="576" y="245" on="0"/>
        <pt x="598" y="255" on="0"/>
        <pt x="616" y="280" on="0"/>
        <pt x="628" y="323" on="0"/>
        <pt x="628" y="356" on="1"/>
        <pt x="628" y="399" on="0"/>
        <pt x="596" y="478" on="0"/>
        <pt x="536" y="538" on="0"/>
        <pt x="450" y="573" on="0"/>
        <pt x="395" y="573" on="1"/>
        <pt x="343" y="573" on="0"/>
        <pt x="254" y="542" on="0"/>
        <pt x="189" y="482" on="0"/>
        <pt x="152" y="395" on="0"/>
        <pt x="152" y="340" on="1"/>
        <pt x="152" y="283" on="0"/>
        <pt x="187" y="190" on="0"/>
        <pt x="253" y="125" on="0"/>
        <pt x="349" y="90" on="0"/>
        <pt x="410" y="90" on="1"/>
        <pt x="447" y="90" on="0"/>
        <pt x="525" y="104" on="0"/>
        <pt x="567" y="117" on="1"/>
        <pt x="669" y="147" on="1"/>
        <pt x="699" y="85" on="1"/>
        <pt x="675" y="65" on="0"/>
        <pt x="608" y="30" on="0"/>
        <pt x="528" y="5" on="0"/>
        <pt x="439" y="-10" on="0"/>
        <pt x="395" y="-10" on="1"/>
        <pt x="315" y="-10" on="0"/>
        <pt x="184" y="43" on="0"/>
        <pt x="90" y="135" on="0"/>
        <pt x="38" y="260" on="0"/>
        <pt x="38" y="333" on="1"/>
        <pt x="38" y="411" on="0"/>
        <pt x="95" y="537" on="0"/>
        <pt x="193" y="626" on="0"/>
        <pt x="322" y="673" on="0"/>
        <pt x="393" y="673" on="1"/>
        <pt x="467" y="673" on="0"/>
        <pt x="591" y="623" on="0"/>
        <pt x="680" y="539" on="0"/>
        <pt x="730" y="428" on="0"/>
        <pt x="730" y="367" on="1"/>
        <pt x="730" y="316" on="0"/>
        <pt x="700" y="240" on="0"/>
        <pt x="650" y="191" on="0"/>
        <pt x="585" y="166" on="0"/>
        <pt x="550" y="166" on="1"/>
        <pt x="517" y="166" on="0"/>
        <pt x="469" y="188" on="0"/>
        <pt x="456" y="204" on="1"/>
        <pt x="433" y="189" on="0"/>
        <pt x="385" y="172" on="0"/>
        <pt x="358" y="172" on="1"/>
        <pt x="305" y="172" on="0"/>
        <pt x="242" y="234" on="0"/>
        <pt x="242" y="278" on="1"/>
        <pt x="242" y="325" on="0"/>
        <pt x="305" y="368" on="0"/>
        <pt x="351" y="368" on="1"/>
        <pt x="371" y="368" on="0"/>
        <pt x="414" y="361" on="0"/>
        <pt x="431" y="355" on="1"/>
      </contour>
      <contour>
        <pt x="425" y="259" on="1"/>
        <pt x="430" y="261" on="0"/>
        <pt x="431" y="265" on="0"/>
        <pt x="431" y="268" on="1"/>
        <pt x="431" y="296" on="1"/>
        <pt x="431" y="300" on="0"/>
        <pt x="427" y="300" on="1"/>
        <pt x="353" y="300" on="1"/>
        <pt x="336" y="300" on="0"/>
        <pt x="336" y="282" on="1"/>
        <pt x="336" y="268" on="0"/>
        <pt x="356" y="249" on="0"/>
        <pt x="377" y="249" on="1"/>
        <pt x="389" y="249" on="0"/>
        <pt x="417" y="255" on="0"/>
      </contour>
    </TTGlyph>
    <TTGlyph name="atilde" xMin="24" yMin="-8" xMax="542" yMax="716">
      <component glyphName="a" x="0" y="0" flags="0x204"/>
      <component glyphName="tilde" x="63" y="0" flags="0x4"/>
    </TTGlyph>
    <TTGlyph name="b" xMin="55" yMin="-8" xMax="548" yMax="709">
      <contour>
        <pt x="201" y="451" on="1"/>
        <pt x="224" y="463" on="1"/>
        <pt x="254" y="479" on="0"/>
        <pt x="311" y="496" on="0"/>
        <pt x="338" y="496" on="1"/>
        <pt x="382" y="496" on="0"/>
        <pt x="459" y="460" on="0"/>
        <pt x="516" y="394" on="0"/>
        <pt x="548" y="301" on="0"/>
        <pt x="548" y="244" on="1"/>
        <pt x="548" y="187" on="0"/>
        <pt x="516" y="94" on="0"/>
        <pt x="460" y="28" on="0"/>
        <pt x="383" y="-8" on="0"/>
        <pt x="338" y="-8" on="1"/>
        <pt x="308" y="-8" on="0"/>
        <pt x="254" y="10" on="0"/>
        <pt x="225" y="25" on="1"/>
        <pt x="184" y="46" on="1"/>
        <pt x="166" y="0" on="1"/>
        <pt x="55" y="0" on="1"/>
        <pt x="55" y="709" on="1"/>
        <pt x="201" y="709" on="1"/>
      </contour>
      <contour>
        <pt x="201" y="160" on="1"/>
        <pt x="201" y="147" on="0"/>
        <pt x="210" y="143" on="1"/>
        <pt x="227" y="136" on="0"/>
        <pt x="276" y="125" on="0"/>
        <pt x="299" y="125" on="1"/>
        <pt x="349" y="125" on="0"/>
        <pt x="400" y="176" on="0"/>
        <pt x="400" y="244" on="1"/>
        <pt x="400" y="309" on="0"/>
        <pt x="349" y="361" on="0"/>
        <pt x="299" y="361" on="1"/>
        <pt x="273" y="361" on="0"/>
        <pt x="227" y="351" on="0"/>
        <pt x="210" y="344" on="1"/>
        <pt x="201" y="340" on="0"/>
        <pt x="201" y="327" on="1"/>
      </contour>
    </TTGlyph>
    <TTGlyph name="backslash" xMin="0" yMin="0" xMax="488" yMax="663">
      <contour>
        <pt x="335" y="0" on="1"/>
        <pt x="0" y="663" on="1"/>
        <pt x="153" y="663" on="1"/>
        <pt x="488" y="0" on="1"/>
      </contour>
    </TTGlyph>
    <TTGlyph name="bar" xMin="73" yMin="-229" xMax="211" yMax="709">
      <contour>
        <pt x="73" y="709" on="1"/>
        <pt x="211" y="709" on="1"/>
        <pt x="211" y="-229" on="1"/>
        <pt x="73" y="-229" on="1"/>
      </contour>
    </TTGlyph>
    <TTGlyph name="braceleft" xMin="40" yMin="-241" xMax="385" yMax="673">
      <contour>
        <pt x="40" y="264" on="1"/>
        <pt x="69" y="275" on="0"/>
        <pt x="109" y="295" on="0"/>
        <pt x="133" y="316" on="0"/>
        <pt x="143" y="341" on="0"/>
        <pt x="143" y="358" on="1"/>
        <pt x="143" y="374" on="0"/>
        <pt x="136" y="422" on="0"/>
        <pt x="127" y="474" on="0"/>
        <pt x="120" y="525" on="0"/>
        <pt x="120" y="546" on="1"/>
        <pt x="120" y="580" on="0"/>
        <pt x="143" y="628" on="0"/>
        <pt x="184" y="659" on="0"/>
        <pt x="239" y="673" on="0"/>
        <pt x="271" y="673" on="1"/>
        <pt x="300" y="673" on="0"/>
        <pt x="360" y="663" on="0"/>
        <pt x="385" y="656" on="1"/>
        <pt x="385" y="566" on="1"/>
        <pt x="284" y="543" on="1"/>
        <pt x="273" y="541" on="0"/>
        <pt x="267" y="532" on="0"/>
        <pt x="267" y="523" on="1"/>
        <pt x="267" y="514" on="0"/>
        <pt x="274" y="475" on="0"/>
        <pt x="281" y="428" on="0"/>
        <pt x="288" y="378" on="0"/>
        <pt x="288" y="357" on="1"/>
        <pt x="288" y="333" on="0"/>
        <pt x="275" y="294" on="0"/>
        <pt x="245" y="260" on="0"/>
        <pt x="193" y="230" on="0"/>
        <pt x="154" y="216" on="1"/>
        <pt x="193" y="202" on="0"/>
        <pt x="245" y="172" on="0"/>
        <pt x="275" y="138" on="0"/>
        <pt x="288" y="99" on="0"/>
        <pt x="288" y="75" on="1"/>
        <pt x="288" y="54" on="0"/>
        <pt x="281" y="4" on="0"/>
        <pt x="274" y="-43" on="0"/>
        <pt x="267" y="-82" on="0"/>
        <pt x="267" y="-91" on="1"/>
        <pt x="267" y="-100" on="0"/>
        <pt x="273" y="-109" on="0"/>
        <pt x="284" y="-111" on="1"/>
        <pt x="385" y="-134" on="1"/>
        <pt x="385" y="-224" on="1"/>
        <pt x="360" y="-231" on="0"/>
        <pt x="300" y="-241" on="0"/>
        <pt x="271" y="-241" on="1"/>
        <pt x="239" y="-241" on="0"/>
        <pt x="184" y="-227" on="0"/>
        <pt x="143" y="-196" on="0"/>
        <pt x="120" y="-148" on="0"/>
        <pt x="120" y="-114" on="1"/>
        <pt x="120" y="-93" on="0"/>
        <pt x="127" y="-42" on="0"/>
        <pt x="136" y="10" on="0"/>
        <pt x="143" y="57" on="0"/>
        <pt x="143" y="74" on="1"/>
        <pt x="143" y="90" on="0"/>
        <pt x="133" y="116" on="0"/>
        <pt x="109" y="137" on="0"/>
        <pt x="69" y="157" on="0"/>
        <pt x="40" y="168" on="1"/>
      </contour>
    </TTGlyph>
    <TTGlyph name="braceleft.cap" xMin="40" yMin="-126" xMax="385" yMax="788">
      <component glyphName="braceleft" x="0" y="115" flags="0x204"/>
    </TTGlyph>
    <TTGlyph name="braceright" xMin="12" yMin="-241" xMax="357" yMax="673">
      <contour>
        <pt x="357" y="168" on="1"/>
        <pt x="328" y="157" on="0"/>
        <pt x="288" y="137" on="0"/>
        <pt x="264" y="116" on="0"/>
        <pt x="254" y="90" on="0"/>
        <pt x="254" y="74" on="1"/>
        <pt x="254" y="57" on="0"/>
        <pt x="261" y="10" on="0"/>
        <pt x="270" y="-42" on="0"/>
        <pt x="277" y="-93" on="0"/>
        <pt x="277" y="-114" on="1"/>
        <pt x="277" y="-148" on="0"/>
        <pt x="254" y="-196" on="0"/>
        <pt x="213" y="-227" on="0"/>
        <pt x="158" y="-241" on="0"/>
        <pt x="126" y="-241" on="1"/>
        <pt x="97" y="-241" on="0"/>
        <pt x="37" y="-231" on="0"/>
        <pt x="12" y="-224" on="1"/>
        <pt x="12" y="-134" on="1"/>
        <pt x="113" y="-111" on="1"/>
        <pt x="124" y="-109" on="0"/>
        <pt x="130" y="-100" on="0"/>
        <pt x="130" y="-91" on="1"/>
        <pt x="130" y="-82" on="0"/>
        <pt x="123" y="-43" on="0"/>
        <pt x="116" y="4" on="0"/>
        <pt x="109" y="54" on="0"/>
        <pt x="109" y="75" on="1"/>
        <pt x="109" y="99" on="0"/>
        <pt x="122" y="138" on="0"/>
        <pt x="152" y="172" on="0"/>
        <pt x="204" y="202" on="0"/>
        <pt x="243" y="216" on="1"/>
        <pt x="204" y="230" on="0"/>
        <pt x="152" y="260" on="0"/>
        <pt x="122" y="294" on="0"/>
        <pt x="109" y="333" on="0"/>
        <pt x="109" y="357" on="1"/>
        <pt x="109" y="378" on="0"/>
        <pt x="116" y="428" on="0"/>
        <pt x="123" y="475" on="0"/>
        <pt x="130" y="514" on="0"/>
        <pt x="130" y="523" on="1"/>
        <pt x="130" y="532" on="0"/>
        <pt x="124" y="541" on="0"/>
        <pt x="113" y="543" on="1"/>
        <pt x="12" y="566" on="1"/>
        <pt x="12" y="656" on="1"/>
        <pt x="37" y="663" on="0"/>
        <pt x="97" y="673" on="0"/>
        <pt x="126" y="673" on="1"/>
        <pt x="158" y="673" on="0"/>
        <pt x="213" y="659" on="0"/>
        <pt x="254" y="628" on="0"/>
        <pt x="277" y="580" on="0"/>
        <pt x="277" y="546" on="1"/>
        <pt x="277" y="525" on="0"/>
        <pt x="270" y="474" on="0"/>
        <pt x="261" y="422" on="0"/>
        <pt x="254" y="374" on="0"/>
        <pt x="254" y="358" on="1"/>
        <pt x="254" y="341" on="0"/>
        <pt x="264" y="316" on="0"/>
        <pt x="288" y="295" on="0"/>
        <pt x="328" y="275" on="0"/>
        <pt x="357" y="264" on="1"/>
      </contour>
    </TTGlyph>
    <TTGlyph name="braceright.cap" xMin="12" yMin="-126" xMax="357" yMax="788">
      <component glyphName="braceright" x="0" y="115" flags="0x204"/>
    </TTGlyph>
    <TTGlyph name="bracketleft" xMin="74" yMin="-229" xMax="348" yMax="663">
      <contour>
        <pt x="216" y="-99" on="1"/>
        <pt x="348" y="-99" on="1"/>
        <pt x="348" y="-229" on="1"/>
        <pt x="74" y="-229" on="1"/>
        <pt x="74" y="663" on="1"/>
        <pt x="348" y="663" on="1"/>
        <pt x="348" y="533" on="1"/>
        <pt x="216" y="533" on="1"/>
      </contour>
    </TTGlyph>
    <TTGlyph name="bracketleft.cap" xMin="74" yMin="-115" xMax="348" yMax="777">
      <component glyphName="bracketleft" x="0" y="114" flags="0x204"/>
    </TTGlyph>
    <TTGlyph name="bracketright" xMin="18" yMin="-229" xMax="292" yMax="663">
      <contour>
        <pt x="150" y="533" on="1"/>
        <pt x="18" y="533" on="1"/>
        <pt x="18" y="663" on="1"/>
        <pt x="292" y="663" on="1"/>
        <pt x="292" y="-229" on="1"/>
        <pt x="18" y="-229" on="1"/>
        <pt x="18" y="-99" on="1"/>
        <pt x="150" y="-99" on="1"/>
      </contour>
    </TTGlyph>
    <TTGlyph name="bracketright.cap" xMin="18" yMin="-115" xMax="292" yMax="777">
      <component glyphName="bracketright" x="0" y="114" flags="0x204"/>
    </TTGlyph>
    <TTGlyph name="breve" xMin="39" yMin="557" xMax="385" yMax="726">
      <contour>
        <pt x="212" y="557" on="1"/>
        <pt x="174" y="557" on="0"/>
        <pt x="113" y="580" on="0"/>
        <pt x="70" y="622" on="0"/>
        <pt x="43" y="678" on="0"/>
        <pt x="39" y="711" on="1"/>
        <pt x="131" y="726" on="1"/>
        <pt x="143" y="693" on="0"/>
        <pt x="181" y="659" on="0"/>
        <pt x="212" y="659" on="1"/>
        <pt x="243" y="659" on="0"/>
        <pt x="281" y="693" on="0"/>
        <pt x="293" y="726" on="1"/>
        <pt x="385" y="711" on="1"/>
        <pt x="381" y="678" on="0"/>
        <pt x="354" y="622" on="0"/>
        <pt x="311" y="580" on="0"/>
        <pt x="250" y="557" on="0"/>
      </contour>
    </TTGlyph>
    <TTGlyph name="breve.cap" xMin="39" yMin="731" xMax="385" yMax="900">
      <contour>
        <pt x="212" y="731" on="1"/>
        <pt x="174" y="731" on="0"/>
        <pt x="113" y="754" on="0"/>
        <pt x="70" y="796" on="0"/>
        <pt x="43" y="852" on="0"/>
        <pt x="39" y="885" on="1"/>
        <pt x="131" y="900" on="1"/>
        <pt x="143" y="867" on="0"/>
        <pt x="181" y="833" on="0"/>
        <pt x="212" y="833" on="1"/>
        <pt x="243" y="833" on="0"/>
        <pt x="281" y="867" on="0"/>
        <pt x="293" y="900" on="1"/>
        <pt x="385" y="885" on="1"/>
        <pt x="381" y="852" on="0"/>
        <pt x="354" y="796" on="0"/>
        <pt x="311" y="754" on="0"/>
        <pt x="250" y="731" on="0"/>
      </contour>
    </TTGlyph>
    <TTGlyph name="brokenbar" xMin="73" yMin="-229" xMax="211" yMax="709">
      <contour>
        <pt x="73" y="709" on="1"/>
        <pt x="211" y="709" on="1"/>
        <pt x="211" y="291" on="1"/>
        <pt x="73" y="291" on="1"/>
      </contour>
      <contour>
        <pt x="73" y="189" on="1"/>
        <pt x="211" y="189" on="1"/>
        <pt x="211" y="-229" on="1"/>
        <pt x="73" y="-229" on="1"/>
      </contour>
    </TTGlyph>
    <TTGlyph name="bullet" xMin="62" yMin="167" xMax="307" yMax="400">
      <contour>
        <pt x="307" y="167" on="1"/>
        <pt x="62" y="167" on="1"/>
        <pt x="62" y="400" on="1"/>
        <pt x="263" y="400" on="1"/>
        <pt x="288" y="400" on="0"/>
        <pt x="307" y="382" on="0"/>
        <pt x="307" y="358" on="1"/>
      </contour>
    </TTGlyph>
    <TTGlyph name="bullet.cap" xMin="62" yMin="214" xMax="307" yMax="447">
      <component glyphName="bullet" x="0" y="47" flags="0x204"/>
    </TTGlyph>
    <TTGlyph name="c" xMin="28" yMin="-8" xMax="502" yMax="496">
      <contour>
        <pt x="502" y="90" on="1"/>
        <pt x="482" y="70" on="0"/>
        <pt x="432" y="35" on="0"/>
        <pt x="374" y="8" on="0"/>
        <pt x="308" y="-8" on="0"/>
        <pt x="273" y="-8" on="1"/>
        <pt x="217" y="-8" on="0"/>
        <pt x="127" y="28" on="0"/>
        <pt x="63" y="95" on="0"/>
        <pt x="28" y="189" on="0"/>
        <pt x="28" y="246" on="1"/>
        <pt x="28" y="303" on="0"/>
        <pt x="68" y="396" on="0"/>
        <pt x="134" y="461" on="0"/>
        <pt x="221" y="496" on="0"/>
        <pt x="268" y="496" on="1"/>
        <pt x="312" y="496" on="0"/>
        <pt x="387" y="470" on="0"/>
        <pt x="445" y="424" on="0"/>
        <pt x="485" y="361" on="0"/>
        <pt x="494" y="324" on="1"/>
        <pt x="399" y="278" on="1"/>
        <pt x="356" y="319" on="1"/>
        <pt x="327" y="348" on="0"/>
        <pt x="290" y="368" on="0"/>
        <pt x="265" y="368" on="1"/>
        <pt x="229" y="368" on="0"/>
        <pt x="177" y="308" on="0"/>
        <pt x="177" y="248" on="1"/>
        <pt x="177" y="182" on="0"/>
        <pt x="234" y="120" on="0"/>
        <pt x="290" y="120" on="1"/>
        <pt x="334" y="120" on="0"/>
        <pt x="394" y="144" on="1"/>
        <pt x="456" y="168" on="1"/>
      </contour>
    </TTGlyph>
    <TTGlyph name="cacute" xMin="28" yMin="-8" xMax="502" yMax="757">
      <component glyphName="c" x="0" y="0" flags="0x4"/>
      <component glyphName="acute" x="49" y="0" flags="0x4"/>
    </TTGlyph>
    <TTGlyph name="caron" xMin="28" yMin="547" xMax="394" yMax="744">
      <contour>
        <pt x="211" y="652" on="1"/>
        <pt x="338" y="744" on="1"/>
        <pt x="394" y="690" on="1"/>
        <pt x="266" y="560" on="1"/>
        <pt x="258" y="552" on="0"/>
        <pt x="246" y="547" on="0"/>
        <pt x="235" y="547" on="1"/>
        <pt x="187" y="547" on="1"/>
        <pt x="176" y="547" on="0"/>
        <pt x="164" y="552" on="0"/>
        <pt x="156" y="560" on="1"/>
        <pt x="28" y="690" on="1"/>
        <pt x="84" y="744" on="1"/>
      </contour>
    </TTGlyph>
    <TTGlyph name="caron.cap" xMin="28" yMin="729" xMax="394" yMax="926">
      <contour>
        <pt x="211" y="834" on="1"/>
        <pt x="338" y="926" on="1"/>
        <pt x="394" y="872" on="1"/>
        <pt x="266" y="742" on="1"/>
        <pt x="258" y="734" on="0"/>
        <pt x="246" y="729" on="0"/>
        <pt x="235" y="729" on="1"/>
        <pt x="187" y="729" on="1"/>
        <pt x="176" y="729" on="0"/>
        <pt x="164" y="734" on="0"/>
        <pt x="156" y="742" on="1"/>
        <pt x="28" y="872" on="1"/>
        <pt x="84" y="926" on="1"/>
      </contour>
    </TTGlyph>
    <TTGlyph name="ccaron" xMin="28" yMin="-8" xMax="502" yMax="744">
      <component glyphName="c" x="0" y="0" flags="0x4"/>
      <component glyphName="caron" x="57" y="0" flags="0x4"/>
    </TTGlyph>
    <TTGlyph name="ccedilla" xMin="29" yMin="-244" xMax="502" yMax="496">
      <contour>
        <pt x="187" y="-65" on="1"/>
        <pt x="187" y="-50" on="0"/>
        <pt x="207" y="-18" on="0"/>
        <pt x="223" y="-4" on="1"/>
        <pt x="133" y="11" on="0"/>
        <pt x="29" y="144" on="0"/>
        <pt x="29" y="246" on="1"/>
        <pt x="29" y="303" on="0"/>
        <pt x="68" y="396" on="0"/>
        <pt x="134" y="461" on="0"/>
        <pt x="221" y="496" on="0"/>
        <pt x="268" y="496" on="1"/>
        <pt x="312" y="496" on="0"/>
        <pt x="387" y="470" on="0"/>
        <pt x="445" y="424" on="0"/>
        <pt x="485" y="361" on="0"/>
        <pt x="494" y="324" on="1"/>
        <pt x="399" y="278" on="1"/>
        <pt x="356" y="319" on="1"/>
        <pt x="327" y="348" on="0"/>
        <pt x="290" y="368" on="0"/>
        <pt x="265" y="368" on="1"/>
        <pt x="229" y="368" on="0"/>
        <pt x="177" y="308" on="0"/>
        <pt x="177" y="248" on="1"/>
        <pt x="177" y="182" on="0"/>
        <pt x="234" y="121" on="0"/>
        <pt x="290" y="121" on="1"/>
        <pt x="334" y="121" on="0"/>
        <pt x="394" y="145" on="1"/>
        <pt x="456" y="169" on="1"/>
        <pt x="502" y="91" on="1"/>
        <pt x="467" y="56" on="0"/>
        <pt x="366" y="1" on="0"/>
        <pt x="306" y="-6" on="1"/>
        <pt x="293" y="-23" on="0"/>
        <pt x="293" y="-34" on="1"/>
        <pt x="293" y="-45" on="0"/>
        <pt x="326" y="-56" on="0"/>
        <pt x="367" y="-71" on="0"/>
        <pt x="400" y="-101" on="0"/>
        <pt x="400" y="-132" on="1"/>
        <pt x="400" y="-180" on="0"/>
        <pt x="303" y="-244" on="0"/>
        <pt x="206" y="-244" on="1"/>
        <pt x="191" y="-167" on="1"/>
        <pt x="247" y="-158" on="1"/>
        <pt x="281" y="-152" on="0"/>
        <pt x="281" y="-138" on="1"/>
        <pt x="281" y="-130" on="0"/>
        <pt x="252" y="-120" on="0"/>
        <pt x="216" y="-106" on="0"/>
        <pt x="187" y="-84" on="0"/>
      </contour>
    </TTGlyph>
    <TTGlyph name="ccircumflex" xMin="28" yMin="-8" xMax="502" yMax="741">
      <component glyphName="c" x="0" y="0" flags="0x4"/>
      <component glyphName="circumflex" x="49" y="0" flags="0x4"/>
    </TTGlyph>
    <TTGlyph name="cdotaccent" xMin="28" yMin="-8" xMax="502" yMax="694">
      <component glyphName="c" x="0" y="0" flags="0x4"/>
      <component glyphName="dotaccent" x="49" y="0" flags="0x4"/>
    </TTGlyph>
    <TTGlyph name="cedilla" xMin="105" yMin="-244" xMax="318" yMax="28">
      <contour>
        <pt x="105" y="-65" on="1"/>
        <pt x="105" y="-48" on="0"/>
        <pt x="130" y="-12" on="0"/>
        <pt x="150" y="4" on="1"/>
        <pt x="181" y="28" on="1"/>
        <pt x="235" y="7" on="1"/>
        <pt x="211" y="-20" on="0"/>
        <pt x="211" y="-34" on="1"/>
        <pt x="211" y="-45" on="0"/>
        <pt x="244" y="-56" on="0"/>
        <pt x="285" y="-71" on="0"/>
        <pt x="318" y="-101" on="0"/>
        <pt x="318" y="-132" on="1"/>
        <pt x="318" y="-180" on="0"/>
        <pt x="221" y="-244" on="0"/>
        <pt x="124" y="-244" on="1"/>
        <pt x="109" y="-167" on="1"/>
        <pt x="165" y="-158" on="1"/>
        <pt x="199" y="-152" on="0"/>
        <pt x="199" y="-138" on="1"/>
        <pt x="199" y="-130" on="0"/>
        <pt x="170" y="-120" on="0"/>
        <pt x="134" y="-106" on="0"/>
        <pt x="105" y="-84" on="0"/>
      </contour>
    </TTGlyph>
    <TTGlyph name="cent" xMin="100" yMin="-131" xMax="575" yMax="629">
      <contour>
        <pt x="575" y="91" on="1"/>
        <pt x="544" y="60" on="0"/>
        <pt x="457" y="9" on="0"/>
        <pt x="406" y="-2" on="1"/>
        <pt x="391" y="-131" on="1"/>
        <pt x="302" y="-131" on="1"/>
        <pt x="302" y="-4" on="1"/>
        <pt x="256" y="3" on="0"/>
        <pt x="181" y="44" on="0"/>
        <pt x="129" y="109" on="0"/>
        <pt x="100" y="195" on="0"/>
        <pt x="100" y="246" on="1"/>
        <pt x="100" y="297" on="0"/>
        <pt x="132" y="382" on="0"/>
        <pt x="187" y="446" on="0"/>
        <pt x="261" y="486" on="0"/>
        <pt x="302" y="492" on="1"/>
        <pt x="317" y="629" on="1"/>
        <pt x="406" y="629" on="1"/>
        <pt x="406" y="488" on="1"/>
        <pt x="469" y="471" on="0"/>
        <pt x="552" y="384" on="0"/>
        <pt x="567" y="324" on="1"/>
        <pt x="472" y="278" on="1"/>
        <pt x="429" y="319" on="1"/>
        <pt x="400" y="348" on="0"/>
        <pt x="363" y="368" on="0"/>
        <pt x="338" y="368" on="1"/>
        <pt x="302" y="368" on="0"/>
        <pt x="249" y="308" on="0"/>
        <pt x="249" y="248" on="1"/>
        <pt x="249" y="182" on="0"/>
        <pt x="307" y="121" on="0"/>
        <pt x="363" y="121" on="1"/>
        <pt x="407" y="121" on="0"/>
        <pt x="467" y="145" on="1"/>
        <pt x="529" y="169" on="1"/>
      </contour>
    </TTGlyph>
    <TTGlyph name="cent.lprop" xMin="39" yMin="-131" xMax="514" yMax="629">
      <contour>
        <pt x="514" y="91" on="1"/>
        <pt x="483" y="60" on="0"/>
        <pt x="396" y="9" on="0"/>
        <pt x="345" y="-2" on="1"/>
        <pt x="330" y="-131" on="1"/>
        <pt x="241" y="-131" on="1"/>
        <pt x="241" y="-4" on="1"/>
        <pt x="195" y="3" on="0"/>
        <pt x="120" y="44" on="0"/>
        <pt x="68" y="109" on="0"/>
        <pt x="39" y="195" on="0"/>
        <pt x="39" y="246" on="1"/>
        <pt x="39" y="297" on="0"/>
        <pt x="71" y="382" on="0"/>
        <pt x="126" y="446" on="0"/>
        <pt x="200" y="486" on="0"/>
        <pt x="241" y="493" on="1"/>
        <pt x="256" y="629" on="1"/>
        <pt x="345" y="629" on="1"/>
        <pt x="345" y="488" on="1"/>
        <pt x="408" y="471" on="0"/>
        <pt x="491" y="384" on="0"/>
        <pt x="506" y="324" on="1"/>
        <pt x="411" y="278" on="1"/>
        <pt x="368" y="319" on="1"/>
        <pt x="339" y="348" on="0"/>
        <pt x="302" y="368" on="0"/>
        <pt x="277" y="368" on="1"/>
        <pt x="241" y="368" on="0"/>
        <pt x="188" y="308" on="0"/>
        <pt x="188" y="248" on="1"/>
        <pt x="188" y="182" on="0"/>
        <pt x="246" y="121" on="0"/>
        <pt x="302" y="121" on="1"/>
        <pt x="346" y="121" on="0"/>
        <pt x="406" y="145" on="1"/>
        <pt x="468" y="169" on="1"/>
      </contour>
    </TTGlyph>
    <TTGlyph name="cent.oprop" xMin="65" yMin="-131" xMax="482" yMax="565">
      <component glyphName="cent.otab" x="-48" y="0" flags="0x4"/>
    </TTGlyph>
    <TTGlyph name="cent.otab" xMin="113" yMin="-131" xMax="530" yMax="565">
      <contour>
        <pt x="530" y="77" on="1"/>
        <pt x="501" y="47" on="0"/>
        <pt x="429" y="8" on="0"/>
        <pt x="391" y="-1" on="1"/>
        <pt x="376" y="-131" on="1"/>
        <pt x="283" y="-131" on="1"/>
        <pt x="283" y="-3" on="1"/>
        <pt x="248" y="3" on="0"/>
        <pt x="187" y="37" on="0"/>
        <pt x="140" y="91" on="0"/>
        <pt x="113" y="167" on="0"/>
        <pt x="113" y="217" on="1"/>
        <pt x="113" y="261" on="0"/>
        <pt x="140" y="335" on="0"/>
        <pt x="186" y="390" on="0"/>
        <pt x="248" y="427" on="0"/>
        <pt x="283" y="434" on="1"/>
        <pt x="298" y="565" on="1"/>
        <pt x="391" y="565" on="1"/>
        <pt x="391" y="429" on="1"/>
        <pt x="442" y="413" on="0"/>
        <pt x="510" y="336" on="0"/>
        <pt x="523" y="285" on="1"/>
        <pt x="438" y="243" on="1"/>
        <pt x="395" y="287" on="1"/>
        <pt x="379" y="303" on="0"/>
        <pt x="348" y="318" on="0"/>
        <pt x="328" y="318" on="1"/>
        <pt x="295" y="318" on="0"/>
        <pt x="246" y="271" on="0"/>
        <pt x="246" y="218" on="1"/>
        <pt x="246" y="159" on="0"/>
        <pt x="301" y="114" on="0"/>
        <pt x="345" y="114" on="1"/>
        <pt x="382" y="114" on="0"/>
        <pt x="430" y="131" on="1"/>
        <pt x="485" y="151" on="1"/>
      </contour>
    </TTGlyph>
    <TTGlyph name="circumflex" xMin="28" yMin="544" xMax="394" yMax="741">
      <contour>
        <pt x="84" y="544" on="1"/>
        <pt x="28" y="598" on="1"/>
        <pt x="156" y="728" on="1"/>
        <pt x="164" y="736" on="0"/>
        <pt x="176" y="741" on="0"/>
        <pt x="187" y="741" on="1"/>
        <pt x="235" y="741" on="1"/>
        <pt x="246" y="741" on="0"/>
        <pt x="258" y="736" on="0"/>
        <pt x="266" y="728" on="1"/>
        <pt x="394" y="598" on="1"/>
        <pt x="338" y="544" on="1"/>
        <pt x="211" y="636" on="1"/>
      </contour>
    </TTGlyph>
    <TTGlyph name="circumflex.cap" xMin="28" yMin="718" xMax="394" yMax="915">
      <contour>
        <pt x="84" y="718" on="1"/>
        <pt x="28" y="772" on="1"/>
        <pt x="156" y="902" on="1"/>
        <pt x="164" y="910" on="0"/>
        <pt x="176" y="915" on="0"/>
        <pt x="187" y="915" on="1"/>
        <pt x="235" y="915" on="1"/>
        <pt x="246" y="915" on="0"/>
        <pt x="258" y="910" on="0"/>
        <pt x="266" y="902" on="1"/>
        <pt x="394" y="772" on="1"/>
        <pt x="338" y="718" on="1"/>
        <pt x="211" y="810" on="1"/>
      </contour>
    </TTGlyph>
    <TTGlyph name="colon" xMin="46" yMin="0" xMax="200" yMax="456">
      <contour>
        <pt x="166" y="151" on="1"/>
        <pt x="186" y="151" on="0"/>
        <pt x="200" y="137" on="0"/>
        <pt x="200" y="120" on="1"/>
        <pt x="200" y="0" on="1"/>
        <pt x="46" y="0" on="1"/>
        <pt x="46" y="151" on="1"/>
      </contour>
      <contour>
        <pt x="166" y="456" on="1"/>
        <pt x="186" y="456" on="0"/>
        <pt x="200" y="442" on="0"/>
        <pt x="200" y="425" on="1"/>
        <pt x="200" y="305" on="1"/>
        <pt x="46" y="305" on="1"/>
        <pt x="46" y="456" on="1"/>
      </contour>
    </TTGlyph>
    <TTGlyph name="comma" xMin="20" yMin="-169" xMax="200" yMax="151">
      <contour>
        <pt x="46" y="151" on="1"/>
        <pt x="166" y="151" on="1"/>
        <pt x="186" y="151" on="0"/>
        <pt x="200" y="137" on="0"/>
        <pt x="200" y="120" on="1"/>
        <pt x="200" y="52" on="1"/>
        <pt x="200" y="22" on="0"/>
        <pt x="193" y="-26" on="0"/>
        <pt x="166" y="-74" on="0"/>
        <pt x="115" y="-130" on="0"/>
        <pt x="71" y="-169" on="1"/>
        <pt x="20" y="-131" on="1"/>
        <pt x="89" y="-16" on="1"/>
        <pt x="94" y="-7" on="0"/>
        <pt x="92" y="0" on="0"/>
        <pt x="84" y="5" on="1"/>
        <pt x="68" y="13" on="1"/>
        <pt x="52" y="22" on="0"/>
        <pt x="46" y="36" on="0"/>
        <pt x="46" y="51" on="1"/>
      </contour>
    </TTGlyph>
    <TTGlyph name="commaaccent" xMin="139" yMin="-306" xMax="284" yMax="-58">
      <contour>
        <pt x="243" y="-58" on="1"/>
        <pt x="257" y="-58" on="0"/>
        <pt x="264" y="-68" on="1"/>
        <pt x="274" y="-81" on="0"/>
        <pt x="284" y="-110" on="0"/>
        <pt x="284" y="-122" on="1"/>
        <pt x="284" y="-136" on="0"/>
        <pt x="270" y="-175" on="0"/>
        <pt x="251" y="-212" on="1"/>
        <pt x="203" y="-306" on="1"/>
        <pt x="139" y="-293" on="1"/>
        <pt x="158" y="-58" on="1"/>
      </contour>
    </TTGlyph>
    <TTGlyph name="copyright" xMin="46" yMin="-10" xMax="728" yMax="673">
      <contour>
        <pt x="518" y="253" on="1"/>
        <pt x="494" y="224" on="0"/>
        <pt x="422" y="189" on="0"/>
        <pt x="385" y="189" on="1"/>
        <pt x="355" y="189" on="0"/>
        <pt x="304" y="210" on="0"/>
        <pt x="266" y="249" on="0"/>
        <pt x="245" y="303" on="0"/>
        <pt x="245" y="335" on="1"/>
        <pt x="245" y="367" on="0"/>
        <pt x="267" y="420" on="0"/>
        <pt x="306" y="458" on="0"/>
        <pt x="357" y="479" on="0"/>
        <pt x="387" y="479" on="1"/>
        <pt x="428" y="479" on="0"/>
        <pt x="494" y="433" on="0"/>
        <pt x="511" y="391" on="1"/>
        <pt x="460" y="353" on="1"/>
        <pt x="428" y="381" on="1"/>
        <pt x="416" y="392" on="0"/>
        <pt x="397" y="402" on="0"/>
        <pt x="384" y="402" on="1"/>
        <pt x="361" y="402" on="0"/>
        <pt x="332" y="368" on="0"/>
        <pt x="332" y="334" on="1"/>
        <pt x="332" y="303" on="0"/>
        <pt x="361" y="268" on="0"/>
        <pt x="392" y="268" on="1"/>
        <pt x="415" y="268" on="0"/>
        <pt x="443" y="282" on="1"/>
        <pt x="486" y="303" on="1"/>
      </contour>
      <contour>
        <pt x="728" y="332" on="1"/>
        <pt x="728" y="258" on="0"/>
        <pt x="674" y="132" on="0"/>
        <pt x="581" y="41" on="0"/>
        <pt x="457" y="-10" on="0"/>
        <pt x="387" y="-10" on="1"/>
        <pt x="317" y="-10" on="0"/>
        <pt x="193" y="41" on="0"/>
        <pt x="100" y="132" on="0"/>
        <pt x="46" y="258" on="0"/>
        <pt x="46" y="332" on="1"/>
        <pt x="46" y="406" on="0"/>
        <pt x="100" y="531" on="0"/>
        <pt x="193" y="622" on="0"/>
        <pt x="317" y="673" on="0"/>
        <pt x="387" y="673" on="1"/>
        <pt x="457" y="673" on="0"/>
        <pt x="581" y="622" on="0"/>
        <pt x="674" y="531" on="0"/>
        <pt x="728" y="406" on="0"/>
      </contour>
      <contour>
        <pt x="622" y="332" on="1"/>
        <pt x="622" y="386" on="0"/>
        <pt x="590" y="475" on="0"/>
        <pt x="529" y="538" on="0"/>
        <pt x="442" y="573" on="0"/>
        <pt x="387" y="573" on="1"/>
        <pt x="332" y="573" on="0"/>
        <pt x="244" y="538" on="0"/>
        <pt x="183" y="475" on="0"/>
        <pt x="151" y="386" on="0"/>
        <pt x="151" y="332" on="1"/>
        <pt x="151" y="278" on="0"/>
        <pt x="183" y="188" on="0"/>
        <pt x="244" y="124" on="0"/>
        <pt x="332" y="89" on="0"/>
        <pt x="387" y="89" on="1"/>
        <pt x="442" y="89" on="0"/>
        <pt x="529" y="124" on="0"/>
        <pt x="590" y="188" on="0"/>
        <pt x="622" y="278" on="0"/>
      </contour>
    </TTGlyph>
    <TTGlyph name="currency" xMin="65" yMin="70" xMax="599" yMax="592">
      <contour>
        <pt x="333" y="242" on="1"/>
        <pt x="372" y="242" on="0"/>
        <pt x="414" y="285" on="0"/>
        <pt x="414" y="331" on="1"/>
        <pt x="414" y="377" on="0"/>
        <pt x="372" y="420" on="0"/>
        <pt x="333" y="420" on="1"/>
        <pt x="331" y="420" on="1"/>
        <pt x="292" y="420" on="0"/>
        <pt x="250" y="377" on="0"/>
        <pt x="250" y="331" on="1"/>
        <pt x="250" y="285" on="0"/>
        <pt x="292" y="242" on="0"/>
        <pt x="331" y="242" on="1"/>
      </contour>
      <contour>
        <pt x="331" y="125" on="1"/>
        <pt x="305" y="125" on="0"/>
        <pt x="256" y="136" on="0"/>
        <pt x="233" y="147" on="1"/>
        <pt x="156" y="70" on="1"/>
        <pt x="65" y="161" on="1"/>
        <pt x="141" y="236" on="1"/>
        <pt x="119" y="276" on="0"/>
        <pt x="119" y="331" on="1"/>
        <pt x="119" y="386" on="0"/>
        <pt x="141" y="426" on="1"/>
        <pt x="65" y="501" on="1"/>
        <pt x="156" y="592" on="1"/>
        <pt x="233" y="515" on="1"/>
        <pt x="256" y="526" on="0"/>
        <pt x="305" y="537" on="0"/>
        <pt x="331" y="537" on="1"/>
        <pt x="333" y="537" on="1"/>
        <pt x="359" y="537" on="0"/>
        <pt x="408" y="526" on="0"/>
        <pt x="431" y="515" on="1"/>
        <pt x="508" y="592" on="1"/>
        <pt x="599" y="501" on="1"/>
        <pt x="523" y="426" on="1"/>
        <pt x="545" y="386" on="0"/>
        <pt x="545" y="331" on="1"/>
        <pt x="545" y="276" on="0"/>
        <pt x="523" y="236" on="1"/>
        <pt x="599" y="161" on="1"/>
        <pt x="508" y="70" on="1"/>
        <pt x="431" y="147" on="1"/>
        <pt x="408" y="136" on="0"/>
        <pt x="359" y="125" on="0"/>
        <pt x="333" y="125" on="1"/>
      </contour>
    </TTGlyph>
    <TTGlyph name="d" xMin="30" yMin="-8" xMax="525" yMax="709">
      <contour>
        <pt x="396" y="46" on="1"/>
        <pt x="357" y="25" on="1"/>
        <pt x="328" y="9" on="0"/>
        <pt x="273" y="-8" on="0"/>
        <pt x="243" y="-8" on="1"/>
        <pt x="196" y="-8" on="0"/>
        <pt x="118" y="29" on="0"/>
        <pt x="61" y="95" on="0"/>
        <pt x="30" y="187" on="0"/>
        <pt x="30" y="243" on="1"/>
        <pt x="30" y="300" on="0"/>
        <pt x="64" y="393" on="0"/>
        <pt x="123" y="460" on="0"/>
        <pt x="202" y="496" on="0"/>
        <pt x="247" y="496" on="1"/>
        <pt x="285" y="496" on="0"/>
        <pt x="347" y="472" on="0"/>
        <pt x="379" y="450" on="1"/>
        <pt x="379" y="709" on="1"/>
        <pt x="525" y="709" on="1"/>
        <pt x="525" y="0" on="1"/>
        <pt x="414" y="0" on="1"/>
      </contour>
      <contour>
        <pt x="379" y="327" on="1"/>
        <pt x="379" y="340" on="0"/>
        <pt x="370" y="344" on="1"/>
        <pt x="353" y="351" on="0"/>
        <pt x="307" y="362" on="0"/>
        <pt x="282" y="362" on="1"/>
        <pt x="230" y="362" on="0"/>
        <pt x="178" y="306" on="0"/>
        <pt x="178" y="243" on="1"/>
        <pt x="178" y="181" on="0"/>
        <pt x="228" y="125" on="0"/>
        <pt x="283" y="125" on="1"/>
        <pt x="307" y="125" on="0"/>
        <pt x="353" y="135" on="0"/>
        <pt x="370" y="142" on="1"/>
        <pt x="379" y="146" on="0"/>
        <pt x="379" y="159" on="1"/>
      </contour>
    </TTGlyph>
    <TTGlyph name="dagger" xMin="47" yMin="-229" xMax="547" yMax="663">
      <contour>
        <pt x="547" y="437" on="1"/>
        <pt x="547" y="310" on="1"/>
        <pt x="499" y="310" on="1"/>
        <pt x="480" y="310" on="0"/>
        <pt x="447" y="312" on="0"/>
        <pt x="424" y="315" on="1"/>
        <pt x="355" y="324" on="1"/>
        <pt x="360" y="285" on="1"/>
        <pt x="362" y="265" on="0"/>
        <pt x="365" y="235" on="0"/>
        <pt x="365" y="213" on="1"/>
        <pt x="365" y="25" on="1"/>
        <pt x="365" y="4" on="0"/>
        <pt x="361" y="-57" on="0"/>
        <pt x="354" y="-125" on="0"/>
        <pt x="345" y="-196" on="0"/>
        <pt x="341" y="-229" on="1"/>
        <pt x="253" y="-229" on="1"/>
        <pt x="235" y="-60" on="1"/>
        <pt x="232" y="-32" on="0"/>
        <pt x="230" y="5" on="0"/>
        <pt x="230" y="25" on="1"/>
        <pt x="230" y="213" on="1"/>
        <pt x="230" y="235" on="0"/>
        <pt x="233" y="266" on="0"/>
        <pt x="235" y="285" on="1"/>
        <pt x="239" y="324" on="1"/>
        <pt x="171" y="315" on="1"/>
        <pt x="148" y="312" on="0"/>
        <pt x="114" y="310" on="0"/>
        <pt x="96" y="310" on="1"/>
        <pt x="47" y="310" on="1"/>
        <pt x="47" y="437" on="1"/>
        <pt x="96" y="437" on="1"/>
        <pt x="114" y="437" on="0"/>
        <pt x="148" y="435" on="0"/>
        <pt x="171" y="432" on="1"/>
        <pt x="240" y="423" on="1"/>
        <pt x="235" y="463" on="1"/>
        <pt x="233" y="483" on="0"/>
        <pt x="230" y="515" on="0"/>
        <pt x="230" y="536" on="1"/>
        <pt x="230" y="663" on="1"/>
        <pt x="365" y="663" on="1"/>
        <pt x="365" y="536" on="1"/>
        <pt x="365" y="515" on="0"/>
        <pt x="363" y="484" on="0"/>
        <pt x="360" y="463" on="1"/>
        <pt x="355" y="423" on="1"/>
        <pt x="424" y="432" on="1"/>
        <pt x="447" y="435" on="0"/>
        <pt x="480" y="437" on="0"/>
        <pt x="499" y="437" on="1"/>
      </contour>
    </TTGlyph>
    <TTGlyph name="daggerdbl" xMin="47" yMin="-229" xMax="547" yMax="663">
      <contour>
        <pt x="233" y="155" on="1"/>
        <pt x="231" y="170" on="0"/>
        <pt x="229" y="198" on="0"/>
        <pt x="229" y="215" on="1"/>
        <pt x="229" y="233" on="0"/>
        <pt x="232" y="265" on="0"/>
        <pt x="234" y="283" on="1"/>
        <pt x="239" y="323" on="1"/>
        <pt x="171" y="314" on="1"/>
        <pt x="151" y="311" on="0"/>
        <pt x="120" y="309" on="0"/>
        <pt x="104" y="309" on="1"/>
        <pt x="47" y="309" on="1"/>
        <pt x="47" y="437" on="1"/>
        <pt x="104" y="437" on="1"/>
        <pt x="120" y="437" on="0"/>
        <pt x="151" y="435" on="0"/>
        <pt x="171" y="432" on="1"/>
        <pt x="240" y="422" on="1"/>
        <pt x="235" y="463" on="1"/>
        <pt x="233" y="480" on="0"/>
        <pt x="230" y="517" on="0"/>
        <pt x="230" y="527" on="1"/>
        <pt x="230" y="663" on="1"/>
        <pt x="365" y="663" on="1"/>
        <pt x="365" y="528" on="1"/>
        <pt x="365" y="518" on="0"/>
        <pt x="362" y="481" on="0"/>
        <pt x="360" y="464" on="1"/>
        <pt x="355" y="422" on="1"/>
        <pt x="424" y="432" on="1"/>
        <pt x="444" y="435" on="0"/>
        <pt x="474" y="437" on="0"/>
        <pt x="491" y="437" on="1"/>
        <pt x="547" y="437" on="1"/>
        <pt x="547" y="309" on="1"/>
        <pt x="491" y="309" on="1"/>
        <pt x="477" y="309" on="0"/>
        <pt x="444" y="312" on="0"/>
        <pt x="424" y="314" on="1"/>
        <pt x="355" y="323" on="1"/>
        <pt x="360" y="283" on="1"/>
        <pt x="362" y="265" on="0"/>
        <pt x="365" y="233" on="0"/>
        <pt x="365" y="215" on="1"/>
        <pt x="365" y="198" on="0"/>
        <pt x="363" y="170" on="0"/>
        <pt x="361" y="155" on="1"/>
        <pt x="355" y="106" on="1"/>
        <pt x="424" y="116" on="1"/>
        <pt x="444" y="119" on="0"/>
        <pt x="475" y="121" on="0"/>
        <pt x="491" y="121" on="1"/>
        <pt x="547" y="121" on="1"/>
        <pt x="547" y="-6" on="1"/>
        <pt x="493" y="-6" on="1"/>
        <pt x="477" y="-6" on="0"/>
        <pt x="444" y="-3" on="0"/>
        <pt x="424" y="-1" on="1"/>
        <pt x="355" y="7" on="1"/>
        <pt x="360" y="-32" on="1"/>
        <pt x="362" y="-50" on="0"/>
        <pt x="365" y="-78" on="0"/>
        <pt x="365" y="-97" on="1"/>
        <pt x="365" y="-229" on="1"/>
        <pt x="230" y="-229" on="1"/>
        <pt x="230" y="-97" on="1"/>
        <pt x="230" y="-78" on="0"/>
        <pt x="233" y="-49" on="0"/>
        <pt x="235" y="-32" on="1"/>
        <pt x="240" y="7" on="1"/>
        <pt x="171" y="-1" on="1"/>
        <pt x="151" y="-3" on="0"/>
        <pt x="119" y="-6" on="0"/>
        <pt x="103" y="-6" on="1"/>
        <pt x="47" y="-6" on="1"/>
        <pt x="47" y="121" on="1"/>
        <pt x="104" y="121" on="1"/>
        <pt x="120" y="121" on="0"/>
        <pt x="151" y="119" on="0"/>
        <pt x="171" y="116" on="1"/>
        <pt x="239" y="106" on="1"/>
      </contour>
    </TTGlyph>
    <TTGlyph name="dcaron" xMin="30" yMin="-8" xMax="726" yMax="709">
      <component glyphName="d" x="0" y="0" flags="0x4"/>
      <component glyphName="commaaccent" x="442" y="767" flags="0x4"/>
    </TTGlyph>
    <TTGlyph name="dcroat" xMin="30" yMin="-8" xMax="596" yMax="709">
      <contour>
        <pt x="396" y="46" on="1"/>
        <pt x="357" y="25" on="1"/>
        <pt x="328" y="9" on="0"/>
        <pt x="273" y="-8" on="0"/>
        <pt x="243" y="-8" on="1"/>
        <pt x="196" y="-8" on="0"/>
        <pt x="118" y="29" on="0"/>
        <pt x="61" y="95" on="0"/>
        <pt x="30" y="187" on="0"/>
        <pt x="30" y="243" on="1"/>
        <pt x="30" y="300" on="0"/>
        <pt x="64" y="393" on="0"/>
        <pt x="123" y="460" on="0"/>
        <pt x="202" y="496" on="0"/>
        <pt x="247" y="496" on="1"/>
        <pt x="285" y="496" on="0"/>
        <pt x="347" y="472" on="0"/>
        <pt x="379" y="450" on="1"/>
        <pt x="379" y="552" on="1"/>
        <pt x="237" y="552" on="1"/>
        <pt x="237" y="639" on="1"/>
        <pt x="379" y="639" on="1"/>
        <pt x="379" y="709" on="1"/>
        <pt x="525" y="709" on="1"/>
        <pt x="525" y="639" on="1"/>
        <pt x="596" y="626" on="1"/>
        <pt x="596" y="552" on="1"/>
        <pt x="525" y="552" on="1"/>
        <pt x="525" y="0" on="1"/>
        <pt x="414" y="0" on="1"/>
      </contour>
      <contour>
        <pt x="379" y="327" on="1"/>
        <pt x="379" y="340" on="0"/>
        <pt x="370" y="344" on="1"/>
        <pt x="353" y="351" on="0"/>
        <pt x="307" y="362" on="0"/>
        <pt x="282" y="362" on="1"/>
        <pt x="230" y="362" on="0"/>
        <pt x="178" y="306" on="0"/>
        <pt x="178" y="243" on="1"/>
        <pt x="178" y="181" on="0"/>
        <pt x="228" y="125" on="0"/>
        <pt x="283" y="125" on="1"/>
        <pt x="307" y="125" on="0"/>
        <pt x="353" y="135" on="0"/>
        <pt x="370" y="142" on="1"/>
        <pt x="379" y="146" on="0"/>
        <pt x="379" y="159" on="1"/>
      </contour>
    </TTGlyph>
    <TTGlyph name="degree" xMin="48" yMin="317" xMax="412" yMax="673">
      <contour>
        <pt x="230" y="427" on="1"/>
        <pt x="297" y="427" on="0"/>
        <pt x="297" y="495" on="1"/>
        <pt x="297" y="563" on="0"/>
        <pt x="230" y="563" on="1"/>
        <pt x="163" y="563" on="0"/>
        <pt x="163" y="495" on="1"/>
        <pt x="163" y="427" on="0"/>
      </contour>
      <contour>
        <pt x="230" y="317" on="1"/>
        <pt x="195" y="317" on="0"/>
        <pt x="130" y="341" on="0"/>
        <pt x="79" y="386" on="0"/>
        <pt x="48" y="453" on="0"/>
        <pt x="48" y="495" on="1"/>
        <pt x="48" y="537" on="0"/>
        <pt x="79" y="604" on="0"/>
        <pt x="130" y="649" on="0"/>
        <pt x="195" y="673" on="0"/>
        <pt x="230" y="673" on="1"/>
        <pt x="265" y="673" on="0"/>
        <pt x="330" y="649" on="0"/>
        <pt x="381" y="604" on="0"/>
        <pt x="412" y="537" on="0"/>
        <pt x="412" y="495" on="1"/>
        <pt x="412" y="453" on="0"/>
        <pt x="381" y="386" on="0"/>
        <pt x="330" y="341" on="0"/>
        <pt x="265" y="317" on="0"/>
      </contour>
    </TTGlyph>
    <TTGlyph name="dieresis" xMin="37" yMin="570" xMax="386" yMax="701">
      <contour>
        <pt x="144" y="701" on="1"/>
        <pt x="161" y="701" on="0"/>
        <pt x="173" y="689" on="0"/>
        <pt x="173" y="675" on="1"/>
        <pt x="173" y="570" on="1"/>
        <pt x="37" y="570" on="1"/>
        <pt x="37" y="701" on="1"/>
      </contour>
      <contour>
        <pt x="357" y="701" on="1"/>
        <pt x="374" y="701" on="0"/>
        <pt x="386" y="689" on="0"/>
        <pt x="386" y="675" on="1"/>
        <pt x="386" y="570" on="1"/>
        <pt x="250" y="570" on="1"/>
        <pt x="250" y="701" on="1"/>
      </contour>
    </TTGlyph>
    <TTGlyph name="dieresis.cap" xMin="37" yMin="744" xMax="386" yMax="875">
      <contour>
        <pt x="144" y="875" on="1"/>
        <pt x="161" y="875" on="0"/>
        <pt x="173" y="863" on="0"/>
        <pt x="173" y="849" on="1"/>
        <pt x="173" y="744" on="1"/>
        <pt x="37" y="744" on="1"/>
        <pt x="37" y="875" on="1"/>
      </contour>
      <contour>
        <pt x="357" y="875" on="1"/>
        <pt x="374" y="875" on="0"/>
        <pt x="386" y="863" on="0"/>
        <pt x="386" y="849" on="1"/>
        <pt x="386" y="744" on="1"/>
        <pt x="250" y="744" on="1"/>
        <pt x="250" y="875" on="1"/>
      </contour>
    </TTGlyph>
    <TTGlyph name="divide" xMin="71" yMin="13" xMax="494" yMax="500">
      <contour>
        <pt x="71" y="195" on="1"/>
        <pt x="71" y="318" on="1"/>
        <pt x="494" y="318" on="1"/>
        <pt x="494" y="195" on="1"/>
      </contour>
      <contour>
        <pt x="324" y="500" on="1"/>
        <pt x="341" y="500" on="0"/>
        <pt x="352" y="489" on="0"/>
        <pt x="352" y="474" on="1"/>
        <pt x="352" y="365" on="1"/>
        <pt x="213" y="365" on="1"/>
        <pt x="213" y="500" on="1"/>
      </contour>
      <contour>
        <pt x="324" y="148" on="1"/>
        <pt x="341" y="148" on="0"/>
        <pt x="352" y="137" on="0"/>
        <pt x="352" y="122" on="1"/>
        <pt x="352" y="13" on="1"/>
        <pt x="213" y="13" on="1"/>
        <pt x="213" y="148" on="1"/>
      </contour>
    </TTGlyph>
    <TTGlyph name="dollar" xMin="72" yMin="-131" xMax="608" yMax="793">
      <contour>
        <pt x="189" y="152" on="1"/>
        <pt x="242" y="140" on="0"/>
        <pt x="317" y="128" on="0"/>
        <pt x="350" y="128" on="1"/>
        <pt x="403" y="128" on="0"/>
        <pt x="459" y="165" on="0"/>
        <pt x="459" y="197" on="1"/>
        <pt x="459" y="209" on="0"/>
        <pt x="451" y="228" on="0"/>
        <pt x="430" y="245" on="0"/>
        <pt x="393" y="260" on="0"/>
        <pt x="364" y="268" on="1"/>
        <pt x="297" y="287" on="1"/>
        <pt x="246" y="302" on="0"/>
        <pt x="166" y="337" on="0"/>
        <pt x="111" y="384" on="0"/>
        <pt x="82" y="445" on="0"/>
        <pt x="82" y="486" on="1"/>
        <pt x="82" y="527" on="0"/>
        <pt x="112" y="591" on="0"/>
        <pt x="166" y="636" on="0"/>
        <pt x="239" y="664" on="0"/>
        <pt x="283" y="669" on="1"/>
        <pt x="298" y="793" on="1"/>
        <pt x="395" y="793" on="1"/>
        <pt x="395" y="670" on="1"/>
        <pt x="443" y="665" on="0"/>
        <pt x="534" y="643" on="0"/>
        <pt x="575" y="624" on="1"/>
        <pt x="551" y="518" on="1"/>
        <pt x="490" y="525" on="1"/>
        <pt x="452" y="530" on="0"/>
        <pt x="375" y="535" on="0"/>
        <pt x="349" y="535" on="1"/>
        <pt x="287" y="535" on="0"/>
        <pt x="230" y="512" on="0"/>
        <pt x="230" y="486" on="1"/>
        <pt x="230" y="463" on="0"/>
        <pt x="279" y="438" on="0"/>
        <pt x="328" y="424" on="1"/>
        <pt x="396" y="405" on="1"/>
        <pt x="457" y="388" on="0"/>
        <pt x="539" y="350" on="0"/>
        <pt x="588" y="303" on="0"/>
        <pt x="608" y="244" on="0"/>
        <pt x="608" y="206" on="1"/>
        <pt x="608" y="159" on="0"/>
        <pt x="577" y="84" on="0"/>
        <pt x="521" y="30" on="0"/>
        <pt x="443" y="-2" on="0"/>
        <pt x="395" y="-7" on="1"/>
        <pt x="380" y="-131" on="1"/>
        <pt x="283" y="-131" on="1"/>
        <pt x="283" y="-5" on="1"/>
        <pt x="225" y="3" on="0"/>
        <pt x="114" y="42" on="0"/>
        <pt x="72" y="68" on="1"/>
        <pt x="111" y="170" on="1"/>
      </contour>
    </TTGlyph>
    <TTGlyph name="dollar.lprop" xMin="42" yMin="-131" xMax="578" yMax="793">
      <component glyphName="dollar" x="-30" y="0" flags="0x4"/>
    </TTGlyph>
    <TTGlyph name="dollar.oprop" xMin="54" yMin="-131" xMax="483" yMax="619">
      <component glyphName="dollar.otab" x="-62" y="0" flags="0x4"/>
    </TTGlyph>
    <TTGlyph name="dollar.otab" xMin="116" yMin="-131" xMax="545" yMax="619">
      <contour>
        <pt x="450" y="371" on="1"/>
        <pt x="414" y="375" on="0"/>
        <pt x="354" y="379" on="0"/>
        <pt x="334" y="379" on="1"/>
        <pt x="291" y="379" on="0"/>
        <pt x="253" y="367" on="0"/>
        <pt x="253" y="351" on="1"/>
        <pt x="253" y="338" on="0"/>
        <pt x="282" y="326" on="0"/>
        <pt x="307" y="321" on="1"/>
        <pt x="375" y="306" on="1"/>
        <pt x="421" y="296" on="0"/>
        <pt x="486" y="272" on="0"/>
        <pt x="527" y="238" on="0"/>
        <pt x="545" y="191" on="0"/>
        <pt x="545" y="159" on="1"/>
        <pt x="545" y="97" on="0"/>
        <pt x="471" y="8" on="0"/>
        <pt x="391" y="-4" on="1"/>
        <pt x="376" y="-131" on="1"/>
        <pt x="280" y="-131" on="1"/>
        <pt x="280" y="-4" on="1"/>
        <pt x="235" y="1" on="0"/>
        <pt x="148" y="28" on="0"/>
        <pt x="116" y="48" on="1"/>
        <pt x="145" y="133" on="1"/>
        <pt x="207" y="123" on="1"/>
        <pt x="252" y="115" on="0"/>
        <pt x="311" y="109" on="0"/>
        <pt x="336" y="109" on="1"/>
        <pt x="414" y="109" on="0"/>
        <pt x="414" y="146" on="1"/>
        <pt x="414" y="160" on="0"/>
        <pt x="391" y="172" on="0"/>
        <pt x="362" y="179" on="1"/>
        <pt x="294" y="194" on="1"/>
        <pt x="256" y="202" on="0"/>
        <pt x="192" y="226" on="0"/>
        <pt x="147" y="261" on="0"/>
        <pt x="122" y="310" on="0"/>
        <pt x="122" y="345" on="1"/>
        <pt x="122" y="408" on="0"/>
        <pt x="208" y="482" on="0"/>
        <pt x="280" y="492" on="1"/>
        <pt x="295" y="619" on="1"/>
        <pt x="391" y="619" on="1"/>
        <pt x="391" y="492" on="1"/>
        <pt x="463" y="483" on="0"/>
        <pt x="523" y="455" on="1"/>
        <pt x="501" y="366" on="1"/>
      </contour>
    </TTGlyph>
    <TTGlyph name="dotaccent" xMin="141" yMin="559" xMax="281" yMax="694">
      <contour>
        <pt x="251" y="694" on="1"/>
        <pt x="269" y="694" on="0"/>
        <pt x="281" y="682" on="0"/>
        <pt x="281" y="667" on="1"/>
        <pt x="281" y="559" on="1"/>
        <pt x="141" y="559" on="1"/>
        <pt x="141" y="694" on="1"/>
      </contour>
    </TTGlyph>
    <TTGlyph name="dotaccent.cap" xMin="141" yMin="733" xMax="281" yMax="868">
      <contour>
        <pt x="251" y="868" on="1"/>
        <pt x="269" y="868" on="0"/>
        <pt x="281" y="856" on="0"/>
        <pt x="281" y="841" on="1"/>
        <pt x="281" y="733" on="1"/>
        <pt x="141" y="733" on="1"/>
        <pt x="141" y="868" on="1"/>
      </contour>
    </TTGlyph>
    <TTGlyph name="dotlessi" xMin="56" yMin="0" xMax="202" yMax="488">
      <contour>
        <pt x="56" y="488" on="1"/>
        <pt x="202" y="488" on="1"/>
        <pt x="202" y="0" on="1"/>
        <pt x="56" y="0" on="1"/>
      </contour>
    </TTGlyph>
    <TTGlyph name="e" xMin="29" yMin="-8" xMax="513" yMax="496">
      <contour>
        <pt x="177" y="199" on="1"/>
        <pt x="183" y="162" on="0"/>
        <pt x="242" y="117" on="0"/>
        <pt x="293" y="117" on="1"/>
        <pt x="314" y="117" on="0"/>
        <pt x="366" y="126" on="0"/>
        <pt x="389" y="134" on="1"/>
        <pt x="457" y="155" on="1"/>
        <pt x="501" y="75" on="1"/>
        <pt x="458" y="37" on="0"/>
        <pt x="341" y="-8" on="0"/>
        <pt x="277" y="-8" on="1"/>
        <pt x="223" y="-8" on="0"/>
        <pt x="132" y="28" on="0"/>
        <pt x="66" y="93" on="0"/>
        <pt x="29" y="186" on="0"/>
        <pt x="29" y="243" on="1"/>
        <pt x="29" y="300" on="0"/>
        <pt x="66" y="393" on="0"/>
        <pt x="132" y="459" on="0"/>
        <pt x="222" y="496" on="0"/>
        <pt x="275" y="496" on="1"/>
        <pt x="327" y="496" on="0"/>
        <pt x="415" y="458" on="0"/>
        <pt x="478" y="393" on="0"/>
        <pt x="513" y="308" on="0"/>
        <pt x="513" y="260" on="1"/>
        <pt x="513" y="222" on="0"/>
        <pt x="501" y="199" on="0"/>
        <pt x="488" y="199" on="1"/>
      </contour>
      <contour>
        <pt x="275" y="376" on="1"/>
        <pt x="235" y="376" on="0"/>
        <pt x="182" y="332" on="0"/>
        <pt x="177" y="297" on="1"/>
        <pt x="370" y="297" on="1"/>
        <pt x="365" y="332" on="0"/>
        <pt x="314" y="376" on="0"/>
      </contour>
    </TTGlyph>
    <TTGlyph name="eacute" xMin="29" yMin="-8" xMax="513" yMax="757">
      <component glyphName="e" x="0" y="0" flags="0x204"/>
      <component glyphName="acute" x="59" y="0" flags="0x4"/>
    </TTGlyph>
    <TTGlyph name="ebreve" xMin="29" yMin="-8" xMax="513" yMax="726">
      <component glyphName="e" x="0" y="0" flags="0x204"/>
      <component glyphName="breve" x="59" y="0" flags="0x4"/>
    </TTGlyph>
    <TTGlyph name="ecaron" xMin="29" yMin="-8" xMax="513" yMax="744">
      <component glyphName="e" x="0" y="0" flags="0x204"/>
      <component glyphName="caron" x="66" y="0" flags="0x4"/>
    </TTGlyph>
    <TTGlyph name="ecircumflex" xMin="29" yMin="-8" xMax="513" yMax="741">
      <component glyphName="e" x="0" y="0" flags="0x204"/>
      <component glyphName="circumflex" x="60" y="0" flags="0x4"/>
    </TTGlyph>
    <TTGlyph name="edieresis" xMin="29" yMin="-8" xMax="513" yMax="701">
      <component glyphName="e" x="0" y="0" flags="0x204"/>
      <component glyphName="dieresis" x="59" y="0" flags="0x4"/>
    </TTGlyph>
    <TTGlyph name="edotaccent" xMin="29" yMin="-8" xMax="513" yMax="694">
      <component glyphName="e" x="0" y="0" flags="0x204"/>
      <component glyphName="dotaccent" x="60" y="0" flags="0x4"/>
    </TTGlyph>
    <TTGlyph name="egrave" xMin="29" yMin="-8" xMax="513" yMax="757">
      <component glyphName="e" x="0" y="0" flags="0x204"/>
      <component glyphName="grave" x="59" y="0" flags="0x4"/>
    </TTGlyph>
    <TTGlyph name="eight" xMin="52" yMin="-10" xMax="612" yMax="673">
      <contour>
        <pt x="52" y="203" on="1"/>
        <pt x="52" y="230" on="0"/>
        <pt x="69" y="275" on="0"/>
        <pt x="97" y="312" on="0"/>
        <pt x="134" y="341" on="0"/>
        <pt x="154" y="352" on="1"/>
        <pt x="122" y="374" on="0"/>
        <pt x="79" y="440" on="0"/>
        <pt x="79" y="486" on="1"/>
        <pt x="79" y="526" on="0"/>
        <pt x="116" y="595" on="0"/>
        <pt x="182" y="645" on="0"/>
        <pt x="275" y="673" on="0"/>
        <pt x="331" y="673" on="1"/>
        <pt x="392" y="673" on="0"/>
        <pt x="488" y="642" on="0"/>
        <pt x="553" y="591" on="0"/>
        <pt x="587" y="525" on="0"/>
        <pt x="587" y="489" on="1"/>
        <pt x="587" y="412" on="0"/>
        <pt x="512" y="349" on="1"/>
        <pt x="563" y="325" on="0"/>
        <pt x="612" y="251" on="0"/>
        <pt x="612" y="205" on="1"/>
        <pt x="612" y="161" on="0"/>
        <pt x="572" y="83" on="0"/>
        <pt x="500" y="24" on="0"/>
        <pt x="398" y="-10" on="0"/>
        <pt x="335" y="-10" on="1"/>
        <pt x="273" y="-10" on="0"/>
        <pt x="169" y="21" on="0"/>
        <pt x="94" y="76" on="0"/>
        <pt x="52" y="155" on="0"/>
      </contour>
      <contour>
        <pt x="224" y="485" on="1"/>
        <pt x="224" y="458" on="0"/>
        <pt x="276" y="431" on="0"/>
        <pt x="325" y="415" on="1"/>
        <pt x="386" y="394" on="1"/>
        <pt x="400" y="389" on="0"/>
        <pt x="410" y="394" on="0"/>
        <pt x="416" y="400" on="1"/>
        <pt x="428" y="412" on="0"/>
        <pt x="448" y="448" on="0"/>
        <pt x="448" y="465" on="1"/>
        <pt x="448" y="501" on="0"/>
        <pt x="380" y="545" on="0"/>
        <pt x="326" y="545" on="1"/>
        <pt x="284" y="545" on="0"/>
        <pt x="224" y="515" on="0"/>
      </contour>
      <contour>
        <pt x="200" y="219" on="1"/>
        <pt x="200" y="178" on="0"/>
        <pt x="271" y="123" on="0"/>
        <pt x="334" y="123" on="1"/>
        <pt x="361" y="123" on="0"/>
        <pt x="406" y="135" on="0"/>
        <pt x="440" y="157" on="0"/>
        <pt x="459" y="185" on="0"/>
        <pt x="459" y="202" on="1"/>
        <pt x="459" y="213" on="0"/>
        <pt x="449" y="229" on="0"/>
        <pt x="424" y="244" on="0"/>
        <pt x="383" y="259" on="0"/>
        <pt x="352" y="270" on="1"/>
        <pt x="268" y="299" on="1"/>
        <pt x="254" y="304" on="0"/>
        <pt x="243" y="300" on="0"/>
        <pt x="235" y="292" on="1"/>
        <pt x="220" y="278" on="0"/>
        <pt x="200" y="241" on="0"/>
      </contour>
    </TTGlyph>
    <TTGlyph name="eight.lprop" xMin="41" yMin="-10" xMax="601" yMax="673">
      <component glyphName="eight" x="-11" y="0" flags="0x4"/>
    </TTGlyph>
    <TTGlyph name="eight.oprop" xMin="45" yMin="-8" xMax="580" yMax="671">
      <contour>
        <pt x="45" y="202" on="1"/>
        <pt x="45" y="255" on="0"/>
        <pt x="103" y="330" on="0"/>
        <pt x="145" y="353" on="1"/>
        <pt x="114" y="375" on="0"/>
        <pt x="71" y="439" on="0"/>
        <pt x="71" y="485" on="1"/>
        <pt x="71" y="526" on="0"/>
        <pt x="107" y="594" on="0"/>
        <pt x="172" y="644" on="0"/>
        <pt x="260" y="671" on="0"/>
        <pt x="312" y="671" on="1"/>
        <pt x="361" y="671" on="0"/>
        <pt x="449" y="646" on="0"/>
        <pt x="516" y="598" on="0"/>
        <pt x="556" y="529" on="0"/>
        <pt x="556" y="484" on="1"/>
        <pt x="556" y="446" on="0"/>
        <pt x="514" y="375" on="0"/>
        <pt x="480" y="349" on="1"/>
        <pt x="523" y="328" on="0"/>
        <pt x="580" y="261" on="0"/>
        <pt x="580" y="208" on="1"/>
        <pt x="580" y="161" on="0"/>
        <pt x="541" y="82" on="0"/>
        <pt x="470" y="25" on="0"/>
        <pt x="373" y="-8" on="0"/>
        <pt x="315" y="-8" on="1"/>
        <pt x="255" y="-8" on="0"/>
        <pt x="156" y="24" on="0"/>
        <pt x="84" y="80" on="0"/>
        <pt x="45" y="157" on="0"/>
      </contour>
      <contour>
        <pt x="388" y="398" on="1"/>
        <pt x="403" y="414" on="0"/>
        <pt x="424" y="450" on="0"/>
        <pt x="424" y="470" on="1"/>
        <pt x="424" y="509" on="0"/>
        <pt x="358" y="552" on="0"/>
        <pt x="307" y="552" on="1"/>
        <pt x="262" y="552" on="0"/>
        <pt x="209" y="519" on="0"/>
        <pt x="209" y="490" on="1"/>
        <pt x="209" y="462" on="0"/>
        <pt x="260" y="432" on="0"/>
        <pt x="303" y="416" on="1"/>
        <pt x="362" y="394" on="1"/>
        <pt x="372" y="390" on="0"/>
        <pt x="382" y="392" on="0"/>
      </contour>
      <contour>
        <pt x="225" y="297" on="1"/>
        <pt x="208" y="283" on="0"/>
        <pt x="185" y="244" on="0"/>
        <pt x="185" y="218" on="1"/>
        <pt x="185" y="173" on="0"/>
        <pt x="255" y="117" on="0"/>
        <pt x="315" y="117" on="1"/>
        <pt x="371" y="117" on="0"/>
        <pt x="435" y="166" on="0"/>
        <pt x="435" y="199" on="1"/>
        <pt x="435" y="225" on="0"/>
        <pt x="380" y="254" on="0"/>
        <pt x="329" y="273" on="1"/>
        <pt x="252" y="301" on="1"/>
        <pt x="237" y="306" on="0"/>
      </contour>
    </TTGlyph>
    <TTGlyph name="eight.otab" xMin="64" yMin="-8" xMax="599" yMax="671">
      <contour>
        <pt x="64" y="202" on="1"/>
        <pt x="64" y="255" on="0"/>
        <pt x="122" y="330" on="0"/>
        <pt x="164" y="353" on="1"/>
        <pt x="133" y="375" on="0"/>
        <pt x="90" y="439" on="0"/>
        <pt x="90" y="485" on="1"/>
        <pt x="90" y="526" on="0"/>
        <pt x="126" y="594" on="0"/>
        <pt x="191" y="644" on="0"/>
        <pt x="279" y="671" on="0"/>
        <pt x="331" y="671" on="1"/>
        <pt x="380" y="671" on="0"/>
        <pt x="468" y="646" on="0"/>
        <pt x="535" y="598" on="0"/>
        <pt x="575" y="529" on="0"/>
        <pt x="575" y="484" on="1"/>
        <pt x="575" y="446" on="0"/>
        <pt x="533" y="375" on="0"/>
        <pt x="499" y="349" on="1"/>
        <pt x="542" y="328" on="0"/>
        <pt x="599" y="261" on="0"/>
        <pt x="599" y="208" on="1"/>
        <pt x="599" y="161" on="0"/>
        <pt x="560" y="82" on="0"/>
        <pt x="489" y="25" on="0"/>
        <pt x="392" y="-8" on="0"/>
        <pt x="334" y="-8" on="1"/>
        <pt x="274" y="-8" on="0"/>
        <pt x="175" y="24" on="0"/>
        <pt x="103" y="80" on="0"/>
        <pt x="64" y="157" on="0"/>
      </contour>
      <contour>
        <pt x="407" y="398" on="1"/>
        <pt x="422" y="414" on="0"/>
        <pt x="443" y="450" on="0"/>
        <pt x="443" y="470" on="1"/>
        <pt x="443" y="509" on="0"/>
        <pt x="377" y="552" on="0"/>
        <pt x="326" y="552" on="1"/>
        <pt x="281" y="552" on="0"/>
        <pt x="228" y="519" on="0"/>
        <pt x="228" y="490" on="1"/>
        <pt x="228" y="462" on="0"/>
        <pt x="279" y="432" on="0"/>
        <pt x="322" y="416" on="1"/>
        <pt x="381" y="394" on="1"/>
        <pt x="391" y="390" on="0"/>
        <pt x="401" y="392" on="0"/>
      </contour>
      <contour>
        <pt x="244" y="297" on="1"/>
        <pt x="227" y="283" on="0"/>
        <pt x="204" y="244" on="0"/>
        <pt x="204" y="218" on="1"/>
        <pt x="204" y="173" on="0"/>
        <pt x="274" y="117" on="0"/>
        <pt x="334" y="117" on="1"/>
        <pt x="390" y="117" on="0"/>
        <pt x="454" y="166" on="0"/>
        <pt x="454" y="199" on="1"/>
        <pt x="454" y="225" on="0"/>
        <pt x="399" y="254" on="0"/>
        <pt x="348" y="273" on="1"/>
        <pt x="271" y="301" on="1"/>
        <pt x="256" y="306" on="0"/>
      </contour>
    </TTGlyph>
    <TTGlyph name="ellipsis" xMin="46" yMin="0" xMax="692" yMax="151">
      <contour>
        <pt x="166" y="151" on="1"/>
        <pt x="186" y="151" on="0"/>
        <pt x="200" y="137" on="0"/>
        <pt x="200" y="120" on="1"/>
        <pt x="200" y="0" on="1"/>
        <pt x="46" y="0" on="1"/>
        <pt x="46" y="151" on="1"/>
      </contour>
      <contour>
        <pt x="412" y="151" on="1"/>
        <pt x="432" y="151" on="0"/>
        <pt x="446" y="137" on="0"/>
        <pt x="446" y="120" on="1"/>
        <pt x="446" y="0" on="1"/>
        <pt x="292" y="0" on="1"/>
        <pt x="292" y="151" on="1"/>
      </contour>
      <contour>
        <pt x="658" y="151" on="1"/>
        <pt x="678" y="151" on="0"/>
        <pt x="692" y="137" on="0"/>
        <pt x="692" y="120" on="1"/>
        <pt x="692" y="0" on="1"/>
        <pt x="538" y="0" on="1"/>
        <pt x="538" y="151" on="1"/>
      </contour>
    </TTGlyph>
    <TTGlyph name="emacron" xMin="29" yMin="-8" xMax="513" yMax="691">
      <component glyphName="e" x="0" y="0" flags="0x204"/>
      <component glyphName="macron" x="59" y="0" flags="0x4"/>
    </TTGlyph>
    <TTGlyph name="emdash" xMin="45" yMin="184" xMax="1045" yMax="303">
      <contour>
        <pt x="45" y="184" on="1"/>
        <pt x="45" y="303" on="1"/>
        <pt x="1045" y="303" on="1"/>
        <pt x="1045" y="184" on="1"/>
      </contour>
    </TTGlyph>
    <TTGlyph name="emdash.cap" xMin="45" yMin="271" xMax="1045" yMax="390">
      <component glyphName="emdash" x="0" y="87" flags="0x204"/>
    </TTGlyph>
    <TTGlyph name="endash" xMin="45" yMin="184" xMax="545" yMax="303">
      <contour>
        <pt x="45" y="184" on="1"/>
        <pt x="45" y="303" on="1"/>
        <pt x="545" y="303" on="1"/>
        <pt x="545" y="184" on="1"/>
      </contour>
    </TTGlyph>
    <TTGlyph name="endash.cap" xMin="45" yMin="271" xMax="545" yMax="390">
      <component glyphName="endash" x="0" y="87" flags="0x204"/>
    </TTGlyph>
    <TTGlyph name="eng" xMin="55" yMin="-213" xMax="518" yMax="496">
      <contour>
        <pt x="518" y="-1" on="1"/>
        <pt x="518" y="-51" on="0"/>
        <pt x="504" y="-130" on="0"/>
        <pt x="468" y="-184" on="0"/>
        <pt x="405" y="-213" on="0"/>
        <pt x="356" y="-213" on="1"/>
        <pt x="330" y="-213" on="0"/>
        <pt x="281" y="-202" on="0"/>
        <pt x="262" y="-194" on="1"/>
        <pt x="262" y="-119" on="1"/>
        <pt x="323" y="-103" on="1"/>
        <pt x="355" y="-95" on="0"/>
        <pt x="372" y="-76" on="0"/>
        <pt x="372" y="-50" on="1"/>
        <pt x="372" y="296" on="1"/>
        <pt x="372" y="328" on="0"/>
        <pt x="358" y="342" on="1"/>
        <pt x="341" y="360" on="0"/>
        <pt x="292" y="360" on="1"/>
        <pt x="290" y="360" on="1"/>
        <pt x="267" y="360" on="0"/>
        <pt x="224" y="353" on="0"/>
        <pt x="210" y="348" on="1"/>
        <pt x="203" y="345" on="0"/>
        <pt x="201" y="337" on="0"/>
        <pt x="201" y="331" on="1"/>
        <pt x="201" y="0" on="1"/>
        <pt x="55" y="0" on="1"/>
        <pt x="55" y="488" on="1"/>
        <pt x="167" y="488" on="1"/>
        <pt x="184" y="444" on="1"/>
        <pt x="209" y="459" on="1"/>
        <pt x="238" y="476" on="0"/>
        <pt x="297" y="496" on="0"/>
        <pt x="330" y="496" on="1"/>
        <pt x="371" y="496" on="0"/>
        <pt x="442" y="468" on="0"/>
        <pt x="468" y="442" on="1"/>
        <pt x="492" y="417" on="0"/>
        <pt x="518" y="348" on="0"/>
        <pt x="518" y="300" on="1"/>
      </contour>
    </TTGlyph>
    <TTGlyph name="eogonek" xMin="29" yMin="-229" xMax="513" yMax="496">
      <contour>
        <pt x="275" y="376" on="1"/>
        <pt x="235" y="376" on="0"/>
        <pt x="182" y="332" on="0"/>
        <pt x="177" y="297" on="1"/>
        <pt x="370" y="297" on="1"/>
        <pt x="365" y="332" on="0"/>
        <pt x="314" y="376" on="0"/>
      </contour>
      <contour>
        <pt x="277" y="-8" on="1"/>
        <pt x="223" y="-8" on="0"/>
        <pt x="132" y="28" on="0"/>
        <pt x="66" y="93" on="0"/>
        <pt x="29" y="186" on="0"/>
        <pt x="29" y="243" on="1"/>
        <pt x="29" y="300" on="0"/>
        <pt x="67" y="393" on="0"/>
        <pt x="133" y="459" on="0"/>
        <pt x="223" y="496" on="0"/>
        <pt x="276" y="496" on="1"/>
        <pt x="328" y="496" on="0"/>
        <pt x="416" y="458" on="0"/>
        <pt x="478" y="393" on="0"/>
        <pt x="513" y="308" on="0"/>
        <pt x="513" y="260" on="1"/>
        <pt x="513" y="222" on="0"/>
        <pt x="501" y="199" on="0"/>
        <pt x="488" y="199" on="1"/>
        <pt x="177" y="199" on="1"/>
        <pt x="183" y="162" on="0"/>
        <pt x="242" y="117" on="0"/>
        <pt x="293" y="117" on="1"/>
        <pt x="314" y="117" on="0"/>
        <pt x="366" y="126" on="0"/>
        <pt x="389" y="134" on="1"/>
        <pt x="457" y="155" on="1"/>
        <pt x="501" y="75" on="1"/>
        <pt x="429" y="29" on="0"/>
        <pt x="350" y="-50" on="0"/>
        <pt x="350" y="-88" on="1"/>
        <pt x="350" y="-109" on="0"/>
        <pt x="380" y="-134" on="0"/>
        <pt x="413" y="-134" on="1"/>
        <pt x="438" y="-134" on="0"/>
        <pt x="471" y="-128" on="1"/>
        <pt x="493" y="-201" on="1"/>
        <pt x="467" y="-215" on="0"/>
        <pt x="408" y="-229" on="0"/>
        <pt x="382" y="-229" on="1"/>
        <pt x="316" y="-229" on="0"/>
        <pt x="241" y="-164" on="0"/>
        <pt x="241" y="-116" on="1"/>
        <pt x="241" y="-82" on="0"/>
        <pt x="280" y="-23" on="0"/>
        <pt x="306" y="-5" on="1"/>
        <pt x="298" y="-7" on="0"/>
        <pt x="282" y="-8" on="0"/>
      </contour>
    </TTGlyph>
    <TTGlyph name="equal" xMin="71" yMin="83" xMax="494" yMax="410">
      <contour>
        <pt x="71" y="287" on="1"/>
        <pt x="71" y="410" on="1"/>
        <pt x="494" y="410" on="1"/>
        <pt x="494" y="287" on="1"/>
      </contour>
      <contour>
        <pt x="71" y="83" on="1"/>
        <pt x="71" y="206" on="1"/>
        <pt x="494" y="206" on="1"/>
        <pt x="494" y="83" on="1"/>
      </contour>
    </TTGlyph>
    <TTGlyph name="estimated" xMin="53" yMin="-10" xMax="816" yMax="673">
      <contour>
        <pt x="199" y="323" on="1"/>
        <pt x="191" y="323" on="0"/>
        <pt x="191" y="317" on="1"/>
        <pt x="191" y="130" on="1"/>
        <pt x="191" y="123" on="0"/>
        <pt x="197" y="115" on="0"/>
        <pt x="203" y="109" on="1"/>
        <pt x="247" y="64" on="0"/>
        <pt x="368" y="11" on="0"/>
        <pt x="437" y="11" on="1"/>
        <pt x="511" y="11" on="0"/>
        <pt x="636" y="71" on="0"/>
        <pt x="681" y="121" on="1"/>
        <pt x="737" y="121" on="1"/>
        <pt x="683" y="61" on="0"/>
        <pt x="527" y="-10" on="0"/>
        <pt x="436" y="-10" on="1"/>
        <pt x="357" y="-10" on="0"/>
        <pt x="217" y="43" on="0"/>
        <pt x="113" y="135" on="0"/>
        <pt x="53" y="260" on="0"/>
        <pt x="53" y="331" on="1"/>
        <pt x="53" y="402" on="0"/>
        <pt x="113" y="527" on="0"/>
        <pt x="217" y="620" on="0"/>
        <pt x="357" y="673" on="0"/>
        <pt x="436" y="673" on="1"/>
        <pt x="514" y="673" on="0"/>
        <pt x="652" y="620" on="0"/>
        <pt x="755" y="527" on="0"/>
        <pt x="816" y="402" on="0"/>
        <pt x="816" y="331" on="1"/>
        <pt x="816" y="323" on="1"/>
      </contour>
      <contour>
        <pt x="677" y="537" on="1"/>
        <pt x="677" y="543" on="0"/>
        <pt x="670" y="553" on="0"/>
        <pt x="664" y="559" on="1"/>
        <pt x="622" y="603" on="0"/>
        <pt x="503" y="653" on="0"/>
        <pt x="437" y="653" on="1"/>
        <pt x="368" y="653" on="0"/>
        <pt x="248" y="601" on="0"/>
        <pt x="203" y="556" on="1"/>
        <pt x="197" y="550" on="0"/>
        <pt x="191" y="540" on="0"/>
        <pt x="191" y="532" on="1"/>
        <pt x="191" y="347" on="1"/>
        <pt x="191" y="342" on="0"/>
        <pt x="199" y="342" on="1"/>
        <pt x="669" y="342" on="1"/>
        <pt x="677" y="342" on="0"/>
        <pt x="677" y="347" on="1"/>
      </contour>
    </TTGlyph>
    <TTGlyph name="eth" xMin="29" yMin="-8" xMax="537" yMax="743">
      <contour>
        <pt x="117" y="576" on="1"/>
        <pt x="195" y="616" on="1"/>
        <pt x="178" y="625" on="0"/>
        <pt x="138" y="647" on="0"/>
        <pt x="118" y="657" on="1"/>
        <pt x="163" y="733" on="1"/>
        <pt x="202" y="722" on="0"/>
        <pt x="277" y="692" on="0"/>
        <pt x="308" y="675" on="1"/>
        <pt x="440" y="743" on="1"/>
        <pt x="490" y="653" on="1"/>
        <pt x="400" y="606" on="1"/>
        <pt x="469" y="540" on="0"/>
        <pt x="537" y="368" on="0"/>
        <pt x="537" y="271" on="1"/>
        <pt x="537" y="205" on="0"/>
        <pt x="500" y="101" on="0"/>
        <pt x="432" y="30" on="0"/>
        <pt x="336" y="-8" on="0"/>
        <pt x="277" y="-8" on="1"/>
        <pt x="275" y="-8" on="1"/>
        <pt x="218" y="-8" on="0"/>
        <pt x="127" y="29" on="0"/>
        <pt x="63" y="94" on="0"/>
        <pt x="29" y="183" on="0"/>
        <pt x="29" y="235" on="1"/>
        <pt x="29" y="289" on="0"/>
        <pt x="65" y="375" on="0"/>
        <pt x="126" y="435" on="0"/>
        <pt x="207" y="466" on="0"/>
        <pt x="252" y="466" on="1"/>
        <pt x="278" y="466" on="0"/>
        <pt x="332" y="455" on="0"/>
        <pt x="355" y="444" on="1"/>
        <pt x="344" y="473" on="0"/>
        <pt x="312" y="524" on="0"/>
        <pt x="288" y="547" on="1"/>
        <pt x="167" y="486" on="1"/>
      </contour>
      <contour>
        <pt x="389" y="256" on="1"/>
        <pt x="389" y="285" on="0"/>
        <pt x="381" y="321" on="0"/>
        <pt x="358" y="342" on="0"/>
        <pt x="316" y="350" on="0"/>
        <pt x="283" y="350" on="1"/>
        <pt x="281" y="350" on="1"/>
        <pt x="228" y="350" on="0"/>
        <pt x="176" y="296" on="0"/>
        <pt x="176" y="236" on="1"/>
        <pt x="176" y="187" on="0"/>
        <pt x="227" y="123" on="0"/>
        <pt x="281" y="123" on="1"/>
        <pt x="339" y="123" on="0"/>
        <pt x="389" y="189" on="0"/>
      </contour>
    </TTGlyph>
</ttFont>
